
<svg xmlns="http://www.w3.org/2000/svg" version="1.1" xmlns:xlink="http://www.w3.org/1999/xlink" preserveAspectRatio="none" x="0px" y="0px" width="502px" height="502px" viewBox="0 0 502 502">
<defs>
<g id="Layer1_0_FILL">
<path fill="#FFFFFF" stroke="none" d="
M 501 251
Q 501 147.5 427.75 74.25 354.45 1 251 1 147.5 1 74.25 74.25 1 147.5 1 251 1 354.5 74.25 427.75 147.5 501 251 501 354.45 501 427.75 427.75 501 354.5 501 251 Z"/>
</g>

<g id="Layer1_0_STROKES_1_FILL">
<path fill="#000000" stroke="none" d="
M 381.6 463.85
Q 381.2251953125 463.78125 380.85 464 378.725 465.3498046875 376.55 466.65 376.2232421875 466.8572265625 376.1 467.25 376.0302734375 467.6603515625 376.25 468 376.45703125 468.3775390625 376.85 468.45 377.259375 468.56953125 377.6 468.35 379.775 467.05 381.9 465.7 382.278515625 465.477734375 382.35 465.05 382.469140625 464.6744140625 382.25 464.3 382.0283203125 463.970703125 381.6 463.85
M 371.2 470.05
Q 370.8328125 469.930078125 370.45 470.1 368.225 471.375 365.95 472.55 365.6154296875 472.7634765625 365.5 473.15 365.3791015625 473.5521484375 365.55 473.9 365.7630859375 474.284765625 366.15 474.4 366.5517578125 474.5203125 366.9 474.3 369.175 473.125 371.4 471.85 371.786328125 471.6716796875 371.9 471.25 372.0205078125 470.8826171875 371.8 470.5 371.6224609375 470.16328125 371.2 470.05
M 391.7 457.15
Q 391.318359375 457.0951171875 390.95 457.3 388.8875 458.7748046875 386.8 460.15 386.4568359375 460.400390625 386.35 460.8 386.2939453125 461.2046875 386.5 461.55 386.7501953125 461.894140625 387.15 461.95 387.553515625 462.055859375 387.9 461.8 390.0125 460.425 392.1 458.95 392.4576171875 458.7345703125 392.5 458.3 392.6052734375 457.9177734375 392.35 457.55 392.1349609375 457.241796875 391.7 457.15
M 402.35 451.1
Q 402.403125 450.721484375 402.15 450.4 401.88984375 450.062109375 401.45 450 401.0716796875 449.94765625 400.75 450.2 398.7498046875 451.7498046875 396.7 453.25 396.3779296875 453.49375 396.3 453.9 396.2580078125 454.311328125 396.5 454.65 396.7435546875 454.9853515625 397.15 455.05 397.5603515625 455.104296875 397.9 454.85 399.9625 453.35 401.95 451.8 402.3001953125 451.5388671875 402.35 451.1
M 360.5 475.7
Q 360.1427734375 475.5666015625 359.75 475.75 357.475 476.8498046875 355.15 477.9 354.8091796875 478.06875 354.65 478.45 354.528515625 478.8423828125 354.7 479.2 354.8681640625 479.591015625 355.25 479.7 355.6421875 479.8708984375 356 479.7 358.325 478.65 360.6 477.55 361.0048828125 477.366796875 361.15 476.95 361.2837890625 476.5923828125 361.1 476.2 360.9173828125 475.84453125 360.5 475.7
M 343.5 484
Q 343.6748046875 484.4103515625 344.05 484.55 344.4380859375 484.73359375 344.8 484.55 347.1875 483.625 349.55 482.6 349.9251953125 482.459375 350.05 482.05 350.2341796875 481.68671875 350.05 481.3 349.9099609375 480.9244140625 349.5 480.75 349.1369140625 480.6162109375 348.75 480.75 346.4125 481.775 344.05 482.7 343.6888671875 482.875390625 343.5 483.25 343.3658203125 483.6373046875 343.5 484
M 332.65 486.9
Q 332.2849609375 487.0302734375 332.1 487.4 331.91640625 487.7771484375 332.05 488.15 332.1802734375 488.565234375 332.55 488.75 332.9267578125 488.9333984375 333.3 488.8 335.725 488 338.1 487.15 338.5185546875 487.004296875 338.7 486.6 338.8837890625 486.25703125 338.75 485.85 338.6048828125 485.4822265625 338.2 485.3 337.85625 485.1166015625 337.45 485.25 335.075 486.0998046875 332.65 486.9
M 420.55 436
Q 420.881640625 435.73828125 420.9 435.3 420.9109375 434.91953125 420.6 434.6 420.338671875 434.3177734375 419.9 434.3 419.5203125 434.289453125 419.2 434.55 417.3748046875 436.3123046875 415.45 438 415.1697265625 438.283203125 415.15 438.7 415.125 439.1140625 415.4 439.4 415.682421875 439.73046875 416.1 439.75 416.513671875 439.7740234375 416.8 439.5 418.7251953125 437.7876953125 420.55 436
M 411.45 444.1
Q 411.7646484375 443.8466796875 411.8 443.4 411.8388671875 443.0154296875 411.55 442.7 411.2966796875 442.383984375 410.85 442.35 410.4666015625 442.3111328125 410.15 442.55 408.2125 444.2248046875 406.25 445.8 405.9482421875 446.089453125 405.9 446.5 405.8603515625 446.907421875 406.1 447.2 406.3888671875 447.55234375 406.8 447.6 407.2068359375 447.6390625 407.5 447.35 409.4875 445.775 411.45 444.1
M 424.3 431.1
Q 424.6125 431.3955078125 425 431.4 425.443359375 431.4099609375 425.75 431.1 427.0998046875 429.8126953125 428.45 428.45 428.8 428.1 429.15 427.75 429.446484375 427.4607421875 429.45 427.05 429.446484375 426.6392578125 429.15 426.35 428.8607421875 426.053515625 428.45 426.05 428.0392578125 426.053515625 427.75 426.35 427.4 426.7 427.05 427.05 425.7 428.3873046875 424.35 429.65 424.0552734375 429.962890625 424.05 430.35 424.0396484375 430.794140625 424.3 431.1
M 437.6 418.8
Q 437.9111328125 418.515234375 437.9 418.1 437.8814453125 417.696875 437.55 417.4 437.266015625 417.13828125 436.85 417.15 436.4474609375 417.169140625 436.15 417.45 434.425 419.375 432.65 421.25 432.3888671875 421.584765625 432.4 422 432.4185546875 422.403125 432.7 422.65 433.033984375 422.9615234375 433.45 422.95 433.8525390625 422.9306640625 434.1 422.6 435.875 420.725 437.6 418.8
M 445.8 409.45
Q 446.088671875 409.1333984375 446.05 408.7 446.0158203125 408.303125 445.7 408 445.3845703125 407.7611328125 444.95 407.8 444.5533203125 407.83515625 444.25 408.15 442.6375 410.1 440.95 412.05 440.6751953125 412.36328125 440.7 412.75 440.7328125 413.1818359375 441.05 413.45 441.362890625 413.725390625 441.75 413.7 442.18125 413.666796875 442.45 413.35 444.1626953125 411.4 445.8 409.45
M 453.45 399.85
Q 453.70234375 399.5408203125 453.65 399.1 453.587890625 398.71015625 453.25 398.45 452.9283203125 398.1966796875 452.5 398.25 452.1109375 398.312109375 451.85 398.65 450.3123046875 400.6375 448.7 402.6 448.46015625 402.9453125 448.5 403.35 448.5484375 403.7630859375 448.85 404 449.19453125 404.2900390625 449.6 404.25 450.0126953125 404.2005859375 450.25 403.85 451.8875 401.875 453.45 399.85
M 74.15 426.25
Q 73.8607421875 425.953515625 73.45 425.95 73.0392578125 425.953515625 72.75 426.25 72.453515625 426.5392578125 72.45 426.95 72.453515625 427.3607421875 72.75 427.65 73.15 428.05 73.55 428.45 75.2998046875 430.2125 77.1 431.95 77.4060546875 432.259765625 77.8 432.25 78.23671875 432.245703125 78.5 431.95 78.81015625 431.644921875 78.8 431.2 78.7947265625 430.8134765625 78.5 430.5 76.7 428.7873046875 74.95 427.05 74.55 426.65 74.15 426.25
M 53.75 403.75
Q 53.80234375 403.3716796875 53.55 403.05 52 401.05 50.5 399.05 50.2541015625 398.7140625 49.85 398.65 49.43671875 398.59609375 49.1 398.85 48.7634765625 399.0953125 48.7 399.5 48.646484375 399.9126953125 48.9 400.25 50.3998046875 402.2625 51.95 404.25 52.2109375 404.6001953125 52.6 404.65 53.0283203125 404.703125 53.35 404.45 53.687890625 404.18984375 53.75 403.75
M 64.4 417.45
Q 64.1185546875 417.746875 64.1 418.15 64.0890625 418.565625 64.35 418.85 66.075 420.725 67.8 422.55 68.11171875 422.881640625 68.5 422.9 68.93046875 422.9109375 69.2 422.6 69.532421875 422.338671875 69.55 421.9 69.560546875 421.5203125 69.25 421.2 67.5251953125 419.375 65.8 417.5 65.55234375 417.21875 65.15 417.2 64.7341796875 417.1884765625 64.4 417.45
M 61.4 413
Q 61.4255859375 412.614453125 61.15 412.3 59.5126953125 410.4123046875 57.9 408.45 57.660546875 408.1482421875 57.25 408.1 56.842578125 408.0603515625 56.5 408.3 56.19765625 408.5888671875 56.15 409 56.1109375 409.4068359375 56.35 409.7 57.9873046875 411.6875 59.65 413.6 59.917578125 413.9158203125 60.3 413.95 60.7365234375 413.97578125 61.05 413.7 61.366796875 413.432421875 61.4 413
M 143.2 476.3
Q 142.8572265625 476.1166015625 142.45 476.25 142.0828125 476.39453125 141.9 476.75 141.7162109375 477.1423828125 141.85 477.5 141.994921875 477.916796875 142.35 478.1 144.6748046875 479.2 146.95 480.25 147.3578125 480.4208984375 147.75 480.25 148.1318359375 480.141015625 148.3 479.75 148.471484375 479.3923828125 148.3 479 148.1908203125 478.61875 147.8 478.45 145.5248046875 477.3998046875 143.2 476.3
M 154.3 481.2
Q 153.9130859375 481.0662109375 153.5 481.2 153.140234375 481.3744140625 152.95 481.75 152.8158203125 482.13671875 152.95 482.5 153.124609375 482.909375 153.5 483.05 155.8625 484.075 158.2 485 158.6119140625 485.18359375 159 485 159.3751953125 484.8603515625 159.5 484.45 159.6841796875 484.0873046875 159.5 483.7 159.3611328125 483.325390625 158.95 483.15 156.6375 482.225 154.3 481.2
M 136.75 474.95
Q 137.1517578125 474.8205078125 137.35 474.45 137.53359375 474.0869140625 137.4 473.7 137.2701171875 473.298828125 136.9 473.1 134.6751953125 471.9619140625 132.5 470.7 132.1306640625 470.5177734375 131.7 470.6 131.3287109375 470.7375 131.1 471.1 130.9171875 471.46875 131 471.85 131.137890625 472.270703125 131.5 472.45 133.724609375 473.737890625 136 474.9 136.3634765625 475.0830078125 136.75 474.95
M 120.5 465.65
Q 120.6212890625 466.077734375 120.95 466.3 123.1373046875 467.6501953125 125.35 468.95 125.7041015625 469.1693359375 126.1 469.05 126.4939453125 468.9642578125 126.7 468.6 126.919921875 468.2462890625 126.8 467.85 126.713671875 467.4564453125 126.35 467.25 124.1626953125 465.9498046875 122 464.6 121.6748046875 464.38125 121.25 464.45 120.871875 464.570703125 120.65 464.9 120.430859375 465.2744140625 120.5 465.65
M 110.35 458.95
Q 110.4423828125 459.3845703125 110.75 459.6 112.8873046875 461.075 115 462.45 115.3462890625 462.705859375 115.75 462.6 116.149609375 462.544140625 116.35 462.2 116.6060546875 461.8546875 116.5 461.45 116.4431640625 461.050390625 116.1 460.8 114.0123046875 459.4248046875 111.9 457.95 111.581640625 457.7451171875 111.15 457.8 110.7650390625 457.891796875 110.5 458.2 110.2947265625 458.5677734375 110.35 458.95
M 106.2 453.9
Q 104.1625 452.3998046875 102.15 450.85 101.8408203125 450.59765625 101.4 450.65 101.01015625 450.712109375 100.75 451.05 100.4966796875 451.371484375 100.55 451.75 100.612109375 452.1888671875 100.95 452.45 102.9498046875 454 105 455.5 105.3396484375 455.754296875 105.75 455.7 106.15625 455.6353515625 106.4 455.3 106.6544921875 454.961328125 106.6 454.55 106.534375 454.14375 106.2 453.9
M 91.95 443.05
Q 91.553125 443.083984375 91.25 443.4 91.0111328125 443.7154296875 91.05 444.1 91.08515625 444.5466796875 91.4 444.8 93.3623046875 446.475 95.35 448.05 95.6953125 448.3396484375 96.1 448.3 96.5130859375 448.2513671875 96.75 447.9 97.0400390625 447.60546875 97 447.2 96.9505859375 446.7873046875 96.6 446.5 94.6375 444.9248046875 92.7 443.25 92.3833984375 443.0111328125 91.95 443.05
M 81.9 436.05
Q 81.919140625 436.4525390625 82.2 436.7 84.125 438.4876953125 86 440.2 86.336328125 440.4740234375 86.75 440.45 87.167578125 440.43046875 87.45 440.1 87.7248046875 439.8140625 87.7 439.4 87.680078125 438.983203125 87.35 438.7 85.475 437.0125 83.55 435.25 83.265234375 434.9888671875 82.85 435 82.446875 435.0185546875 82.15 435.3 81.88828125 435.633984375 81.9 436.05
M 255 500.3
Q 254.7107421875 500.003515625 254.3 500 252.65 500 251 500 249.8 500 248.6 500 248.1892578125 500.003515625 247.9 500.3 247.603515625 500.5892578125 247.6 501 247.603515625 501.4107421875 247.9 501.7 248.1892578125 501.996484375 248.6 502 249.8 502 251 502 252.65 502 254.3 502 254.7107421875 501.996484375 255 501.7 255.296484375 501.4107421875 255.3 501 255.296484375 500.5892578125 255 500.3
M 266.55 501.6
Q 266.9681640625 501.5798828125 267.25 501.25 267.5251953125 500.9634765625 267.5 500.55 267.4802734375 500.13203125 267.15 499.85 266.86328125 499.5751953125 266.45 499.6 263.9 499.7498046875 261.35 499.85 260.94609375 499.86875 260.65 500.15 260.3884765625 500.483984375 260.4 500.9 260.418359375 501.303125 260.7 501.55 261.034765625 501.8611328125 261.45 501.85 264 501.75 266.55 501.6
M 279.25 498.85
Q 278.957421875 498.6107421875 278.55 498.65 276.0125 498.8998046875 273.45 499.1 273.067578125 499.1337890625 272.8 499.45 272.5240234375 499.7642578125 272.55 500.15 272.58359375 500.5830078125 272.9 500.85 273.213671875 501.12578125 273.6 501.1 276.1875 500.9001953125 278.75 500.65 279.161328125 500.6021484375 279.4 500.25 279.6896484375 499.9576171875 279.65 499.55 279.6025390625 499.1388671875 279.25 498.85
M 290.9 499.1
Q 291.307421875 499.022265625 291.55 498.65 291.7919921875 498.3482421875 291.7 497.95 291.66015625 497.54296875 291.3 497.3 290.9978515625 497.0583984375 290.6 497.1 288.1123046875 497.5125 285.55 497.85 285.1580078125 497.9134765625 284.9 498.25 284.6462890625 498.5734375 284.7 498.95 284.76328125 499.3916015625 285.1 499.65 285.423828125 499.903515625 285.8 499.85 288.3875 499.5 290.9 499.1
M 302.9 497
Q 303.3001953125 496.94375 303.5 496.6 303.7560546875 496.2546875 303.65 495.85 303.594140625 495.4501953125 303.25 495.2 302.9041015625 494.9943359375 302.5 495.05 300.0125 495.5748046875 297.5 496 297.116015625 496.0916015625 296.85 496.4 296.6447265625 496.7671875 296.7 497.15 296.79140625 497.584375 297.1 497.8 297.4666015625 498.055078125 297.85 497.95 300.3873046875 497.5251953125 302.9 497
M 205.2 498.1
Q 205.6333984375 498.205078125 205.95 497.95 206.30859375 497.734375 206.35 497.3 206.4552734375 496.9171875 206.2 496.55 205.983984375 496.2416015625 205.55 496.15 203.0873046875 495.7248046875 200.6 495.2 200.1958984375 495.1443359375 199.85 495.35 199.505859375 495.6001953125 199.4 496 199.3439453125 496.4046875 199.55 496.75 199.7998046875 497.09375 200.2 497.15 202.7125 497.6751953125 205.2 498.1
M 218.1 498.25
Q 217.876953125 497.949609375 217.45 497.9 214.9875 497.5998046875 212.5 497.25 212.085546875 497.196484375 211.75 497.45 211.4130859375 497.6958984375 211.35 498.1 211.2962890625 498.5138671875 211.55 498.85 211.7962890625 499.1865234375 212.2 499.25 214.7125 499.6 217.2 499.9 217.64140625 499.940234375 217.95 499.65 218.3005859375 499.4267578125 218.35 499 218.390625 498.608203125 218.1 498.25
M 229.3 501.15
Q 229.736328125 501.17578125 230.05 500.9 230.3666015625 500.6330078125 230.4 500.2 230.4259765625 499.8142578125 230.15 499.5 229.882421875 499.1837890625 229.45 499.15 226.9375 498.9498046875 224.45 498.7 224.0419921875 498.6607421875 223.7 498.9 223.39765625 499.1888671875 223.35 499.6 223.310546875 500.007421875 223.55 500.3 223.8392578125 500.651953125 224.25 500.7 226.7623046875 500.95 229.3 501.15
M 242.55 500.9
Q 242.5615234375 500.483984375 242.25 500.15 242.00390625 499.86875 241.6 499.85 239.05 499.7498046875 236.5 499.6 236.08671875 499.5751953125 235.75 499.85 235.4697265625 500.13203125 235.45 500.55 235.425 500.9634765625 235.7 501.25 235.9818359375 501.5798828125 236.4 501.6 238.95 501.75 241.5 501.85 241.915234375 501.8611328125 242.2 501.55 242.5314453125 501.303125 242.55 500.9
M 193.65 493.8
Q 191.1876953125 493.2748046875 188.75 492.65 188.3404296875 492.5806640625 187.95 492.8 187.6224609375 493.0072265625 187.5 493.4 187.4302734375 493.8103515625 187.65 494.15 187.8564453125 494.5271484375 188.25 494.6 190.7123046875 495.225 193.2 495.75 193.639453125 495.86875 194 495.65 194.342578125 495.4271484375 194.4 495 194.5189453125 494.610546875 194.3 494.25 194.076953125 493.9076171875 193.65 493.8
M 175.85 490.1
Q 175.7291015625 490.48828125 175.9 490.85 176.11171875 491.2212890625 176.5 491.35 178.9123046875 492.1001953125 181.35 492.8 181.7677734375 492.9203125 182.1 492.7 182.48671875 492.5224609375 182.6 492.1 182.7205078125 491.7326171875 182.5 491.35 182.3220703125 491.0134765625 181.9 490.9 179.4875 490.1998046875 177.1 489.45 176.7119140625 489.3294921875 176.35 489.5 175.978515625 489.7119140625 175.85 490.1
M 170.95 487.8
Q 170.76484375 487.4302734375 170.35 487.3 167.975 486.4998046875 165.55 485.65 165.19375 485.5166015625 164.8 485.7 164.444921875 485.8822265625 164.3 486.25 164.166015625 486.65703125 164.35 487 164.5314453125 487.404296875 164.9 487.55 167.325 488.4 169.7 489.2 170.123046875 489.3333984375 170.5 489.15 170.8697265625 488.965234375 171 488.55 171.13359375 488.1771484375 170.95 487.8
M 320.85 492.35
Q 321.2322265625 492.5703125 321.6 492.45 324.0875 491.75 326.55 491 326.93828125 490.883984375 327.1 490.5 327.3208984375 490.1515625 327.2 489.75 327.0845703125 489.3625 326.7 489.15 326.35078125 488.9796875 325.95 489.1 323.5125 489.8498046875 321.05 490.55 320.6779296875 490.6634765625 320.45 491 320.2794921875 491.3826171875 320.4 491.75 320.51328125 492.1724609375 320.85 492.35
M 308.7 494
Q 308.4810546875 494.360546875 308.55 494.75 308.657421875 495.1771484375 309 495.4 309.3603515625 495.61875 309.75 495.5 312.2875 494.9751953125 314.75 494.3 315.1578125 494.2130859375 315.35 493.85 315.5826171875 493.4951171875 315.45 493.1 315.3634765625 492.6923828125 315 492.45 314.644921875 492.2677734375 314.25 492.35 311.8123046875 493.024609375 309.3 493.55 308.923046875 493.6576171875 308.7 494
M 43.35 389.2
Q 43.1345703125 388.8923828125 42.7 388.8 42.3177734375 388.7447265625 41.95 388.95 41.641796875 389.2150390625 41.55 389.6 41.4951171875 390.031640625 41.7 390.35 43.1873046875 392.4876953125 44.7 394.55 44.94375 394.884375 45.35 394.95 45.761328125 395.0044921875 46.1 394.75 46.4353515625 394.50625 46.5 394.1 46.554296875 393.6896484375 46.3 393.35 44.8125 391.3125 43.35 389.2
M 35 379.4
Q 34.93046875 379.809375 35.15 380.15 36.4498046875 382.325 37.8 384.45 38.022265625 384.828515625 38.4 384.9 38.8255859375 385.019140625 39.15 384.8 39.529296875 384.5783203125 39.6 384.15 39.71875 383.7751953125 39.5 383.4 38.15 381.275 36.85 379.1 36.642578125 378.7732421875 36.25 378.65 35.8396484375 378.5802734375 35.45 378.8 35.1224609375 379.00703125 35 379.4
M 29.45 368.3
Q 29.1140625 368.5265625 29 368.9 28.8798828125 369.315234375 29.05 369.65 30.2748046875 371.8873046875 31.5 374.1 31.7291015625 374.462109375 32.1 374.55 32.53125 374.6828125 32.9 374.45 33.2626953125 374.2712890625 33.35 373.85 33.4822265625 373.4693359375 33.25 373.1 32.025 370.9125 30.8 368.7 30.6228515625 368.3646484375 30.2 368.25 29.8341796875 368.129296875 29.45 368.3
M 25.3 357.95
Q 25.116796875 357.594921875 24.7 357.45 24.3423828125 357.3162109375 23.95 357.5 23.59453125 357.6828125 23.45 358.05 23.3166015625 358.4572265625 23.5 358.8 24.5998046875 361.1375 25.75 363.4 25.948828125 363.7701171875 26.35 363.9 26.7369140625 364.03359375 27.1 363.85 27.4705078125 363.6517578125 27.6 363.25 27.7330078125 362.8634765625 27.55 362.5 26.4001953125 360.2623046875 25.3 357.95
M 19.85 346.35
Q 19.4626953125 346.2158203125 19.05 346.35 18.68984375 346.5248046875 18.5 346.9 18.36640625 347.2880859375 18.5 347.65 19.4748046875 350.0376953125 20.45 352.35 20.640625 352.7248046875 21 352.85 21.4140625 353.0341796875 21.8 352.85 22.176171875 352.7091796875 22.3 352.3 22.4841796875 351.9373046875 22.3 351.55 21.3251953125 349.2623046875 20.35 346.9 20.224609375 346.5388671875 19.85 346.35
M 16.05 335.65
Q 15.904296875 335.2814453125 15.5 335.1 15.15703125 334.916015625 14.75 335.05 14.3822265625 335.194921875 14.2 335.55 14.0166015625 335.94375 14.15 336.3 15.0123046875 338.7376953125 15.9 341.1 16.0724609375 341.482421875 16.45 341.65 16.821484375 341.8216796875 17.2 341.65 17.5828125 341.5275390625 17.75 341.15 17.921484375 340.77890625 17.75 340.4 16.8875 338.0623046875 16.05 335.65
M 11 323.5
Q 10.6275390625 323.61328125 10.4 323.95 10.2296875 324.3322265625 10.35 324.7 11.049609375 327.2001953125 11.85 329.6 11.9802734375 330.01484375 12.35 330.2 12.7271484375 330.38359375 13.1 330.25 13.515234375 330.1197265625 13.7 329.75 13.8833984375 329.373046875 13.75 328.95 12.950390625 326.5998046875 12.25 324.15 12.1365234375 323.7779296875 11.75 323.55 11.4173828125 323.3794921875 11 323.5
M 7.15 312.85
Q 7.7748046875 315.3876953125 8.4 317.85 8.5369140625 318.2578125 8.9 318.45 9.2548828125 318.6826171875 9.65 318.55 10.0576171875 318.4634765625 10.25 318.1 10.4822265625 317.744921875 10.35 317.35 9.7251953125 314.9123046875 9.1 312.4 9.0283203125 312.0212890625 8.65 311.8 8.3240234375 311.58046875 7.9 311.65 7.5205078125 311.7716796875 7.3 312.1 7.0806640625 312.4751953125 7.15 312.85
M 6.45 300.55
Q 6.39375 300.1498046875 6.05 299.9 5.7046875 299.6939453125 5.3 299.75 4.9001953125 299.855859375 4.65 300.2 4.4443359375 300.5458984375 4.5 300.95 5.0248046875 303.4625 5.55 305.95 5.6576171875 306.376953125 6 306.6 6.360546875 306.8189453125 6.75 306.7 7.1771484375 306.642578125 7.4 306.3 7.61875 305.939453125 7.5 305.5 6.975 303.0375 6.45 300.55
M 2.75 288.15
Q 2.496484375 288.473828125 2.55 288.85 2.9125 291.4375 3.3 293.95 3.390234375 294.357421875 3.7 294.6 4.0517578125 294.8419921875 4.45 294.75 4.85703125 294.71015625 5.1 294.35 5.3541015625 294.0478515625 5.3 293.65 4.9 291.1623046875 4.55 288.6 4.4865234375 288.2080078125 4.15 287.95 3.8265625 287.6962890625 3.4 287.75 3.00859375 287.81328125 2.75 288.15
M 2 275.6
Q 1.5888671875 275.64765625 1.3 275.95 1.0607421875 276.292578125 1.1 276.7 1.3498046875 279.2625 1.65 281.8 1.69921875 282.2255859375 2 282.45 2.3578125 282.7404296875 2.75 282.7 3.1759765625 282.651171875 3.4 282.3 3.6900390625 281.9927734375 3.65 281.55 3.35 279.0375 3.1 276.5 3.0521484375 276.088671875 2.7 275.8 2.4076171875 275.560546875 2 275.6
M 1.3 263.45
Q 0.8970703125 263.468359375 0.6 263.75 0.3388671875 264.084765625 0.35 264.5 0.4498046875 267.05 0.6 269.55 0.619921875 269.9677734375 0.9 270.25 1.2365234375 270.525 1.65 270.5 2.0681640625 270.4802734375 2.35 270.15 2.6248046875 269.863671875 2.6 269.45 2.45 266.95 2.35 264.4 2.3310546875 263.99609375 2 263.7 1.716015625 263.4384765625 1.3 263.45
M 0.3 251.55
Q 0.003515625 251.8392578125 0 252.25 -0.0001953125 254.8125 0.05 257.35 0.0548828125 257.7875 0.35 258.05 0.6556640625 258.3603515625 1.05 258.35 1.4875 258.3455078125 1.75 258.05 2.0599609375 257.744140625 2.05 257.3 2 254.7875 2 252.25 1.996484375 251.8392578125 1.7 251.55 1.4107421875 251.253515625 1 251.25 0.5892578125 251.253515625 0.3 251.55
M 0.55 238.45
Q 0.26875 238.74609375 0.25 239.15 0.1498046875 241.7123046875 0.1 244.25 0.0900390625 244.694140625 0.35 245 0.6625 245.2955078125 1.05 245.3 1.4943359375 245.3103515625 1.8 245 2.0951171875 244.7375 2.1 244.3 2.15 241.7875 2.25 239.25 2.2611328125 238.834765625 1.95 238.5 1.703125 238.218359375 1.3 238.2 0.883984375 238.1884765625 0.55 238.45
M 2.05 226.1
Q 1.66484375 226.073828125 1.35 226.35 1.0341796875 226.6158203125 1 227 0.7998046875 229.5373046875 0.65 232.1 0.6251953125 232.51328125 0.9 232.8 1.18203125 233.1302734375 1.6 233.15 2.0134765625 233.1751953125 2.3 232.9 2.6298828125 232.6181640625 2.65 232.2 2.8 229.6625 3 227.15 3.02578125 226.765234375 2.75 226.45 2.4837890625 226.1337890625 2.05 226.1
M 3.5 214
Q 3.0861328125 213.9462890625 2.75 214.2 2.41328125 214.4462890625 2.35 214.85 2 217.3623046875 1.7 219.9 1.659765625 220.3427734375 1.9 220.65 2.173828125 221.001171875 2.55 221.05 2.9921875 221.0904296875 3.3 220.8 3.65078125 220.5755859375 3.7 220.15 4 217.6375 4.35 215.15 4.403515625 214.735546875 4.15 214.4 3.9041015625 214.0630859375 3.5 214
M 6.15 203.2
Q 6.255078125 202.8166015625 6 202.45 5.784375 202.14140625 5.35 202.05 4.9671875 201.9947265625 4.6 202.2 4.2916015625 202.466015625 4.2 202.85 3.7748046875 205.3875 3.35 207.9 3.3083984375 208.2978515625 3.55 208.6 3.79296875 208.96015625 4.2 209 4.5982421875 209.0919921875 4.9 208.85 5.272265625 208.607421875 5.35 208.2 5.7375 205.7125 6.15 203.2
M 7.2 190.3
Q 6.8728515625 190.5064453125 6.75 190.9 6.1748046875 193.3623046875 5.6 195.85 5.53125 196.289453125 5.75 196.65 5.9728515625 196.992578125 6.35 197.05 6.789453125 197.1689453125 7.15 196.95 7.4921875 196.726953125 7.55 196.3 8.125 193.8376953125 8.7 191.4 8.8193359375 190.9904296875 8.6 190.6 8.3927734375 190.2724609375 8 190.15 7.5896484375 190.0802734375 7.2 190.3
M 10.4 184.55
Q 11.0625 182.1125 11.75 179.65 11.8703125 179.2822265625 11.65 178.9 11.4724609375 178.56328125 11.05 178.45 10.6826171875 178.3294921875 10.3 178.5 9.9634765625 178.7279296875 9.85 179.1 9.1373046875 181.5875 8.45 184.05 8.3677734375 184.444921875 8.55 184.8 8.7923828125 185.1634765625 9.2 185.25 9.5951171875 185.3826171875 9.95 185.15 10.3130859375 184.9578125 10.4 184.55
M 14.85 166.9
Q 14.4927734375 166.766015625 14.1 166.95 13.7455078125 167.1314453125 13.6 167.5 12.7498046875 169.925 11.95 172.3 11.81640625 172.723046875 12 173.1 12.184765625 173.4697265625 12.55 173.6 12.9728515625 173.73359375 13.35 173.55 13.71953125 173.36484375 13.85 172.95 14.65 170.575 15.5 168.15 15.633203125 167.79375 15.45 167.4 15.267578125 167.044921875 14.85 166.9
M 19.15 155.5
Q 18.7873046875 155.3658203125 18.4 155.5 18.025390625 155.6888671875 17.85 156.05 16.9248046875 158.4373046875 16 160.85 15.87890625 161.2287109375 16.05 161.6 16.2177734375 161.978125 16.6 162.1 16.979296875 162.271484375 17.35 162.1 17.7275390625 161.9328125 17.85 161.55 18.775 159.1625 19.7 156.8 19.88359375 156.4380859375 19.7 156.05 19.5603515625 155.6748046875 19.15 155.5
M 23.4 144.3
Q 23.033203125 144.444921875 22.85 144.8 21.7373046875 147.1373046875 20.65 149.5 20.51640625 149.871875 20.65 150.25 20.8224609375 150.6328125 21.2 150.8 21.571484375 150.9716796875 21.95 150.8 22.3447265625 150.676953125 22.5 150.3 23.5626953125 147.9626953125 24.65 145.65 24.833203125 145.3072265625 24.7 144.9 24.5552734375 144.5328125 24.15 144.35 23.8076171875 144.1662109375 23.4 144.3
M 30.05 134.8
Q 30.2703125 134.4517578125 30.15 134.05 30.034765625 133.6630859375 29.65 133.45 29.3021484375 133.2791015625 28.9 133.4 28.5134765625 133.5154296875 28.3 133.85 27.1123046875 136.1373046875 25.95 138.45 25.766796875 138.8275390625 25.9 139.2 26.0302734375 139.615234375 26.4 139.8 26.7771484375 139.98359375 27.15 139.85 27.5646484375 139.7193359375 27.75 139.35 28.8875 137.0625 30.05 134.8
M 35.65 122.85
Q 35.2962890625 122.630078125 34.9 122.7 34.5064453125 122.8361328125 34.3 123.2 32.9875 125.4 31.7 127.6 31.5177734375 127.9693359375 31.6 128.35 31.7375 128.7712890625 32.1 128.95 32.46875 129.1828125 32.85 129.05 33.270703125 128.962109375 33.45 128.6 34.7125 126.4 36 124.2 36.2193359375 123.8458984375 36.1 123.45 36.0142578125 123.055859375 35.65 122.85
M 41.5 112.45
Q 41.1154296875 112.5423828125 40.85 112.85 39.4119140625 114.9998046875 38.05 117.15 37.83125 117.5251953125 37.9 117.9 38.020703125 118.3283203125 38.35 118.55 38.7244140625 118.769140625 39.1 118.65 39.527734375 118.578515625 39.75 118.2 41.087890625 116.1001953125 42.5 114 42.7548828125 113.681640625 42.65 113.25 42.608203125 112.8650390625 42.25 112.6 41.9322265625 112.3947265625 41.5 112.45
M 48.7 102.5
Q 48.308984375 102.563671875 48.05 102.9 46.4998046875 104.95 45 107 44.758203125 107.3396484375 44.8 107.75 44.876953125 108.15625 45.2 108.4 45.538671875 108.6544921875 45.95 108.6 46.3560546875 108.534375 46.6 108.2 48.1 106.15 49.65 104.1 49.903125 103.7759765625 49.85 103.35 49.78671875 102.9583984375 49.45 102.7 49.1265625 102.4462890625 48.7 102.5
M 73.5 76.45
Q 73.796484375 76.1607421875 73.8 75.75 73.796484375 75.3392578125 73.5 75.05 73.2107421875 74.753515625 72.8 74.75 72.3892578125 74.753515625 72.1 75.05 70.2373046875 76.8998046875 68.4 78.8 68.139453125 79.1080078125 68.15 79.5 68.167578125 79.938671875 68.45 80.2 68.76953125 80.5109375 69.15 80.5 69.5884765625 80.4939453125 69.85 80.2 71.6625 78.3 73.5 76.45
M 53.25 98.85
Q 53.6626953125 98.8005859375 53.9 98.45 55.525 96.475 57.15 94.45 57.43828125 94.1580078125 57.4 93.75 57.352734375 93.339453125 57 93.05 56.7080078125 92.8107421875 56.3 92.85 55.890234375 92.897265625 55.6 93.2 53.9748046875 95.225 52.35 97.2 52.11015625 97.5453125 52.15 97.95 52.1984375 98.3630859375 52.5 98.6 52.84453125 98.8900390625 53.25 98.85
M 59.95 88.55
Q 59.983984375 88.9966796875 60.3 89.25 60.6154296875 89.5388671875 61 89.5 61.4466796875 89.4646484375 61.7 89.15 63.350390625 87.2126953125 65.05 85.3 65.3611328125 85.015234375 65.35 84.6 65.3314453125 84.196875 65 83.9 64.716015625 83.63828125 64.3 83.65 63.8974609375 83.669140625 63.6 83.95 61.8494140625 85.8873046875 60.15 87.85 59.9111328125 88.1666015625 59.95 88.55
M 81.8 66
Q 81.4203125 65.989453125 81.1 66.25 79.275 68.025 77.4 69.75 77.118359375 70.06171875 77.1 70.45 77.0890625 70.88046875 77.35 71.15 77.661328125 71.482421875 78.05 71.5 78.4796875 71.510546875 78.75 71.2 80.625 69.475 82.45 67.7 82.781640625 67.43828125 82.8 67 82.8109375 66.61953125 82.5 66.3 82.238671875 66.0177734375 81.8 66
M 91.85 58.95
Q 91.87578125 58.5634765625 91.6 58.25 91.332421875 57.933203125 90.9 57.9 90.514453125 57.8744140625 90.2 58.15 88.2875 59.8 86.35 61.5 86.0697265625 61.783203125 86.05 62.2 86.025 62.6140625 86.3 62.9 86.582421875 63.23046875 87 63.25 87.413671875 63.2740234375 87.7 63 89.6125 61.3001953125 91.5 59.65 91.8158203125 59.382421875 91.85 58.95
M 101.1 50.65
Q 100.83984375 50.312109375 100.4 50.25 100.0216796875 50.19765625 99.7 50.45 97.6875 52.0123046875 95.65 53.6 95.34921875 53.8873046875 95.3 54.3 95.2599609375 54.70546875 95.5 55 95.787109375 55.3513671875 96.2 55.4 96.6046875 55.4396484375 96.9 55.15 98.925 53.5875 100.9 52.05 101.2501953125 51.7888671875 101.3 51.35 101.353125 50.971484375 101.1 50.65
M 110.25 43
Q 109.868359375 42.9451171875 109.5 43.15 107.4123046875 44.6373046875 105.35 46.15 105.0279296875 46.39375 104.95 46.8 104.9080078125 47.211328125 105.15 47.55 105.3935546875 47.8853515625 105.8 47.95 106.2103515625 48.004296875 106.55 47.75 108.5875 46.2625 110.65 44.8 111.0076171875 44.5845703125 111.05 44.15 111.1552734375 43.7677734375 110.9 43.4 110.6849609375 43.091796875 110.25 43
M 120.45 36.25
Q 120.0751953125 36.18125 119.7 36.4 117.5623046875 37.7498046875 115.4 39.15 115.05703125 39.387109375 114.95 39.8 114.89375 40.2033203125 115.1 40.55 115.3490234375 40.8931640625 115.75 40.95 116.1529296875 41.0681640625 116.5 40.85 118.6375 39.45 120.75 38.1 121.128515625 37.877734375 121.2 37.45 121.319140625 37.0744140625 121.1 36.7 120.8783203125 36.370703125 120.45 36.25
M 130.95 30
Q 130.5693359375 29.9177734375 130.2 30.1 128 31.3875 125.8 32.7 125.4361328125 32.9064453125 125.3 33.3 125.230078125 33.6962890625 125.45 34.05 125.655859375 34.4142578125 126.05 34.5 126.4458984375 34.6193359375 126.8 34.4 129 33.1125 131.2 31.85 131.562109375 31.670703125 131.65 31.25 131.7828125 30.86875 131.55 30.5 131.3712890625 30.1375 130.95 30
M 136.65 28.55
Q 137.050390625 28.6703125 137.4 28.45 139.6998046875 27.287890625 141.95 26.2 142.3548828125 26.016796875 142.5 25.6 142.6337890625 25.2423828125 142.45 24.85 142.2673828125 24.49453125 141.85 24.35 141.4927734375 24.2166015625 141.1 24.4 138.8125 25.512109375 136.5 26.7 136.1287109375 26.9125 136 27.3 135.8791015625 27.6880859375 136.05 28.05 136.2619140625 28.421484375 136.65 28.55
M 147.6 21.35
Q 147.223046875 21.5552734375 147.05 21.95 146.9283203125 22.328515625 147.1 22.7 147.2671875 23.0775390625 147.65 23.2 148.028125 23.38359375 148.4 23.2 150.75 22.1751953125 153.1 21.15 153.4751953125 21.009375 153.6 20.6 153.7841796875 20.23671875 153.6 19.85 153.4599609375 19.4744140625 153.05 19.3 152.6869140625 19.1662109375 152.3 19.3 149.95 20.3248046875 147.6 21.35
M 164.5 14.8
Q 164.1287109375 14.62890625 163.75 14.75 161.3375 15.6748046875 158.9 16.6 158.5404296875 16.77421875 158.35 17.15 158.2158203125 17.5359375 158.35 17.9 158.523828125 18.3091796875 158.9 18.45 159.286328125 18.63359375 159.65 18.45 162.0625 17.525 164.45 16.6 164.8328125 16.4775390625 165 16.1 165.171484375 15.729296875 165 15.35 164.878125 14.9677734375 164.5 14.8
M 176.6 12.3
Q 176.8208984375 11.9515625 176.7 11.55 176.5845703125 11.1625 176.2 10.95 175.85078125 10.7796875 175.45 10.9 173 11.6498046875 170.55 12.45 170.1474609375 12.580078125 169.95 12.95 169.76640625 13.313671875 169.9 13.7 170.0296875 14.1021484375 170.4 14.3 170.7640625 14.483203125 171.15 14.35 173.6 13.55 176.05 12.8 176.43828125 12.683984375 176.6 12.3
M 188.55 8.3
Q 188.478515625 7.9205078125 188.1 7.7 187.7748046875 7.4806640625 187.35 7.55 184.85 8.174609375 182.3 8.85 181.928125 8.9880859375 181.7 9.35 181.5296875 9.71953125 181.65 10.1 181.750390625 10.521875 182.1 10.7 182.4693359375 10.9326171875 182.85 10.8 185.35 10.1251953125 187.8 9.5 188.2287109375 9.4283203125 188.45 9.05 188.66953125 8.7240234375 188.55 8.3
M 200.5 5.7
Q 200.444140625 5.3001953125 200.1 5.05 199.7541015625 4.8443359375 199.35 4.9 196.8375 5.4248046875 194.3 5.95 193.923046875 6.0576171875 193.7 6.4 193.4810546875 6.760546875 193.55 7.15 193.657421875 7.5771484375 194 7.8 194.3603515625 8.01875 194.75 7.9 197.2625 7.375 199.75 6.85 200.1501953125 6.79375 200.35 6.45 200.6060546875 6.1046875 200.5 5.7
M 212.25 3.05
Q 211.926171875 2.796484375 211.5 2.85 208.9623046875 3.2125 206.45 3.6 206.042578125 3.690234375 205.8 4 205.5580078125 4.3517578125 205.6 4.75 205.68984375 5.15703125 206 5.4 206.3521484375 5.6541015625 206.75 5.6 209.2375 5.2 211.75 4.85 212.1919921875 4.7865234375 212.45 4.45 212.70390625 4.1265625 212.65 3.7 212.5869140625 3.30859375 212.25 3.05
M 224.85 2.25
Q 224.802734375 1.8392578125 224.45 1.55 224.1587890625 1.3109375 223.75 1.35 221.1373046875 1.5998046875 218.55 1.9 218.1744140625 1.94921875 217.9 2.25 217.6595703125 2.6078125 217.7 3 217.7490234375 3.4259765625 218.05 3.65 218.4072265625 3.9400390625 218.8 3.9 221.3626953125 3.6 223.95 3.35 224.3599609375 3.30234375 224.6 2.95 224.8892578125 2.658203125 224.85 2.25
M 236.2 2.4
Q 236.6185546875 2.3798828125 236.9 2.05 237.175 1.7634765625 237.15 1.35 237.1302734375 0.9318359375 236.8 0.65 236.512890625 0.3751953125 236.1 0.4 233.4873046875 0.5498046875 230.9 0.75 230.517578125 0.7837890625 230.25 1.1 229.9740234375 1.4142578125 230 1.8 230.03359375 2.2330078125 230.35 2.5 230.663671875 2.77578125 231.05 2.75 233.6125 2.5501953125 236.2 2.4
M 249.4 0.95
Q 249.3955078125 0.5625 249.1 0.25 248.794140625 -0.0099609375 248.35 0 245.825 0.05 243.25 0.1 242.8623046875 0.1048828125 242.55 0.4 242.2896484375 0.7056640625 242.3 1.1 242.3044921875 1.5375 242.6 1.8 242.9056640625 2.1099609375 243.3 2.1 245.875 2.05 248.4 2 248.8375 1.9951171875 249.1 1.7 249.4103515625 1.3943359375 249.4 0.95
M 260.6 0.45
Q 260.35390625 0.16875 259.95 0.15 257.3875 0.0498046875 254.8 0 254.4056640625 -0.0099609375 254.1 0.25 253.8044921875 0.5625 253.8 0.95 253.7896484375 1.3943359375 254.05 1.7 254.3623046875 1.9951171875 254.75 2 257.3123046875 2.05 259.85 2.15 260.265234375 2.1611328125 260.55 1.85 260.8814453125 1.603125 260.9 1.2 260.9115234375 0.783984375 260.6 0.45
M 273.05 1.85
Q 273.0759765625 1.4642578125 272.8 1.15 272.532421875 0.8337890625 272.1 0.8 269.5625 0.5998046875 267 0.45 266.58671875 0.4251953125 266.25 0.7 265.9697265625 0.98203125 265.95 1.4 265.925 1.8134765625 266.2 2.1 266.4818359375 2.4298828125 266.9 2.45 269.4373046875 2.6 271.95 2.8 272.386328125 2.82578125 272.7 2.55 273.0166015625 2.2830078125 273.05 1.85
M 284.95 2.3
Q 284.7255859375 1.99921875 284.3 1.95 281.7625 1.6498046875 279.2 1.4 278.792578125 1.3607421875 278.45 1.6 278.14765625 1.8888671875 278.1 2.3 278.060546875 2.7076171875 278.3 3 278.588671875 3.3521484375 279 3.4 281.5375 3.65 284.05 3.95 284.4927734375 3.9900390625 284.8 3.7 285.151171875 3.4759765625 285.2 3.05 285.2404296875 2.6578125 284.95 2.3
M 296.1 5.75
Q 296.5333984375 5.855078125 296.85 5.6 297.20859375 5.384375 297.25 4.95 297.3552734375 4.5671875 297.1 4.2 296.883984375 3.8916015625 296.45 3.8 293.9626953125 3.3623046875 291.4 2.95 290.9884765625 2.895703125 290.65 3.15 290.3271484375 3.3935546875 290.25 3.8 290.2080078125 4.211328125 290.45 4.55 290.69375 4.8849609375 291.1 4.95 293.6375 5.3375 296.1 5.75
M 309.2 7.35
Q 309.3189453125 6.960546875 309.1 6.6 308.876953125 6.2576171875 308.45 6.15 305.9625 5.6248046875 303.45 5.1 303.0458984375 5.0443359375 302.7 5.25 302.355859375 5.5001953125 302.25 5.9 302.1939453125 6.3046875 302.4 6.65 302.6498046875 6.99375 303.05 7.05 305.5375 7.575 308 8.1 308.439453125 8.21875 308.8 8 309.142578125 7.7771484375 309.2 7.35
M 314.35 9.25
Q 314.5548828125 9.6134765625 314.95 9.7 317.4373046875 10.3625 319.85 11.05 320.2677734375 11.1703125 320.6 10.95 320.98671875 10.7724609375 321.1 10.35 321.2205078125 9.9826171875 321 9.6 320.8220703125 9.2634765625 320.4 9.15 317.9625 8.4375 315.45 7.75 315.0544921875 7.68046875 314.7 7.9 314.3361328125 8.10546875 314.2 8.5 314.130078125 8.8958984375 314.35 9.25
M 492.05 323.45
Q 492.1703125 323.0822265625 491.95 322.7 491.7724609375 322.36328125 491.35 322.25 490.9826171875 322.1294921875 490.6 322.3 490.2634765625 322.5279296875 490.15 322.9 489.4498046875 325.3625 488.7 327.8 488.5796875 328.20078125 488.75 328.55 488.9625 328.9345703125 489.35 329.05 489.7515625 329.1708984375 490.1 328.95 490.483984375 328.78828125 490.6 328.4 491.35 325.9375 492.05 323.45
M 495.2 311.6
Q 495.3193359375 311.2251953125 495.1 310.85 494.879296875 310.5216796875 494.45 310.4 494.0759765625 310.33046875 493.7 310.55 493.3716796875 310.7712890625 493.25 311.15 492.6748046875 313.6623046875 492 316.1 491.9177734375 316.494921875 492.1 316.85 492.3423828125 317.2134765625 492.75 317.3 493.1451171875 317.4326171875 493.5 317.2 493.8630859375 317.0078125 493.95 316.6 494.6251953125 314.1376953125 495.2 311.6
M 496.3 305.25
Q 496.64375 305.0501953125 496.7 304.65 497.2251953125 302.1373046875 497.65 299.6 497.755078125 299.2166015625 497.5 298.85 497.284375 298.54140625 496.85 298.45 496.4671875 298.3947265625 496.1 298.6 495.7916015625 298.866015625 495.7 299.25 495.2748046875 301.7625 494.75 304.25 494.6943359375 304.6541015625 494.9 305 495.1501953125 305.344140625 495.55 305.4 495.9546875 305.5060546875 496.3 305.25
M 499.65 287.5
Q 499.703515625 287.123828125 499.45 286.8 499.1916015625 286.46328125 498.75 286.4 498.3734375 286.3462890625 498.05 286.6 497.7134765625 286.8580078125 497.65 287.25 497.3125 289.8123046875 496.9 292.3 496.8583984375 292.6978515625 497.1 293 497.34296875 293.36015625 497.75 293.4 498.1482421875 293.4919921875 498.45 293.25 498.822265625 293.007421875 498.9 292.6 499.3 290.0875 499.65 287.5
M 501 275.35
Q 501.02578125 274.963671875 500.75 274.65 500.4830078125 274.33359375 500.05 274.3 499.6642578125 274.2740234375 499.35 274.55 499.0337890625 274.817578125 499 275.2 498.7998046875 277.7623046875 498.55 280.25 498.5107421875 280.6578125 498.75 280.95 499.0388671875 281.30234375 499.45 281.35 499.857421875 281.3896484375 500.15 281.1 500.501953125 280.8607421875 500.55 280.45 500.8 277.9375 501 275.35
M 501.75 263.2
Q 501.7611328125 262.784765625 501.45 262.45 501.203125 262.168359375 500.8 262.15 500.383984375 262.1384765625 500.05 262.4 499.76875 262.69609375 499.75 263.1 499.6498046875 265.65 499.5 268.2 499.4751953125 268.61328125 499.75 268.9 500.03203125 269.2302734375 500.45 269.25 500.8634765625 269.2751953125 501.15 269 501.4798828125 268.7181640625 501.5 268.3 501.65 265.75 501.75 263.2
M 502 251
Q 501.996484375 250.5892578125 501.7 250.3 501.4107421875 250.003515625 501 250 500.5892578125 250.003515625 500.3 250.3 500.003515625 250.5892578125 500 251 499.9998046875 253.5375 499.95 256.05 499.9400390625 256.494140625 500.2 256.8 500.5125 257.0955078125 500.9 257.1 501.3443359375 257.1103515625 501.65 256.8 501.9451171875 256.5375 501.95 256.1 502 253.5625 502 251
M 501.8 240.3
Q 501.7810546875 239.89609375 501.45 239.6 501.166015625 239.3384765625 500.75 239.35 500.3470703125 239.368359375 500.05 239.65 499.7888671875 239.984765625 499.8 240.4 499.8998046875 242.9375 499.95 245.5 499.9548828125 245.9376953125 500.25 246.2 500.5556640625 246.5103515625 500.95 246.5 501.3875 246.4955078125 501.65 246.2 501.9599609375 245.8939453125 501.95 245.45 501.9 242.8623046875 501.8 240.3
M 501.1 228
Q 501.0662109375 227.617578125 500.75 227.35 500.4357421875 227.0740234375 500 227.1 499.616796875 227.13359375 499.35 227.45 499.07421875 227.763671875 499.1 228.15 499.2998046875 230.7125 499.45 233.3 499.4701171875 233.7185546875 499.75 234 500.0865234375 234.275 500.5 234.25 500.91796875 234.2302734375 501.2 233.9 501.474609375 233.612890625 501.45 233.2 501.3001953125 230.5873046875 501.1 228
M 499.8 215.7
Q 499.7365234375 215.3080078125 499.4 215.05 499.0765625 214.7962890625 498.65 214.85 498.25859375 214.91328125 498 215.25 497.746484375 215.573828125 497.8 215.95 498.1498046875 218.525 498.45 221.1 498.49921875 221.5263671875 498.8 221.75 499.1576171875 222.0404296875 499.55 222 499.976171875 221.951171875 500.2 221.6 500.4900390625 221.2919921875 500.45 220.85 500.1501953125 218.2748046875 499.8 215.7
M 498.6 209.35
Q 498.8541015625 209.0115234375 498.8 208.6 498.3875 206.0373046875 497.9 203.5 497.8583984375 203.116015625 497.5 202.85 497.1830078125 202.6447265625 496.75 202.7 496.365625 202.79140625 496.1 203.1 495.894921875 203.4666015625 495.95 203.85 496.4123046875 206.3625 496.8 208.9 496.86484375 209.30625 497.2 209.55 497.538671875 209.7919921875 497.95 209.7 498.3564453125 209.6728515625 498.6 209.35
M 460.35 388.45
Q 460.0322265625 388.2447265625 459.6 388.3 459.2154296875 388.3923828125 458.95 388.7 457.5248046875 390.825 456 392.9 455.7958984375 393.265234375 455.85 393.65 455.9404296875 394.0703125 456.25 394.3 456.6150390625 394.5423828125 457 394.45 457.43203125 394.409375 457.65 394.05 459.175 391.9748046875 460.6 389.85 460.8548828125 389.531640625 460.75 389.1 460.708203125 388.7150390625 460.35 388.45
M 465.6 378.45
Q 464.2498046875 380.6623046875 462.85 382.8 462.6318359375 383.1470703125 462.7 383.55 462.806640625 383.9509765625 463.15 384.15 463.4966796875 384.40625 463.9 384.3 464.312890625 384.2427734375 464.55 383.9 465.95 381.7376953125 467.3 379.5 467.51875 379.173828125 467.4 378.75 467.3283203125 378.370703125 466.95 378.15 466.6240234375 377.93046875 466.2 378 465.8212890625 378.121875 465.6 378.45
M 473.35 368.8
Q 473.5703125 368.4517578125 473.45 368.05 473.334765625 367.6630859375 472.95 367.45 472.6021484375 367.2791015625 472.2 367.4 471.8134765625 367.5154296875 471.6 367.85 470.425 370.125 469.15 372.35 468.980078125 372.7328125 469.1 373.1 469.21328125 373.5224609375 469.55 373.7 469.9326171875 373.9205078125 470.3 373.8 470.7216796875 373.686328125 470.9 373.3 472.175 371.075 473.35 368.8
M 477.7 356.5
Q 477.333203125 356.644921875 477.15 357 476.0498046875 359.3123046875 474.9 361.55 474.7169921875 361.9134765625 474.85 362.3 474.979296875 362.7017578125 475.35 362.9 475.7130859375 363.08359375 476.1 362.95 476.501171875 362.8201171875 476.7 362.45 477.8501953125 360.1875 478.95 357.85 479.133203125 357.5072265625 479 357.1 478.8552734375 356.7328125 478.45 356.55 478.1076171875 356.3662109375 477.7 356.5
M 482.6 345.35
Q 482.225390625 345.5388671875 482.05 345.9 481.124609375 348.2625 480.05 350.6 479.91640625 350.971875 480.05 351.35 480.2224609375 351.7328125 480.6 351.9 480.971484375 352.0716796875 481.35 351.9 481.7447265625 351.776953125 481.9 351.4 482.975390625 349.0375 483.9 346.65 484.08359375 346.2880859375 483.9 345.9 483.7603515625 345.5248046875 483.35 345.35 482.9873046875 345.2158203125 482.6 345.35
M 484.7 340.05
Q 484.8677734375 340.428125 485.25 340.55 485.629296875 340.721484375 486 340.55 486.3775390625 340.3828125 486.5 340 487.4376953125 337.5875 488.3 335.15 488.433203125 334.79375 488.25 334.4 488.067578125 334.044921875 487.65 333.9 487.2927734375 333.766015625 486.9 333.95 486.5455078125 334.1314453125 486.4 334.5 485.5623046875 336.9125 484.65 339.3 484.52890625 339.6787109375 484.7 340.05
M 477.4 144.95
Q 477.26640625 145.343359375 477.45 145.7 478.5375 148.0625 479.55 150.4 479.7552734375 150.776953125 480.15 150.9 480.528515625 151.0716796875 480.9 150.9 481.2775390625 150.7328125 481.4 150.35 481.58359375 149.971875 481.4 149.6 480.3625 147.2375 479.25 144.85 479.0802734375 144.49609375 478.7 144.35 478.30625 144.216015625 477.9 144.4 477.545703125 144.5693359375 477.4 144.95
M 471.95 134.05
Q 471.8296875 134.4517578125 472 134.8 473.2123046875 137.0625 474.35 139.3 474.548828125 139.6701171875 474.95 139.8 475.3369140625 139.93359375 475.7 139.75 476.0705078125 139.5517578125 476.2 139.15 476.3330078125 138.7634765625 476.15 138.4 474.9875 136.1373046875 473.75 133.85 473.5865234375 133.5154296875 473.2 133.4 472.7978515625 133.2791015625 472.4 133.45 472.0650390625 133.6630859375 471.95 134.05
M 464 117.1
Q 462.5875 114.9498046875 461.15 112.85 460.9494140625 112.5068359375 460.55 112.4 460.1453125 112.3439453125 459.8 112.55 459.455859375 112.8001953125 459.35 113.2 459.294140625 113.603515625 459.5 113.95 460.9123046875 116.05 462.3 118.2 462.537109375 118.5427734375 462.95 118.6 463.3533203125 118.70625 463.7 118.45 464.0431640625 118.2509765625 464.1 117.85 464.2181640625 117.4470703125 464 117.1
M 457.25 107.7
Q 457.304296875 107.2896484375 457.05 106.95 455.5501953125 104.9 454 102.85 453.741015625 102.513671875 453.3 102.45 452.9234375 102.3962890625 452.6 102.65 452.2630859375 102.9083984375 452.2 103.3 452.146875 103.7259765625 452.4 104.05 453.95 106.1 455.45 108.15 455.69375 108.484375 456.1 108.55 456.511328125 108.6044921875 456.85 108.35 457.1853515625 108.10625 457.25 107.7
M 466.45 122.85
Q 466.0857421875 123.055859375 465.95 123.45 465.8806640625 123.8458984375 466.1 124.2 467.3875 126.4 468.6 128.6 468.8291015625 128.962109375 469.2 129.05 469.63125 129.1828125 470 128.95 470.3626953125 128.7712890625 470.45 128.35 470.5822265625 127.9693359375 470.35 127.6 469.1125 125.4 467.8 123.2 467.593359375 122.8361328125 467.2 122.7 466.803515625 122.630078125 466.45 122.85
M 327.25 11.15
Q 326.84921875 11.0296875 326.45 11.2 326.115625 11.4125 326 11.8 325.8791015625 12.2015625 326.05 12.55 326.26171875 12.933984375 326.65 13.05 329.0873046875 13.8 331.45 14.6 331.873046875 14.7333984375 332.25 14.55 332.6197265625 14.365234375 332.75 13.95 332.88359375 13.5771484375 332.7 13.2 332.51484375 12.8302734375 332.1 12.7 329.7126953125 11.8998046875 327.25 11.15
M 344.25 18.25
Q 344.4341796875 17.8859375 344.25 17.5 344.1095703125 17.12421875 343.7 16.95 341.3125 16.0248046875 338.9 15.1 338.52109375 14.97890625 338.15 15.15 337.771875 15.3177734375 337.6 15.7 337.478515625 16.079296875 337.65 16.45 337.8171875 16.8275390625 338.2 16.95 340.5875 17.875 342.95 18.8 343.363671875 18.98359375 343.75 18.8 344.126171875 18.6591796875 344.25 18.25
M 349.6 21.5
Q 351.9375 22.512890625 354.25 23.6 354.656640625 23.78359375 355.05 23.65 355.430859375 23.5044921875 355.6 23.1 355.783984375 22.7439453125 355.65 22.35 355.50390625 21.9697265625 355.1 21.8 352.7625 20.687109375 350.4 19.65 350.0130859375 19.5162109375 349.6 19.65 349.240234375 19.8244140625 349.05 20.2 348.9158203125 20.58671875 349.05 20.95 349.224609375 21.359375 349.6 21.5
M 391.7 44.7
Q 391.790625 45.13203125 392.1 45.35 394.2123046875 46.8625 396.25 48.35 396.5896484375 48.604296875 397 48.55 397.40625 48.4853515625 397.65 48.15 397.9044921875 47.811328125 397.85 47.4 397.784375 46.99375 397.45 46.75 395.3875 45.2375 393.25 43.7 392.934765625 43.4958984375 392.5 43.55 392.1298828125 43.6404296875 391.9 43.95 391.6576171875 44.3150390625 391.7 44.7
M 366.7 27.85
Q 366.5837890625 27.4625 366.2 27.25 363.9125 26.0625 361.6 24.9 361.2224609375 24.716796875 360.8 24.85 360.434765625 24.9802734375 360.25 25.35 360.06640625 25.7271484375 360.2 26.1 360.3306640625 26.5146484375 360.7 26.7 363 27.8375 365.3 29 365.662109375 29.2203125 366.05 29.1 366.4380859375 28.971484375 366.6 28.6 366.8208984375 28.2380859375 366.7 27.85
M 383.05 36.95
Q 382.7248046875 36.73125 382.3 36.8 381.921875 36.920703125 381.7 37.25 381.480859375 37.6244140625 381.55 38 381.6712890625 38.427734375 382 38.65 384.1623046875 40 386.3 41.4 386.6470703125 41.6181640625 387.05 41.5 387.4509765625 41.4431640625 387.65 41.1 387.90625 40.7533203125 387.8 40.35 387.7427734375 39.937109375 387.4 39.7 385.2375 38.2998046875 383.05 36.95
M 377.45 33.85
Q 377.363671875 33.4564453125 377 33.25 374.7875 31.9373046875 372.5 30.65 372.1669921875 30.480078125 371.75 30.6 371.3775390625 30.71328125 371.15 31.05 370.9794921875 31.4326171875 371.1 31.8 371.2134765625 32.2216796875 371.55 32.4 373.8123046875 33.6626953125 376 34.95 376.3541015625 35.1693359375 376.75 35.05 377.1439453125 34.9642578125 377.35 34.6 377.569921875 34.2462890625 377.45 33.85
M 444.65 93.75
Q 444.6111328125 94.1833984375 444.85 94.5 446.5248046875 96.4375 448.1 98.4 448.3873046875 98.7505859375 448.8 98.8 449.20546875 98.8400390625 449.5 98.55 449.8513671875 98.3130859375 449.9 97.9 449.9396484375 97.4953125 449.65 97.15 448.075 95.1623046875 446.4 93.2 446.1466796875 92.88515625 445.7 92.85 445.3154296875 92.8111328125 445 93.05 444.683984375 93.353125 444.65 93.75
M 433.9 79.5
Q 433.910546875 79.1203125 433.6 78.8 431.8626953125 76.9623046875 430.05 75.15 429.7607421875 74.853515625 429.35 74.85 428.9392578125 74.853515625 428.65 75.15 428.353515625 75.4392578125 428.35 75.85 428.353515625 76.2607421875 428.65 76.55 430.4373046875 78.3376953125 432.15 80.15 432.46171875 80.481640625 432.85 80.5 433.28046875 80.5109375 433.55 80.2 433.882421875 79.938671875 433.9 79.5
M 438.45 83.95
Q 438.166796875 83.6697265625 437.75 83.65 437.3359375 83.625 437 83.9 436.71953125 84.182421875 436.7 84.6 436.67578125 85.013671875 436.95 85.3 438.65 87.2125 440.3 89.1 440.567578125 89.4158203125 440.95 89.45 441.3865234375 89.47578125 441.7 89.2 442.016796875 88.932421875 442.05 88.5 442.0755859375 88.114453125 441.8 87.8 440.1501953125 85.8875 438.45 83.95
M 411.05 59.7
Q 411.083203125 60.13125 411.4 60.4 413.3373046875 62.1 415.25 63.85 415.58671875 64.1244140625 416 64.1 416.417578125 64.08046875 416.7 63.75 416.9748046875 63.4640625 416.95 63.05 416.9296875 62.6330078125 416.6 62.35 414.6625 60.6 412.7 58.9 412.38671875 58.6251953125 411.95 58.65 411.56796875 58.6828125 411.3 59 411.0244140625 59.312890625 411.05 59.7
M 407.3 55.65
Q 407.5900390625 55.35546875 407.55 54.95 407.5005859375 54.5373046875 407.15 54.25 405.175 52.675 403.15 51.05 402.8546875 50.81015625 402.45 50.85 402.037109375 50.8984375 401.75 51.2 401.5099609375 51.54453125 401.55 51.95 401.59921875 52.3626953125 401.9 52.6 403.925 54.225 405.9 55.8 406.2453125 56.0896484375 406.65 56.05 407.0630859375 56.0013671875 407.3 55.65
M 425.55 72.1
Q 425.846484375 71.8107421875 425.85 71.4 425.846484375 70.9892578125 425.55 70.7 423.6875 68.837109375 421.75 67.05 421.465234375 66.7888671875 421.05 66.8 420.646875 66.8185546875 420.35 67.1 420.08828125 67.433984375 420.1 67.85 420.119140625 68.2525390625 420.4 68.5 422.3123046875 70.262890625 424.15 72.1 424.4392578125 72.396484375 424.85 72.4 425.2607421875 72.396484375 425.55 72.1
M 495 197.5
Q 495.360546875 197.7189453125 495.75 197.6 496.1771484375 197.542578125 496.4 197.2 496.61875 196.839453125 496.5 196.4 495.975 193.9248046875 495.35 191.4 495.2783203125 191.0212890625 494.9 190.8 494.5740234375 190.58046875 494.15 190.65 493.7705078125 190.7716796875 493.55 191.1 493.3306640625 191.4751953125 493.4 191.85 494.0248046875 194.3748046875 494.55 196.85 494.6576171875 197.276953125 495 197.5
M 491.8 178.85
Q 491.4673828125 178.6794921875 491.05 178.8 490.6775390625 178.91328125 490.45 179.25 490.2796875 179.6322265625 490.4 180 491.0875 182.4625 491.7 184.95 491.8365234375 185.3451171875 492.2 185.55 492.5541015625 185.769921875 492.95 185.65 493.3447265625 185.5638671875 493.55 185.2 493.76953125 184.8453125 493.65 184.45 493.0125 181.9373046875 492.3 179.45 492.1865234375 179.0779296875 491.8 178.85
M 490.2 172.6
Q 489.4 170.1373046875 488.55 167.7 488.404296875 167.3314453125 488 167.15 487.65703125 166.966015625 487.25 167.1 486.8822265625 167.244921875 486.7 167.6 486.5166015625 167.99375 486.65 168.35 487.4998046875 170.7626953125 488.3 173.2 488.430078125 173.6025390625 488.8 173.8 489.163671875 173.98359375 489.55 173.85 489.9521484375 173.7201171875 490.15 173.35 490.333203125 172.9857421875 490.2 172.6
M 486.05 161.7
Q 486.22109375 161.3287109375 486.05 160.95 485.175 158.5373046875 484.2 156.15 484.074609375 155.7888671875 483.7 155.6 483.3126953125 155.4658203125 482.9 155.6 482.53984375 155.7748046875 482.35 156.15 482.21640625 156.5380859375 482.35 156.9 483.3248046875 159.2625 484.2 161.65 484.372265625 162.0328125 484.75 162.2 485.120703125 162.371484375 485.5 162.2 485.8822265625 162.078125 486.05 161.7 Z"/>
</g>

<g id="Layer0_0_MEMBER_0_FILL">
<path fill="#000000" stroke="none" d="
M 119.2 203.9
L 101.6 203.9 55.9 308.95 79.8 308.95 88.3 289.4 132.45 289.4 140.95 308.95 164.9 308.95 119.2 203.9
M 96.8 269.75
L 110.4 238.35 123.95 269.75 96.8 269.75 Z"/>
</g>

<g id="Layer0_0_MEMBER_1_MEMBER_0_FILL">
<path fill="#000000" stroke="none" d="
M 413.1 254.75
Q 413.1 248 409.9 243.1 406.6 238.15 401.8 235.8 397.05 233.4 391.25 231.75 385.4 230.1 380.65 228.75 375.9 227.4 372.6 225.5 369.3 223.7 369.3 220.95 369.3 213.8 381.1 213.8 392.3 213.8 400.85 223.25
L 412.55 211.95
Q 401.65 197.5 381.7 197.5 368.25 197.5 359.75 204.6 351.25 211.6 351.25 221.4 351.25 228.15 354.55 232.95 357.8 237.7 362.6 240.05 367.45 242.4 373.2 244.15 379 245.8 383.75 247.25 388.55 248.6 391.85 250.8 395.15 253 395.15 256.1 395.15 259.25 392.1 261.35 389 263.4 382.9 263.4 375.7 263.4 369.6 259.8 363.876171875 256.4220703125 360.1 250.7
L 348.1 262.65
Q 352.469921875 269.6111328125 360.6 274.35 369.9 279.7 383.35 279.7 396.05 279.7 404.55 272.6 413.1 265.45 413.1 254.75 Z"/>
</g>

<g id="Layer0_0_MEMBER_1_MEMBER_1_FILL">
<path fill="#000000" stroke="none" d="
M 328.45 223.25
L 340.15 211.95
Q 329.25 197.5 309.3 197.5 295.85 197.5 287.35 204.6 278.85 211.6 278.85 221.4 278.85 228.15 282.15 232.95 285.45 237.7 290.2 240.05 295.05 242.4 300.8 244.15 306.6 245.8 311.35 247.25 316.15 248.6 319.45 250.8 322.75 253 322.75 256.1 322.75 259.25 319.7 261.35 316.6 263.4 310.5 263.4 303.3 263.4 297.2 259.8 291.5 256.45 287.7 250.75
L 275.75 262.7
Q 280.1 269.6 288.2 274.35 297.5 279.7 310.95 279.7 323.65 279.7 332.15 272.6 340.7 265.45 340.7 254.75 340.7 248 337.5 243.1 334.25 238.15 329.4 235.8 324.65 233.4 318.85 231.75 313 230.1 308.25 228.75 303.5 227.4 300.2 225.5 296.9 223.7 296.9 220.95 296.9 213.8 308.7 213.8 319.9 213.8 328.45 223.25 Z"/>
</g>

<g id="Layer0_0_MEMBER_2_FILL">
<path fill="#000000" stroke="none" d="
M 277.7 197.5
L 198.8 197.5 198.8 302.55 222 302.55 222 262.4 274.5 262.4 274.5 242.2 222 242.2 222 219.25 277.7 219.25 277.7 197.5 Z"/>
</g>

<g id="Layer0_0_MEMBER_3_FILL">
<path fill="#000000" stroke="none" d="
M 402.3 302.45
L 402.3 279.25 274.45 279.25 274.45 302.45 402.3 302.45 Z"/>
</g>
</defs>

<g transform="matrix( 1, 0, 0, 1, 0,0) ">
<use xlink:href="#Layer1_0_FILL"/>

<use xlink:href="#Layer1_0_STROKES_1_FILL"/>
</g>

<g transform="matrix( 1.2799835205078125, 0, 0, 1.2793426513671875, -20.55,-77) ">
<use xlink:href="#Layer0_0_MEMBER_0_FILL"/>
</g>

<g transform="matrix( 1.2723846435546875, 0, 0, 1.2723236083984375, -74.6,-67.4) ">
<use xlink:href="#Layer0_0_MEMBER_1_MEMBER_0_FILL"/>
</g>

<g transform="matrix( 1.2723846435546875, 0, 0, 1.2723236083984375, -63.4,-67.4) ">
<use xlink:href="#Layer0_0_MEMBER_1_MEMBER_1_FILL"/>
</g>

<g transform="matrix( 1.2799835205078125, 0, 0, 1.2793426513671875, -63.95,-68.85) ">
<use xlink:href="#Layer0_0_MEMBER_2_FILL"/>
</g>

<g transform="matrix( 1.2799835205078125, 0, 0, 1.2793426513671875, -63.95,-68.85) ">
<use xlink:href="#Layer0_0_MEMBER_3_FILL"/>
</g>
</svg>
