<svg width="82" height="82" viewBox="0 0 82 82" fill="none" xmlns="http://www.w3.org/2000/svg">
<circle cx="40.625" cy="40.625" r="40.625" fill="#FE611E"/>
<path d="M58.3438 36.0083C56.7854 28.1021 49.8417 22.1667 41.5 22.1667C34.8771 22.1667 29.125 25.925 26.2604 31.425C19.3625 32.1583 14 38.0021 14 45.0833C14 52.6687 20.1646 58.8333 27.75 58.8333H57.5417C63.8667 58.8333 69 53.7 69 47.375C69 41.325 64.3021 36.4208 58.3438 36.0083ZM57.5417 54.25H27.75C22.6854 54.25 18.5833 50.1479 18.5833 45.0833C18.5833 40.3854 22.0896 36.4667 26.7417 35.9854L29.1938 35.7333L30.3396 33.5563C32.5167 29.3625 36.7792 26.75 41.5 26.75C47.5042 26.75 52.6833 31.0125 53.8521 36.9021L54.5396 40.3396L58.0458 40.5917C61.6208 40.8208 64.4167 43.8229 64.4167 47.375C64.4167 51.1563 61.3229 54.25 57.5417 54.25V54.25ZM44.8229 35.9167H38.1771V42.7917H32.3333L41.5 51.9583L50.6667 42.7917H44.8229V35.9167Z" fill="white"/>
</svg>
