<svg width="82" height="82" viewBox="0 0 82 82" fill="none" xmlns="http://www.w3.org/2000/svg">
<circle cx="40.625" cy="40.625" r="38.125" fill="white" stroke="#7A0B14" stroke-width="5"/>
<path d="M43.5689 16V23.594C52.0652 24.8221 58.6065 32.0902 58.6065 40.9373C58.6065 43.193 58.1554 45.3233 57.4035 47.3033L63.9198 51.1378C65.3233 48.0301 66.1253 44.5714 66.1253 40.9373C66.1253 27.9549 56.2256 17.2531 43.5689 16ZM41.0627 58.4812C31.3634 58.4812 23.5188 50.6366 23.5188 40.9373C23.5188 32.0902 30.0601 24.8221 38.5564 23.594V16C25.8747 17.2531 16 27.9298 16 40.9373C16 54.7719 27.203 66 41.0376 66C49.3333 66 56.6767 61.9649 61.2381 55.7494L54.7218 51.9148C51.5138 55.9248 46.6015 58.4812 41.0627 58.4812Z" fill="#7A0B14"/>
</svg>
