<svg width="46" height="46" viewBox="0 0 46 46" fill="none" xmlns="http://www.w3.org/2000/svg">
<circle cx="23" cy="23" r="22.5" fill="#FE611E"/>
<path d="M29.7143 20.5357V18.3929H38V20.5357H29.7143ZM19.4286 22.7143C17.8571 22.7143 16.5714 22.2143 15.5714 21.2143C14.5714 20.2143 14.0714 18.9286 14.0714 17.3571C14.0714 15.7857 14.5714 14.5 15.5714 13.5C16.5714 12.5 17.8571 12 19.4286 12C21 12 22.2857 12.5 23.2857 13.5C24.2857 14.5 24.7857 15.7857 24.7857 17.3571C24.7857 18.9286 24.2857 20.2143 23.2857 21.2143C22.2857 22.2143 21 22.7143 19.4286 22.7143ZM8 34.1786V30.8214C8 29.9881 8.20833 29.2321 8.625 28.5536C9.04167 27.875 9.64286 27.369 10.4286 27.0357C12.2143 26.25 13.8036 25.6964 15.1964 25.375C16.5893 25.0536 18 24.8929 19.4286 24.8929C20.8571 24.8929 22.2619 25.0536 23.6429 25.375C25.0238 25.6964 26.6071 26.25 28.3929 27.0357C29.1786 27.3929 29.7857 27.9048 30.2143 28.5714C30.6429 29.2381 30.8571 29.9881 30.8571 30.8214V34.1786H8ZM10.1429 32.0357H28.7143V30.8214C28.7143 30.4405 28.6071 30.0774 28.3929 29.7321C28.1786 29.3869 27.8929 29.131 27.5357 28.9643C25.8452 28.1786 24.4167 27.6607 23.25 27.4107C22.0833 27.1607 20.8095 27.0357 19.4286 27.0357C18.0476 27.0357 16.7679 27.1607 15.5893 27.4107C14.4107 27.6607 12.9762 28.1786 11.2857 28.9643C10.9286 29.131 10.6488 29.3869 10.4464 29.7321C10.244 30.0774 10.1429 30.4405 10.1429 30.8214V32.0357ZM19.4286 20.5714C20.3571 20.5714 21.125 20.2679 21.7321 19.6607C22.3393 19.0536 22.6429 18.2857 22.6429 17.3571C22.6429 16.4286 22.3393 15.6607 21.7321 15.0536C21.125 14.4464 20.3571 14.1429 19.4286 14.1429C18.5 14.1429 17.7321 14.4464 17.125 15.0536C16.5179 15.6607 16.2143 16.4286 16.2143 17.3571C16.2143 18.2857 16.5179 19.0536 17.125 19.6607C17.7321 20.2679 18.5 20.5714 19.4286 20.5714Z" fill="white"/>
</svg>
