<svg width="45" height="45" viewBox="0 0 45 45" fill="none" xmlns="http://www.w3.org/2000/svg">
<circle cx="22.5" cy="22.5" r="22.5" fill="#FEC715"/>
<path d="M26.8571 37V34.3429C29.6286 33.5429 31.8929 32.0071 33.65 29.7357C35.4071 27.4643 36.2857 24.8857 36.2857 22C36.2857 19.1143 35.4143 16.5286 33.6714 14.2429C31.9286 11.9571 29.6571 10.4286 26.8571 9.65714V7C30.4 7.8 33.2857 9.59286 35.5143 12.3786C37.7429 15.1643 38.8571 18.3714 38.8571 22C38.8571 25.6286 37.7429 28.8357 35.5143 31.6214C33.2857 34.4071 30.4 36.2 26.8571 37ZM8 27.1857V16.9H14.8571L23.4286 8.32857V35.7571L14.8571 27.1857H8ZM26 29.2429V14.8C27.5429 15.2857 28.7857 16.2 29.7286 17.5429C30.6714 18.8857 31.1429 20.3857 31.1429 22.0429C31.1429 23.7286 30.6714 25.2286 29.7286 26.5429C28.7857 27.8571 27.5429 28.7571 26 29.2429ZM20.8571 14.8429L16.0143 19.4714H10.5714V24.6143H16.0143L20.8571 29.2857V14.8429Z" fill="white"/>
</svg>
