<svg width="45" height="45" viewBox="0 0 45 45" fill="none" xmlns="http://www.w3.org/2000/svg">
<circle cx="22.5" cy="22.5" r="22.5" fill="#FE611E"/>
<path d="M24.1667 7.5H20.8333V24.1667H24.1667V7.5ZM32.2167 11.1167L29.85 13.4833C32.4833 15.6 34.1667 18.85 34.1667 22.5C34.1667 28.95 28.95 34.1667 22.5 34.1667C16.05 34.1667 10.8333 28.95 10.8333 22.5C10.8333 18.85 12.5167 15.6 15.1333 13.4667L12.7833 11.1167C9.55 13.8667 7.5 17.9333 7.5 22.5C7.5 30.7833 14.2167 37.5 22.5 37.5C30.7833 37.5 37.5 30.7833 37.5 22.5C37.5 17.9333 35.45 13.8667 32.2167 11.1167Z" fill="white"/>
</svg>
