<svg width="45" height="45" viewBox="0 0 45 45" fill="none" xmlns="http://www.w3.org/2000/svg">
<circle cx="22.5" cy="22.5" r="22.5" fill="#E00E0F"/>
<path d="M10.8125 24.625C10.8125 26.5937 11.2578 28.4453 12.1484 30.1797C13.0391 31.9141 14.2812 33.3594 15.875 34.5156C15.75 34.1406 15.6563 33.7578 15.5938 33.3672C15.5313 32.9766 15.5 32.5937 15.5 32.2187C15.5 31.2187 15.6875 30.2812 16.0625 29.4062C16.4375 28.5312 16.9844 27.7344 17.7031 27.0156L23 21.8125L28.2969 27.0156C29.0156 27.7344 29.5625 28.5312 29.9375 29.4062C30.3125 30.2812 30.5 31.2187 30.5 32.2187C30.5 32.5937 30.4687 32.9766 30.4062 33.3672C30.3437 33.7578 30.25 34.1406 30.125 34.5156C31.7188 33.3594 32.9609 31.9141 33.8516 30.1797C34.7422 28.4453 35.1875 26.5937 35.1875 24.625C35.1875 22.9375 34.8281 21.2891 34.1094 19.6797C33.3906 18.0703 32.3594 16.5937 31.0156 15.25C30.3594 15.7188 29.6719 16.0859 28.9531 16.3516C28.2344 16.6172 27.5156 16.75 26.7969 16.75C24.8906 16.75 23.3125 16.1016 22.0625 14.8047C20.8125 13.5078 20.1875 11.875 20.1875 9.90625V8.96875C18.75 10 17.4531 11.1406 16.2969 12.3906C15.1406 13.6406 14.1562 14.9453 13.3437 16.3047C12.5312 17.6641 11.9062 19.0547 11.4687 20.4766C11.0312 21.8984 10.8125 23.2813 10.8125 24.625ZM23 25.75L19.6719 29.0313C19.2344 29.4688 18.8984 29.9531 18.6641 30.4844C18.4297 31.0156 18.3125 31.5937 18.3125 32.2187C18.3125 33.5 18.7656 34.5859 19.6719 35.4766C20.5781 36.3672 21.6875 36.8125 23 36.8125C24.3125 36.8125 25.4219 36.3672 26.3281 35.4766C27.2344 34.5859 27.6875 33.5 27.6875 32.2187C27.6875 31.5937 27.5703 31.0156 27.3359 30.4844C27.1016 29.9531 26.7656 29.4688 26.3281 29.0313L23 25.75ZM23 4V10.1875C23 11.25 23.3672 12.1406 24.1016 12.8594C24.8359 13.5781 25.7344 13.9375 26.7969 13.9375C27.3594 13.9375 27.8828 13.8203 28.3672 13.5859C28.8516 13.3516 29.2813 13 29.6563 12.5313L30.5 11.5C32.8125 12.8125 34.6406 14.6406 35.9844 16.9844C37.3281 19.3281 38 21.875 38 24.625C38 28.8125 36.5469 32.3594 33.6406 35.2656C30.7344 38.1719 27.1875 39.625 23 39.625C18.8125 39.625 15.2656 38.1719 12.3594 35.2656C9.45312 32.3594 8 28.8125 8 24.625C8 20.625 9.34375 16.7734 12.0313 13.0703C14.7188 9.36719 18.375 6.34375 23 4Z" fill="white"/>
</svg>
