<svg width="45" height="45" viewBox="0 0 45 45" fill="none" xmlns="http://www.w3.org/2000/svg">
<circle cx="22.5" cy="22.5" r="22.5" fill="#FEC715"/>
<path d="M39.6478 20.5045L38.9067 18.9136L37.2956 18.1818L38.9067 17.45L39.6478 15.8591L40.3889 17.45L42 18.1818L40.3889 18.9136L39.6478 20.5045ZM35.5556 14.9364L34.4278 12.5818L32.0433 11.4682L34.4278 10.3545L35.5556 8L36.6833 10.3545L39.0678 11.4682L36.6833 12.5818L35.5556 14.9364ZM22.6667 36C21.9363 36 21.3187 35.7508 20.8139 35.2523C20.3091 34.7538 20.0567 34.1439 20.0567 33.4227H25.2767C25.2767 34.1439 25.0243 34.7538 24.5194 35.2523C24.0146 35.7508 23.397 36 22.6667 36ZM17.4467 31.45V29.5409H27.8867V31.45H17.4467ZM17.6078 27.6C16.19 26.6879 15.0676 25.5477 14.2406 24.1795C13.4135 22.8114 13 21.2682 13 19.55C13 16.9621 13.9559 14.7242 15.8678 12.8364C17.7796 10.9485 20.0459 10.0045 22.6667 10.0045C25.2874 10.0045 27.5537 10.9485 29.4656 12.8364C31.3774 14.7242 32.3333 16.9621 32.3333 19.55C32.3333 21.2682 31.9252 22.8114 31.1089 24.1795C30.2926 25.5477 29.1648 26.6879 27.7256 27.6H17.6078ZM18.3167 25.6909H27.0489C28.08 25.0121 28.8963 24.1318 29.4978 23.05C30.0993 21.9682 30.4 20.8015 30.4 19.55C30.4 17.45 29.6428 15.6523 28.1283 14.1568C26.6139 12.6614 24.7933 11.9136 22.6667 11.9136C20.54 11.9136 18.7194 12.6614 17.205 14.1568C15.6906 15.6523 14.9333 17.45 14.9333 19.55C14.9333 20.8015 15.2341 21.9682 15.8356 23.05C16.437 24.1318 17.2641 25.0121 18.3167 25.6909ZM18.3167 25.6909C17.2641 25.0121 16.437 24.1318 15.8356 23.05C15.2341 21.9682 14.9333 20.8015 14.9333 19.55C14.9333 17.45 15.6906 15.6523 17.205 14.1568C18.7194 12.6614 20.54 11.9136 22.6667 11.9136C24.7933 11.9136 26.6139 12.6614 28.1283 14.1568C29.6428 15.6523 30.4 17.45 30.4 19.55C30.4 20.8015 30.0993 21.9682 29.4978 23.05C28.8963 24.1318 28.08 25.0121 27.0489 25.6909H18.3167Z" fill="white"/>
</svg>
