<svg width="45" height="45" viewBox="0 0 45 45" fill="none" xmlns="http://www.w3.org/2000/svg">
<circle cx="22.5" cy="22.5" r="22.5" fill="#FE611E"/>
<path d="M22.5 36C21.7822 36 21.1753 35.7507 20.6792 35.2521C20.1831 34.7536 19.935 34.1436 19.935 33.4223H25.065C25.065 34.1436 24.8169 34.7536 24.3208 35.2521C23.8247 35.7507 23.2178 36 22.5 36ZM17.37 31.4492V29.5398H27.63V31.4492H17.37ZM17.5283 27.5985C16.135 26.6863 15.0319 25.5459 14.2192 24.1775C13.4064 22.8091 13 21.2656 13 19.5471C13 16.9588 13.9394 14.7205 15.8183 12.8323C17.6972 10.9441 19.9244 10 22.5 10C25.0756 10 27.3028 10.9441 29.1817 12.8323C31.0606 14.7205 32 16.9588 32 19.5471C32 21.2656 31.5989 22.8091 30.7967 24.1775C29.9944 25.5459 28.8861 26.6863 27.4717 27.5985H17.5283ZM18.225 25.6891H26.8067C27.82 25.0102 28.6222 24.1297 29.2133 23.0477C29.8044 21.9657 30.1 20.7989 30.1 19.5471C30.1 17.4468 29.3558 15.6487 27.8675 14.153C26.3792 12.6573 24.59 11.9094 22.5 11.9094C20.41 11.9094 18.6208 12.6573 17.1325 14.153C15.6442 15.6487 14.9 17.4468 14.9 19.5471C14.9 20.7989 15.1956 21.9657 15.7867 23.0477C16.3778 24.1297 17.1906 25.0102 18.225 25.6891Z" fill="white"/>
</svg>
