<svg width="82" height="82" viewBox="0 0 82 82" fill="none" xmlns="http://www.w3.org/2000/svg">
<circle cx="40.625" cy="40.625" r="40.625" fill="#FEC715"/>
<path d="M59.8983 43.45C59.9983 42.65 60.0733 41.85 60.0733 41C60.0733 40.15 59.9983 39.35 59.8983 38.55L65.1733 34.425C65.6483 34.05 65.7733 33.375 65.4733 32.825L60.4733 24.175C60.2483 23.775 59.8233 23.55 59.3733 23.55C59.2233 23.55 59.0733 23.575 58.9483 23.625L52.7233 26.125C51.4233 25.125 50.0233 24.3 48.4983 23.675L47.5483 17.05C47.4733 16.45 46.9483 16 46.3233 16H36.3233C35.6983 16 35.1733 16.45 35.0983 17.05L34.1483 23.675C32.6233 24.3 31.2233 25.15 29.9233 26.125L23.6983 23.625C23.5483 23.575 23.3983 23.55 23.2483 23.55C22.8233 23.55 22.3983 23.775 22.1733 24.175L17.1733 32.825C16.8483 33.375 16.9983 34.05 17.4733 34.425L22.7483 38.55C22.6483 39.35 22.5733 40.175 22.5733 41C22.5733 41.825 22.6483 42.65 22.7483 43.45L17.4733 47.575C16.9983 47.95 16.8733 48.625 17.1733 49.175L22.1733 57.825C22.3983 58.225 22.8233 58.45 23.2733 58.45C23.4233 58.45 23.5733 58.425 23.6983 58.375L29.9233 55.875C31.2233 56.875 32.6233 57.7 34.1483 58.325L35.0983 64.95C35.1733 65.55 35.6983 66 36.3233 66H46.3233C46.9483 66 47.4733 65.55 47.5483 64.95L48.4983 58.325C50.0233 57.7 51.4233 56.85 52.7233 55.875L58.9483 58.375C59.0983 58.425 59.2483 58.45 59.3983 58.45C59.8233 58.45 60.2483 58.225 60.4733 57.825L65.4733 49.175C65.7733 48.625 65.6483 47.95 65.1733 47.575L59.8983 43.45ZM54.9483 39.175C55.0483 39.95 55.0733 40.475 55.0733 41C55.0733 41.525 55.0233 42.075 54.9483 42.825L54.5983 45.65L56.8233 47.4L59.5233 49.5L57.7733 52.525L54.5983 51.25L51.9983 50.2L49.7483 51.9C48.6733 52.7 47.6483 53.3 46.6233 53.725L43.9733 54.8L43.5733 57.625L43.0733 61H39.5733L39.0983 57.625L38.6983 54.8L36.0483 53.725C34.9733 53.275 33.9733 52.7 32.9733 51.95L30.6983 50.2L28.0483 51.275L24.8733 52.55L23.1233 49.525L25.8233 47.425L28.0483 45.675L27.6983 42.85C27.6233 42.075 27.5733 41.5 27.5733 41C27.5733 40.5 27.6233 39.925 27.6983 39.175L28.0483 36.35L25.8233 34.6L23.1233 32.5L24.8733 29.475L28.0483 30.75L30.6483 31.8L32.8983 30.1C33.9733 29.3 34.9983 28.7 36.0233 28.275L38.6733 27.2L39.0733 24.375L39.5733 21H43.0483L43.5233 24.375L43.9233 27.2L46.5733 28.275C47.6483 28.725 48.6483 29.3 49.6483 30.05L51.9233 31.8L54.5733 30.725L57.7483 29.45L59.4983 32.475L56.8233 34.6L54.5983 36.35L54.9483 39.175ZM41.3233 31C35.7983 31 31.3233 35.475 31.3233 41C31.3233 46.525 35.7983 51 41.3233 51C46.8483 51 51.3233 46.525 51.3233 41C51.3233 35.475 46.8483 31 41.3233 31ZM41.3233 46C38.5733 46 36.3233 43.75 36.3233 41C36.3233 38.25 38.5733 36 41.3233 36C44.0733 36 46.3233 38.25 46.3233 41C46.3233 43.75 44.0733 46 41.3233 46Z" fill="white"/>
</svg>
