<svg width="200" height="200" viewBox="0 0 200 200" fill="none" xmlns="http://www.w3.org/2000/svg">
<circle cx="100" cy="100" r="100" fill="white"/>
<path d="M45.488 116H37.808L52.544 82.4H58.064L72.8 116H65.024L62.288 109.76H48.224L45.488 116ZM59.552 103.472L55.232 93.44L50.816 103.472H59.552ZM83.1538 116H75.7138V82.4H101.154V89.36H83.1538V96.704H99.9538V103.664H83.1538V116ZM122.951 106.688C122.951 105.632 122.215 104.704 120.743 103.904C120.071 103.584 118.423 103.04 115.799 102.272C113.207 101.536 111.335 100.896 110.183 100.352C106.215 98.528 104.231 95.696 104.231 91.856C104.231 89.776 104.951 87.888 106.391 86.192C107.831 84.464 109.591 83.248 111.671 82.544C113.399 81.936 115.255 81.632 117.239 81.632C119.895 81.632 122.375 82.16 124.679 83.216C126.983 84.272 128.887 85.808 130.391 87.824L125.399 92.624C123.031 89.936 120.215 88.592 116.951 88.592C113.591 88.592 111.911 89.648 111.911 91.76C111.911 92.944 112.823 93.808 114.647 94.352C115.575 94.704 117.111 95.168 119.255 95.744C120.567 96.096 121.687 96.432 122.615 96.752C123.543 97.072 124.551 97.536 125.639 98.144C126.727 98.72 127.607 99.344 128.279 100.016C128.951 100.688 129.511 101.552 129.959 102.608C130.407 103.664 130.631 104.832 130.631 106.112C130.631 109.376 129.351 111.968 126.791 113.888C124.231 115.808 121.271 116.768 117.911 116.768C114.647 116.768 111.591 116.08 108.743 114.704C105.895 113.296 103.767 111.248 102.359 108.56L107.783 104.048C108.839 105.808 110.247 107.216 112.007 108.272C113.799 109.296 115.703 109.808 117.719 109.808C119.031 109.808 120.231 109.584 121.319 109.136C122.407 108.656 122.951 107.84 122.951 106.688ZM152.67 106.688C152.67 105.632 151.934 104.704 150.462 103.904C149.79 103.584 148.142 103.04 145.518 102.272C142.926 101.536 141.054 100.896 139.902 100.352C135.934 98.528 133.95 95.696 133.95 91.856C133.95 89.776 134.67 87.888 136.11 86.192C137.55 84.464 139.31 83.248 141.39 82.544C143.118 81.936 144.974 81.632 146.958 81.632C149.614 81.632 152.094 82.16 154.398 83.216C156.702 84.272 158.606 85.808 160.11 87.824L155.118 92.624C152.75 89.936 149.934 88.592 146.67 88.592C143.31 88.592 141.63 89.648 141.63 91.76C141.63 92.944 142.542 93.808 144.366 94.352C145.294 94.704 146.83 95.168 148.974 95.744C150.286 96.096 151.406 96.432 152.334 96.752C153.262 97.072 154.27 97.536 155.358 98.144C156.446 98.72 157.326 99.344 157.998 100.016C158.67 100.688 159.23 101.552 159.678 102.608C160.126 103.664 160.35 104.832 160.35 106.112C160.35 109.376 159.07 111.968 156.51 113.888C153.95 115.808 150.99 116.768 147.63 116.768C144.366 116.768 141.31 116.08 138.462 114.704C135.614 113.296 133.486 111.248 132.078 108.56L137.502 104.048C138.558 105.808 139.966 107.216 141.726 108.272C143.518 109.296 145.422 109.808 147.438 109.808C148.75 109.808 149.95 109.584 151.038 109.136C152.126 108.656 152.67 107.84 152.67 106.688Z" fill="black"/>
</svg>
