<svg width="45" height="45" viewBox="0 0 45 45" fill="none" xmlns="http://www.w3.org/2000/svg">
<g clip-path="url(#clip0_418_2348)">
<path d="M44.9103 22.5C44.9103 16.3147 42.7216 11.0333 38.3441 6.65584C33.9636 2.27834 28.6822 0.0895996 22.5 0.0895996C16.3147 0.0895996 11.0333 2.27834 6.65584 6.65584C2.27834 11.0333 0.0895996 16.3147 0.0895996 22.5C0.0895996 28.6852 2.27834 33.9666 6.65584 38.3441C11.0333 42.7216 16.3147 44.9103 22.5 44.9103C28.6822 44.9103 33.9636 42.7216 38.3441 38.3441C42.7216 33.9666 44.9103 28.6852 44.9103 22.5Z" fill="white"/>
<path d="M34.2072 41.5802C34.1848 41.5761 34.1624 41.5806 34.1399 41.5937C34.0129 41.6743 33.8845 41.7535 33.7545 41.8312C33.735 41.8436 33.7215 41.8615 33.7141 41.885C33.71 41.9095 33.7145 41.9319 33.7276 41.9522C33.74 41.9748 33.7579 41.9882 33.7814 41.9926C33.8058 41.9997 33.8283 41.9967 33.8486 41.9836C33.9786 41.9059 34.1071 41.8267 34.2341 41.746C34.2567 41.7328 34.2701 41.7133 34.2744 41.6878C34.2815 41.6653 34.2785 41.6429 34.2654 41.6205C34.2522 41.6009 34.2328 41.5874 34.2072 41.5802ZM33.2749 42.136C33.253 42.1288 33.2305 42.1303 33.2077 42.1405C33.0747 42.2167 32.9402 42.2899 32.8043 42.3601C32.7843 42.3728 32.7708 42.3908 32.7639 42.4139C32.7567 42.4379 32.7582 42.4603 32.7684 42.4811C32.7812 42.5041 32.7991 42.519 32.8222 42.5259C32.8462 42.5331 32.8686 42.5301 32.8894 42.517C33.0254 42.4467 33.1599 42.3735 33.2928 42.2973C33.3159 42.2867 33.3309 42.2688 33.3376 42.2436C33.3449 42.2216 33.3419 42.1992 33.3287 42.1763C33.3181 42.1562 33.3001 42.1428 33.2749 42.136ZM35.1126 40.9796C35.0897 40.9763 35.0673 40.9808 35.0453 40.9931C34.9221 41.0812 34.7981 41.1664 34.6733 41.2485C34.6528 41.2635 34.6394 41.2829 34.633 41.3068C34.6296 41.331 34.6341 41.3534 34.6464 41.374C34.6614 41.3946 34.6808 41.4066 34.7047 41.4099C34.7288 41.4162 34.7512 41.4117 34.7719 41.3964C34.8982 41.3143 35.0237 41.2291 35.1484 41.141C35.1698 41.1281 35.1817 41.1087 35.1843 41.0827C35.1906 41.0599 35.1861 41.0374 35.1708 41.0155C35.158 40.997 35.1385 40.9851 35.1126 40.9796ZM36.0672 40.4373C36.0704 40.4147 36.0644 40.3937 36.0493 40.3745C36.0338 40.3543 36.0128 40.3424 35.9866 40.3387C35.9639 40.3355 35.943 40.3415 35.9238 40.3566C35.8043 40.4492 35.6833 40.5404 35.5608 40.63C35.5415 40.6446 35.5296 40.664 35.5249 40.6883C35.5224 40.7129 35.5284 40.7353 35.5428 40.7555C35.5574 40.7755 35.5768 40.7875 35.6011 40.7914C35.6256 40.7946 35.648 40.7886 35.6683 40.7734C35.7916 40.6838 35.9126 40.5927 36.0314 40.5C36.0523 40.4844 36.0643 40.4635 36.0672 40.4373ZM32.3157 42.6425C32.2944 42.6345 32.272 42.636 32.2485 42.6469C32.1126 42.7127 31.9751 42.7769 31.8362 42.8397C31.8158 42.8498 31.8008 42.8662 31.7913 42.889C31.7841 42.9124 31.7856 42.9348 31.7958 42.9562C31.8059 42.9796 31.8223 42.9945 31.8451 43.001C31.8686 43.0112 31.891 43.0112 31.9124 43.001C32.0513 42.9383 32.1887 42.874 32.3247 42.8083C32.3489 42.7973 32.3653 42.7794 32.374 42.7545C32.382 42.7331 32.3805 42.7107 32.3695 42.6873C32.3586 42.666 32.3407 42.6511 32.3157 42.6425ZM30.7918 43.3865C30.8023 43.411 30.8187 43.4274 30.8411 43.4358C30.8643 43.4468 30.8867 43.4468 30.9084 43.4358C31.051 43.3805 31.193 43.3222 31.3342 43.261C31.3566 43.2526 31.3715 43.2361 31.379 43.2117C31.39 43.19 31.39 43.1676 31.379 43.1445C31.3706 43.122 31.3542 43.1056 31.3297 43.0952C31.308 43.0872 31.2856 43.0872 31.2625 43.0952C31.1228 43.1564 30.9823 43.2147 30.8411 43.27C30.8196 43.2804 30.8031 43.2969 30.7918 43.3193C30.7838 43.3424 30.7838 43.3648 30.7918 43.3865ZM29.8192 43.6464C29.7974 43.6542 29.781 43.6692 29.7699 43.6913C29.759 43.7138 29.7575 43.7362 29.7654 43.7585C29.7732 43.7833 29.7882 43.8012 29.8103 43.8123C29.8328 43.8232 29.8552 43.8247 29.8775 43.8168C30.0224 43.769 30.1658 43.7197 30.3078 43.6689C30.3328 43.6601 30.3507 43.6437 30.3616 43.6196C30.3725 43.5991 30.374 43.5766 30.366 43.5523C30.3574 43.5303 30.3409 43.5139 30.3167 43.503C30.2962 43.4921 30.2738 43.4906 30.2495 43.4985C30.1076 43.5493 29.9641 43.5986 29.8192 43.6464ZM37.6987 39.0837C37.7185 39.0681 37.729 39.0471 37.7301 39.0209C37.7307 38.9982 37.7218 38.9773 37.7032 38.9582C37.6876 38.9413 37.6667 38.9324 37.6404 38.9313C37.6177 38.9307 37.5968 38.9381 37.5777 38.9537C37.4686 39.059 37.3566 39.1621 37.2415 39.263C37.2248 39.2799 37.2158 39.3008 37.2146 39.3257C37.2131 39.3505 37.2206 39.3714 37.2371 39.3885C37.2539 39.4082 37.2748 39.4187 37.2998 39.4199C37.3245 39.4213 37.3454 39.4138 37.3625 39.3974C37.4776 39.2951 37.5897 39.1905 37.6987 39.0837ZM36.883 39.8098C36.9018 39.7947 36.9122 39.7737 36.9143 39.747C36.9167 39.7241 36.9092 39.7031 36.8919 39.6843C36.8768 39.6654 36.8559 39.655 36.8292 39.6529C36.8063 39.6506 36.7854 39.6566 36.7664 39.6708C36.6506 39.7709 36.5341 39.868 36.4168 39.9622C36.3988 39.9795 36.3883 40.0004 36.3855 40.0249C36.3831 40.0493 36.3891 40.0702 36.4034 40.0877C36.4207 40.1087 36.4416 40.1207 36.4661 40.1235C36.4904 40.1259 36.5114 40.1184 36.5289 40.1011C36.6477 40.007 36.7657 39.9099 36.883 39.8098ZM38.0349 38.6445C38.0535 38.6621 38.0745 38.6711 38.0976 38.6713C38.1241 38.6719 38.1465 38.663 38.1648 38.6445C38.2455 38.5675 38.3262 38.4883 38.4069 38.4069C38.4278 38.386 38.4487 38.3651 38.4696 38.3442C38.4873 38.3269 38.4963 38.306 38.4965 38.2814C38.4963 38.2569 38.4873 38.2359 38.4696 38.2187C38.4523 38.2009 38.4314 38.192 38.4069 38.1918C38.3823 38.192 38.3614 38.2009 38.3441 38.2187C38.3232 38.2396 38.3023 38.2605 38.2814 38.2814C38.2007 38.3613 38.12 38.439 38.0393 38.5145C38.0217 38.5332 38.0128 38.5541 38.0125 38.5772C38.0118 38.6038 38.0193 38.6262 38.0349 38.6445ZM39.2271 37.5419C39.2457 37.5248 39.2546 37.5039 39.254 37.4791C39.2529 37.455 39.2424 37.4341 39.2226 37.4164C39.2056 37.4007 39.1847 37.3933 39.1599 37.394C39.1358 37.3951 39.1149 37.4041 39.0971 37.4208C38.994 37.5359 38.8894 37.6494 38.7834 37.7615C38.7678 37.7815 38.7603 37.8039 38.761 37.8287C38.7621 37.8528 38.771 37.8722 38.7879 37.887C38.8078 37.9056 38.8302 37.9146 38.8551 37.9139C38.8791 37.9127 38.8986 37.9023 38.9133 37.8825C39.0194 37.7704 39.124 37.6569 39.2271 37.5419ZM39.9622 36.7037C39.9794 36.6848 39.9869 36.6624 39.9846 36.6365C39.9825 36.6128 39.9721 36.5919 39.9532 36.5737C39.9343 36.5595 39.9119 36.5535 39.886 36.5558C39.8623 36.5579 39.8413 36.5684 39.8232 36.5872C39.7268 36.7037 39.6282 36.8202 39.5274 36.9368C39.511 36.9555 39.5035 36.9764 39.505 36.9995C39.5069 37.0253 39.5174 37.0463 39.5364 37.0623C39.5551 37.0787 39.576 37.0862 39.5991 37.0847C39.6249 37.0827 39.6458 37.0723 39.6619 37.0533C39.7642 36.9368 39.8643 36.8203 39.9622 36.7037ZM40.6479 35.8432C40.663 35.8247 40.669 35.8023 40.6658 35.7759C40.6621 35.7526 40.6502 35.7332 40.63 35.7177C40.6108 35.7025 40.5883 35.6965 40.5628 35.6997C40.5395 35.7034 40.5201 35.7154 40.5045 35.7356C40.4126 35.8544 40.3185 35.9724 40.2221 36.0897C40.2078 36.1103 40.2018 36.1327 40.2042 36.1569C40.2071 36.1816 40.2175 36.201 40.2356 36.2152C40.2561 36.2325 40.2786 36.24 40.3028 36.2376C40.3275 36.2346 40.3469 36.2227 40.3611 36.2017C40.4589 36.0837 40.5545 35.9642 40.6479 35.8432ZM6.64691 38.2097C6.62963 38.192 6.60871 38.183 6.58416 38.1828C6.55962 38.183 6.5387 38.192 6.52141 38.2097C6.5037 38.227 6.49473 38.2479 6.49452 38.2724C6.49473 38.297 6.5037 38.3179 6.52141 38.3352C6.54532 38.3591 6.56922 38.383 6.59313 38.4069C6.6977 38.5122 6.80377 38.6168 6.91135 38.7206C6.92964 38.7392 6.95056 38.7481 6.9741 38.7475C7.0002 38.7473 7.02112 38.7383 7.03685 38.7206C7.05539 38.7024 7.06435 38.68 7.06375 38.6534C7.06343 38.6303 7.05447 38.6094 7.03685 38.5907C6.92928 38.4883 6.82321 38.3852 6.71863 38.2814C6.69472 38.2575 6.67082 38.2336 6.64691 38.2097ZM4.81823 36.1928C4.82136 36.1702 4.81538 36.1492 4.8003 36.13C4.70767 36.0105 4.61653 35.891 4.52689 35.7714C4.5122 35.7514 4.49277 35.7394 4.46863 35.7356C4.44393 35.7324 4.42152 35.7383 4.40139 35.7535C4.38128 35.7682 4.36933 35.7876 4.36554 35.8118C4.36234 35.8364 4.36832 35.8589 4.38347 35.879C4.4731 35.9993 4.56423 36.1188 4.65687 36.2376C4.67247 36.2585 4.69189 36.2705 4.71514 36.2734C4.74074 36.2766 4.76315 36.2706 4.78237 36.2555C4.80256 36.24 4.81452 36.219 4.81823 36.1928ZM5.77291 37.4208C5.75609 37.4386 5.74712 37.4595 5.74602 37.4836C5.74536 37.5084 5.75283 37.5294 5.76843 37.5463C5.87151 37.6584 5.9746 37.769 6.07769 37.878C6.09632 37.8978 6.11723 37.9083 6.14044 37.9094C6.16616 37.91 6.18708 37.9011 6.20319 37.8825C6.22305 37.8669 6.23351 37.846 6.23456 37.8198C6.23519 37.7971 6.22623 37.7761 6.20767 37.757C6.10459 37.6479 6.00151 37.5374 5.89841 37.4253C5.88361 37.4085 5.86418 37.3996 5.84014 37.3984C5.81529 37.3977 5.79288 37.4052 5.77291 37.4208ZM5.50398 37.0219C5.50551 36.9989 5.49804 36.978 5.48157 36.9592C5.38373 36.8464 5.28662 36.7313 5.19024 36.6141C5.17593 36.596 5.15651 36.5856 5.13197 36.5827C5.10762 36.5803 5.08521 36.5863 5.06474 36.6006C5.04667 36.6179 5.03621 36.6388 5.03337 36.6634C5.03103 36.6877 5.03701 36.7086 5.05129 36.7261C5.14914 36.8449 5.24775 36.9614 5.34711 37.0757C5.3631 37.0946 5.38252 37.1051 5.40538 37.1071C5.43147 37.1086 5.45388 37.1012 5.47261 37.0847C5.49154 37.0687 5.502 37.0478 5.50398 37.0219ZM12.8367 42.6962C12.8162 42.6853 12.7938 42.6838 12.7694 42.6918C12.7475 42.7004 12.731 42.7153 12.7201 42.7366C12.7091 42.76 12.7076 42.7824 12.7156 42.8038C12.7243 42.8287 12.7392 42.8467 12.7605 42.8576C12.8994 42.9233 13.0368 42.9876 13.1728 43.0503C13.1972 43.0605 13.2211 43.0605 13.2445 43.0503C13.2673 43.0438 13.2838 43.0289 13.2938 43.0055C13.3041 42.9841 13.3041 42.9617 13.2938 42.9383C13.2873 42.9155 13.2724 42.8991 13.249 42.889C13.113 42.8262 12.9756 42.762 12.8367 42.6962ZM13.8317 43.1355C13.8086 43.1275 13.7846 43.1275 13.76 43.1355C13.7385 43.1459 13.722 43.1623 13.7107 43.1848C13.7026 43.2079 13.7026 43.2303 13.7107 43.252C13.7211 43.2765 13.7375 43.2929 13.76 43.3013C13.9011 43.3626 14.0416 43.4208 14.1813 43.4761C14.2059 43.4871 14.2298 43.4871 14.253 43.4761C14.2754 43.4678 14.2904 43.4513 14.2978 43.4268C14.3088 43.4051 14.3088 43.3827 14.2978 43.3596C14.2895 43.3372 14.2731 43.3208 14.2485 43.3103C14.1103 43.255 13.9714 43.1967 13.8317 43.1355ZM12.2585 42.5752C12.2825 42.5675 12.3004 42.5526 12.3123 42.5304C12.3232 42.5087 12.3247 42.4863 12.3167 42.4632C12.309 42.4392 12.294 42.4213 12.2719 42.4094C12.139 42.3414 12.0075 42.2697 11.8775 42.1943C11.8554 42.1834 11.8315 42.1804 11.8058 42.1853C11.7836 42.1935 11.7657 42.2084 11.752 42.2301C11.7411 42.2521 11.7381 42.2746 11.743 42.2973C11.7513 42.3225 11.7662 42.3404 11.7878 42.3511C11.9208 42.4281 12.0553 42.5013 12.1912 42.5707C12.213 42.5817 12.2354 42.5832 12.2585 42.5752ZM10.8018 41.7416C10.809 41.7671 10.8225 41.7865 10.8421 41.7998C10.9728 41.8805 11.1043 41.9597 11.2366 42.0374C11.2577 42.0505 11.2801 42.0535 11.3038 42.0463C11.3273 42.0412 11.3453 42.0278 11.3576 42.006C11.3707 41.9849 11.3737 41.9625 11.3665 41.9388C11.3614 41.9153 11.3479 41.8973 11.3262 41.885C11.1955 41.8073 11.0655 41.7281 10.9363 41.6474C10.9168 41.6344 10.8944 41.6299 10.869 41.634C10.8464 41.6412 10.8285 41.6547 10.8152 41.6743C10.8021 41.6967 10.7977 41.7191 10.8018 41.7416ZM9.89193 41.141C9.89745 41.1669 9.90941 41.1864 9.92779 41.1992C10.0555 41.2874 10.1825 41.3725 10.3088 41.4547C10.3295 41.47 10.3519 41.4745 10.376 41.4682C10.3999 41.4648 10.4178 41.4529 10.4298 41.4323C10.4451 41.4117 10.4496 41.3893 10.4432 41.3651C10.4398 41.3412 10.4279 41.3218 10.4074 41.3068C10.2826 41.2246 10.1571 41.1395 10.0309 41.0513C10.0119 41.0391 9.98944 41.0346 9.96365 41.0379C9.94064 41.0434 9.92122 41.0553 9.90538 41.0737C9.89311 41.0957 9.88863 41.1181 9.89193 41.141ZM9.51992 40.6883C9.39816 40.5986 9.27714 40.5075 9.15687 40.4149C9.1384 40.3998 9.11599 40.3938 9.08964 40.3969C9.06634 40.4007 9.04692 40.4126 9.03137 40.4328C9.01624 40.452 9.01026 40.4729 9.01345 40.4955C9.01716 40.5218 9.02911 40.5427 9.0493 40.5583C9.16881 40.6509 9.28983 40.7421 9.41235 40.8317C9.43265 40.8469 9.45506 40.8529 9.47958 40.8496C9.50386 40.8458 9.52328 40.8338 9.53785 40.8138C9.55306 40.7935 9.55903 40.7711 9.55578 40.7465C9.55186 40.7223 9.5399 40.7028 9.51992 40.6883ZM8.24253 39.7157C8.21881 39.7177 8.1979 39.7282 8.17978 39.747C8.16551 39.7659 8.15953 39.7868 8.16185 39.8098C8.16395 39.8365 8.17441 39.8574 8.19323 39.8725C8.3105 39.9726 8.42852 40.0698 8.54731 40.1639C8.56795 40.1812 8.59036 40.1887 8.61454 40.1863C8.63923 40.1834 8.65865 40.1714 8.67281 40.1504C8.69014 40.1328 8.69761 40.1119 8.69522 40.0877C8.69227 40.063 8.68031 40.0421 8.65936 40.0249C8.54208 39.9308 8.42555 39.8337 8.30976 39.7336C8.29084 39.7193 8.26843 39.7133 8.24253 39.7157ZM7.34163 39.0882C7.34278 39.1122 7.35174 39.1317 7.36853 39.1464C7.48357 39.2533 7.59711 39.3579 7.70916 39.4602C7.72926 39.4766 7.75167 39.484 7.77639 39.4826C7.80135 39.4814 7.82227 39.471 7.83914 39.4512C7.85557 39.4341 7.86304 39.4132 7.86155 39.3885C7.86036 39.3636 7.84991 39.3427 7.83018 39.3257C7.71813 39.2249 7.60458 39.1218 7.48954 39.0165C7.47252 39.0009 7.45161 38.9934 7.42679 38.9941C7.4027 38.9952 7.38179 39.0041 7.36404 39.0209C7.3484 39.0409 7.34093 39.0633 7.34163 39.0882ZM22.8586 44.8476C22.8413 44.8299 22.8204 44.821 22.7958 44.8207C22.6972 44.8207 22.5986 44.8207 22.5 44.8207C22.4283 44.8207 22.3566 44.8207 22.2849 44.8207C22.2603 44.821 22.2394 44.8299 22.2221 44.8476C22.2044 44.8649 22.1954 44.8858 22.1952 44.9104C22.1954 44.9349 22.2044 44.9559 22.2221 44.9731C22.2394 44.9909 22.2603 44.9998 22.2849 45C22.3566 45 22.4283 45 22.5 45C22.5986 45 22.6972 45 22.7958 45C22.8204 44.9998 22.8413 44.9909 22.8586 44.9731C22.8763 44.9559 22.8852 44.9349 22.8855 44.9104C22.8852 44.8858 22.8763 44.8649 22.8586 44.8476ZM23.8939 44.9642C23.9189 44.963 23.9398 44.9525 23.9567 44.9328C23.9731 44.9157 23.9806 44.8948 23.9791 44.87C23.9779 44.8451 23.9674 44.8242 23.9477 44.8073C23.9306 44.7909 23.9097 44.7834 23.885 44.7849C23.7326 44.7938 23.5802 44.8013 23.4278 44.8073C23.4037 44.8084 23.3827 44.8174 23.365 44.8342C23.3494 44.8542 23.3419 44.8766 23.3426 44.9014C23.3437 44.9255 23.3527 44.9449 23.3695 44.9597C23.3895 44.9783 23.4119 44.9873 23.4368 44.9866C23.5891 44.9806 23.7415 44.9731 23.8939 44.9642ZM25.0324 44.7177C25.0149 44.7034 24.994 44.6974 24.9696 44.6997C24.818 44.7147 24.6656 44.7281 24.5125 44.7401C24.4896 44.7421 24.4702 44.7525 24.4542 44.7714C24.4377 44.7902 24.4302 44.8111 24.4318 44.8342C24.4338 44.8601 24.4442 44.881 24.4631 44.8969C24.4819 44.9134 24.5028 44.9209 24.5259 44.9194C24.6805 44.9074 24.8344 44.894 24.9876 44.879C25.0121 44.8762 25.0316 44.8642 25.0458 44.8432C25.0631 44.8257 25.0706 44.8048 25.0682 44.7804C25.0654 44.7558 25.0534 44.7349 25.0324 44.7177ZM26.0767 44.7401C26.101 44.7354 26.1205 44.722 26.135 44.6997C26.1494 44.6817 26.1539 44.6608 26.1484 44.637C26.146 44.6127 26.1341 44.5932 26.1125 44.5787C26.0945 44.5643 26.0736 44.5583 26.0498 44.5608C25.9011 44.5854 25.7502 44.6078 25.5971 44.628C25.5737 44.6318 25.5543 44.6438 25.5388 44.6639C25.5237 44.6832 25.5177 44.7041 25.5209 44.7266C25.5247 44.753 25.5367 44.7739 25.5568 44.7894C25.5761 44.8045 25.597 44.8105 25.6195 44.8073C25.7742 44.7864 25.9265 44.764 26.0767 44.7401ZM27.1524 44.5518C27.1763 44.5485 27.1942 44.5365 27.2062 44.516C27.2215 44.4953 27.226 44.4729 27.2196 44.4487C27.2163 44.4248 27.2043 44.4054 27.1838 44.3905C27.1631 44.3782 27.1407 44.3737 27.1165 44.377C26.9679 44.4084 26.8185 44.4368 26.6683 44.4622C26.6454 44.4677 26.626 44.4796 26.6101 44.498C26.5978 44.52 26.5933 44.5424 26.5966 44.5653C26.6021 44.5912 26.614 44.6106 26.6325 44.6235C26.6544 44.6388 26.6768 44.6433 26.6997 44.637C26.8513 44.6116 27.0022 44.5832 27.1524 44.5518ZM18.3944 44.6504C18.4203 44.6567 18.4427 44.6522 18.4617 44.637C18.4831 44.6241 18.495 44.6047 18.4975 44.5787C18.5038 44.5558 18.4993 44.5334 18.4841 44.5115C18.4712 44.4931 18.4517 44.4811 18.4258 44.4756C18.2786 44.4502 18.1307 44.4218 17.9821 44.3905C17.9579 44.3871 17.9355 44.3916 17.9148 44.4039C17.8943 44.4189 17.8808 44.4383 17.8745 44.4622C17.8712 44.4864 17.8756 44.5088 17.8879 44.5294C17.9029 44.55 17.9223 44.5619 17.9462 44.5653C18.0964 44.5967 18.2458 44.625 18.3944 44.6504ZM19.5508 44.6639C19.5375 44.6459 19.518 44.6355 19.4925 44.6325C19.3454 44.6146 19.1975 44.5951 19.0488 44.5742C19.024 44.571 19.0016 44.577 18.9816 44.5922C18.9614 44.6069 18.9495 44.6263 18.9457 44.6504C18.9425 44.6752 18.9485 44.6976 18.9636 44.7177C18.9784 44.7378 18.9978 44.7497 19.0219 44.7535C19.1721 44.7744 19.3215 44.7939 19.4701 44.8118C19.4965 44.8142 19.5189 44.8067 19.5374 44.7894C19.5583 44.776 19.5703 44.7566 19.5732 44.7311C19.5756 44.7077 19.5682 44.6853 19.5508 44.6639ZM20.5548 44.9238C20.5809 44.9254 20.6033 44.9179 20.622 44.9014C20.6409 44.8855 20.6514 44.8646 20.6534 44.8387C20.6549 44.8156 20.6475 44.7947 20.631 44.7759C20.615 44.757 20.5941 44.7466 20.5682 44.7446C20.4181 44.7326 20.2687 44.7191 20.12 44.7042C20.0956 44.7019 20.0732 44.7078 20.0528 44.7221C20.0347 44.7394 20.0243 44.7603 20.0214 44.7849C20.0191 44.8092 20.025 44.8302 20.0393 44.8476C20.0566 44.8687 20.0775 44.8806 20.1021 44.8835C20.2522 44.8984 20.4031 44.9119 20.5548 44.9238ZM21.7425 44.9014C21.7432 44.8766 21.7343 44.8542 21.7156 44.8342C21.7009 44.8174 21.6815 44.8084 21.6574 44.8073C21.505 44.8013 21.3526 44.7938 21.2002 44.7849C21.1755 44.7834 21.1531 44.7909 21.133 44.8073C21.1162 44.8242 21.1073 44.8451 21.1061 44.87C21.1046 44.8948 21.1121 44.9157 21.1285 44.9328C21.1453 44.9525 21.1662 44.963 21.1912 44.9642C21.3436 44.9731 21.496 44.9806 21.6484 44.9866C21.6732 44.9873 21.6941 44.9783 21.7112 44.9597C21.731 44.9449 21.7414 44.9255 21.7425 44.9014ZM17.3591 44.265C17.2119 44.2336 17.0655 44.1992 16.9198 44.1619C16.8953 44.1577 16.8714 44.1622 16.8481 44.1753C16.8285 44.1877 16.8151 44.2056 16.8078 44.2291C16.8036 44.2536 16.8081 44.276 16.8212 44.2963C16.8336 44.3189 16.8515 44.3323 16.875 44.3367C17.0222 44.374 17.1701 44.4084 17.3187 44.4398C17.345 44.4469 17.3689 44.4439 17.3904 44.4308C17.4109 44.4175 17.4229 44.3981 17.4263 44.3725C17.4334 44.3493 17.4304 44.3269 17.4173 44.3053C17.404 44.2848 17.3846 44.2714 17.3591 44.265ZM15.7634 43.9333C15.7562 43.9565 15.7577 43.9789 15.7679 44.0005C15.7806 44.0227 15.7985 44.0377 15.8217 44.0453C15.9659 44.0902 16.1108 44.1335 16.2565 44.1753C16.2814 44.1825 16.3039 44.1795 16.3237 44.1664C16.3468 44.1558 16.3618 44.1378 16.3685 44.1126C16.3757 44.0906 16.3727 44.0682 16.3596 44.0453C16.3489 44.0252 16.331 44.0118 16.3058 44.005C16.1616 43.9632 16.0182 43.9198 15.8755 43.875C15.8523 43.8678 15.8299 43.8693 15.8083 43.8795C15.7861 43.8922 15.7711 43.9101 15.7634 43.9333ZM15.3242 43.7271C15.3131 43.705 15.2952 43.6901 15.2704 43.6823C15.1285 43.6345 14.9851 43.5852 14.8401 43.5344C14.8189 43.5264 14.7964 43.5279 14.7729 43.5389C14.7517 43.5498 14.7367 43.5662 14.7281 43.5882C14.7201 43.6125 14.7216 43.6349 14.7326 43.6554C14.7434 43.6796 14.7598 43.696 14.7819 43.7047C14.9268 43.7555 15.0702 43.8048 15.2122 43.8526C15.2374 43.8606 15.2613 43.8591 15.2839 43.8481C15.306 43.8371 15.3209 43.8192 15.3287 43.7944C15.3367 43.7721 15.3352 43.7497 15.3242 43.7271ZM28.7615 44.135C28.7843 44.1482 28.8067 44.1511 28.8287 44.144C28.9773 44.1021 29.1252 44.0588 29.2724 44.014C29.2956 44.007 29.3121 43.9921 29.3217 43.9692C29.3349 43.9483 29.3379 43.9259 29.3307 43.9019C29.3238 43.8788 29.3088 43.8608 29.2859 43.8481C29.265 43.838 29.2426 43.8365 29.2186 43.8437C29.073 43.8885 28.9265 43.9318 28.7794 43.9736C28.7571 43.9804 28.7392 43.9939 28.7256 44.014C28.7154 44.0368 28.7139 44.0593 28.7211 44.0812C28.7279 44.1065 28.7413 44.1244 28.7615 44.135ZM27.6723 44.2829C27.6592 44.3044 27.6547 44.3269 27.6589 44.3501C27.6653 44.3757 27.6787 44.3951 27.6992 44.4084C27.7207 44.4215 27.7431 44.4245 27.7664 44.4174C27.9181 44.386 28.0675 44.3501 28.2146 44.3098C28.239 44.3046 28.2569 44.2912 28.2684 44.2695C28.2823 44.2482 28.2853 44.2258 28.2774 44.2022C28.2722 44.1779 28.2588 44.1584 28.2371 44.144C28.2158 44.1331 28.1934 44.1301 28.1698 44.135C28.0241 44.1753 27.8762 44.2112 27.7261 44.2426C27.7036 44.249 27.6856 44.2624 27.6723 44.2829ZM3.88596 34.8885C3.87308 34.8701 3.85366 34.8581 3.82769 34.8526C3.80485 34.8493 3.78244 34.8538 3.76046 34.8661C3.74204 34.8819 3.73009 34.9013 3.7246 34.9243C3.72132 34.9501 3.7258 34.9725 3.73805 34.9916C3.82693 35.1193 3.91657 35.2448 4.00697 35.3681C4.02154 35.388 4.04096 35.4 4.06524 35.4039C4.08982 35.4072 4.11223 35.4012 4.13247 35.386C4.15251 35.3714 4.16446 35.352 4.16833 35.3277C4.17157 35.3032 4.1656 35.2808 4.1504 35.2605C4.0615 35.1387 3.97336 35.0147 3.88596 34.8885ZM3.13745 34.01C3.1333 34.0345 3.13778 34.0569 3.1509 34.0772C3.22857 34.2072 3.30776 34.3357 3.38845 34.4627C3.40173 34.4853 3.41966 34.4987 3.44223 34.503C3.46766 34.5101 3.49008 34.5071 3.50946 34.4941C3.53213 34.4808 3.54558 34.4614 3.5498 34.4358C3.5569 34.4134 3.55391 34.391 3.54084 34.3686C3.46016 34.2416 3.38098 34.1131 3.30329 33.9831C3.29089 33.9636 3.27296 33.9501 3.2495 33.9428C3.22498 33.9386 3.20107 33.9431 3.17779 33.9562C3.15821 33.9686 3.14477 33.9865 3.13745 34.01ZM2.63994 33.015C2.61986 33.0285 2.60642 33.0464 2.5996 33.0688C2.59242 33.0936 2.59392 33.116 2.60408 33.136C2.67728 33.2697 2.75049 33.4027 2.82371 33.5349C2.8374 33.5565 2.85532 33.57 2.87749 33.5752C2.90326 33.5832 2.92717 33.5802 2.9492 33.5663C2.97088 33.5556 2.98432 33.5377 2.98954 33.5125C2.99744 33.4897 2.99446 33.4673 2.98058 33.4453C2.90737 33.3145 2.83416 33.1831 2.76096 33.0508C2.75037 33.0308 2.73244 33.0173 2.70717 33.0105C2.68531 33.0033 2.6629 33.0048 2.63994 33.015ZM2.26793 32.0872C2.25698 32.066 2.23905 32.051 2.21414 32.0424C2.19277 32.0344 2.17036 32.0359 2.14691 32.0468C2.12567 32.0578 2.11073 32.0742 2.10209 32.0961C2.09412 32.1205 2.09561 32.1429 2.10657 32.1634C2.1723 32.3031 2.23953 32.4405 2.30827 32.5757C2.32015 32.5978 2.33808 32.6128 2.36205 32.6205C2.38517 32.6285 2.40758 32.627 2.42928 32.6161C2.45142 32.6042 2.46637 32.5863 2.4741 32.5623C2.48205 32.5392 2.48056 32.5168 2.46962 32.4951C2.40091 32.3613 2.33368 32.2254 2.26793 32.0872ZM1.77938 31.0473C1.75624 31.0393 1.73233 31.0393 1.70767 31.0473C1.68615 31.0578 1.66971 31.0742 1.65837 31.0966C1.65038 31.1198 1.65038 31.1422 1.65837 31.1639C1.71662 31.3066 1.77489 31.447 1.83317 31.5852C1.84456 31.6076 1.86099 31.6225 1.88247 31.63C1.90721 31.641 1.93112 31.641 1.95418 31.63C1.97666 31.6216 1.9916 31.6052 1.999 31.5807C2.01001 31.559 2.01001 31.5366 1.999 31.5135C1.94075 31.3768 1.88248 31.2378 1.8242 31.0966C1.81671 31.0751 1.80177 31.0586 1.77938 31.0473ZM1.43874 30.0882C1.43004 30.0662 1.4136 30.0497 1.38944 30.0389C1.36895 30.0279 1.34654 30.0264 1.32221 30.0344C1.30023 30.0431 1.2838 30.058 1.27291 30.0792C1.26195 30.1027 1.26045 30.1252 1.26843 30.1464C1.31996 30.2921 1.37225 30.4356 1.4253 30.5767C1.43561 30.5996 1.45204 30.616 1.4746 30.626C1.4968 30.6363 1.51921 30.6363 1.54183 30.626C1.56471 30.6187 1.58114 30.6038 1.59114 30.5812C1.60138 30.559 1.60138 30.5366 1.59114 30.514C1.53959 30.3743 1.48879 30.2323 1.43874 30.0882ZM0.986056 28.999C0.963797 29.0058 0.945869 29.0193 0.932271 29.0394C0.922093 29.0622 0.920599 29.0846 0.927789 29.1066C0.969598 29.256 1.01442 29.4024 1.06225 29.5458C1.07004 29.5706 1.08498 29.5886 1.10707 29.5996C1.12961 29.6106 1.15202 29.6121 1.1743 29.6041C1.19912 29.5963 1.21705 29.5814 1.22809 29.5593C1.23905 29.5368 1.24054 29.5129 1.23257 29.4876C1.18478 29.3471 1.13996 29.2037 1.09811 29.0573C1.09133 29.0351 1.07639 29.0171 1.05329 29.0035C1.03341 28.9933 1.011 28.9918 0.986056 28.999ZM0.640936 28.0444C0.678275 28.196 0.715626 28.3454 0.752988 28.4926C0.76117 28.5169 0.77611 28.5349 0.797809 28.5463C0.819017 28.5602 0.841427 28.5632 0.86504 28.5553C0.8894 28.5501 0.907328 28.5367 0.918825 28.515C0.932703 28.4938 0.935691 28.4713 0.927789 28.4477C0.89045 28.3021 0.853099 28.1542 0.815737 28.004C0.811454 27.9814 0.798007 27.9635 0.775398 27.9502C0.755918 27.9371 0.733507 27.9326 0.708167 27.9368C0.685489 27.9441 0.66756 27.9575 0.654383 27.9771C0.641275 27.9995 0.636793 28.022 0.640936 28.0444ZM0.578187 26.9418C0.574826 26.9178 0.562874 26.8984 0.542331 26.8835C0.521695 26.8712 0.499284 26.8667 0.4751 26.8701C0.451207 26.8764 0.431785 26.8898 0.416833 26.9104C0.404542 26.9311 0.40006 26.9535 0.403387 26.9776C0.434749 27.1278 0.466124 27.2772 0.49751 27.4258C0.503941 27.4513 0.517388 27.4708 0.537849 27.4841C0.559395 27.4972 0.581806 27.5002 0.60508 27.4931C0.630607 27.4896 0.650029 27.4777 0.663347 27.4572C0.676419 27.4357 0.679407 27.4118 0.672311 27.3855C0.640936 27.2383 0.609562 27.0904 0.578187 26.9418ZM0.246514 25.8302C0.231364 25.8496 0.225388 25.8705 0.228586 25.893C0.250249 26.0476 0.272659 26.2 0.295817 26.3501C0.301209 26.3745 0.313161 26.3939 0.331673 26.4084C0.352695 26.4229 0.375105 26.4273 0.398904 26.4218C0.423229 26.4195 0.442651 26.4075 0.457171 26.386C0.472357 26.3679 0.478333 26.347 0.4751 26.3232C0.451195 26.1746 0.428785 26.0237 0.407869 25.8705C0.404075 25.8471 0.392123 25.8277 0.372012 25.8123C0.352683 25.7971 0.330273 25.7911 0.304781 25.7944C0.28139 25.7981 0.261968 25.8101 0.246514 25.8302ZM0.179283 24.7052C0.154713 24.7081 0.133797 24.7185 0.116534 24.7366C0.102236 24.7571 0.0962596 24.7795 0.0986056 24.8038C0.113534 24.957 0.129968 25.1093 0.147908 25.261C0.15085 25.2864 0.161308 25.3058 0.179283 25.3193C0.200666 25.3366 0.223077 25.3441 0.246514 25.3417C0.271971 25.3387 0.291393 25.3268 0.304781 25.3058C0.322114 25.2874 0.329584 25.265 0.327191 25.2386C0.309263 25.0884 0.292829 24.9375 0.277889 24.7859C0.275029 24.7613 0.263077 24.7404 0.242032 24.7231C0.224559 24.7088 0.203643 24.7029 0.179283 24.7052ZM0.116534 23.6161C0.0924545 23.6172 0.0715381 23.6261 0.0537849 23.643C0.0381794 23.663 0.0307093 23.6854 0.0313746 23.7102C0.037339 23.8626 0.0448091 24.0135 0.0537849 24.1629C0.0549755 24.1878 0.0639396 24.2088 0.0806774 24.2256C0.100788 24.2421 0.123199 24.2495 0.147908 24.248C0.172898 24.2469 0.193815 24.2364 0.210657 24.2167C0.22708 24.1996 0.23455 24.1786 0.233068 24.1539C0.224104 24.0045 0.216634 23.8536 0.210657 23.7012C0.209525 23.6771 0.199067 23.6562 0.179283 23.6385C0.162312 23.6228 0.141395 23.6154 0.116534 23.6161ZM0.0268925 22.5493C0.00917431 22.5666 0.000210165 22.5875 6.78608e-08 22.6121C-1.16042e-05 22.7652 0.00148242 22.9176 0.00448214 23.0693C0.00477394 23.0954 0.0137381 23.1163 0.0313746 23.132C0.0496413 23.1505 0.0705577 23.1595 0.0941236 23.1589C0.120269 23.1586 0.141185 23.1497 0.156873 23.132C0.175396 23.1137 0.18436 23.0913 0.183765 23.0648C0.180777 22.9146 0.179283 22.7637 0.179283 22.6121C0.179073 22.5875 0.170109 22.5666 0.152391 22.5493C0.135104 22.5316 0.114188 22.5227 0.0896415 22.5224C0.0650952 22.5227 0.0441788 22.5316 0.0268925 22.5493ZM0.0493029 21.375C0.0324951 21.3927 0.0235309 21.4136 0.0224104 21.4378C0.0164227 21.5909 0.0119406 21.7433 0.00896421 21.895C0.00836894 21.9215 0.0158391 21.9439 0.0313746 21.9622C0.0500499 21.9798 0.0709662 21.9888 0.0941236 21.9891C0.120678 21.9897 0.143088 21.9807 0.161355 21.9622C0.178991 21.9465 0.187955 21.9256 0.188247 21.8994C0.191235 21.7493 0.195717 21.5984 0.201693 21.4467C0.202359 21.4219 0.193394 21.3995 0.174801 21.3795C0.160047 21.3627 0.140625 21.3537 0.116534 21.3526C0.0916724 21.3519 0.0692621 21.3594 0.0493029 21.375ZM0.183765 20.268C0.160748 20.2664 0.139831 20.2739 0.121016 20.2904C0.102142 20.3063 0.0916841 20.3257 0.0896415 20.3486C0.0776776 20.5003 0.0672195 20.6527 0.058267 20.8058C0.0567846 20.8305 0.0642548 20.8514 0.0806774 20.8686C0.0975318 20.8883 0.118448 20.8988 0.143426 20.8999C0.168136 20.9014 0.189052 20.894 0.206175 20.8775C0.225889 20.8607 0.236348 20.8398 0.23755 20.8148C0.246514 20.6631 0.256972 20.5122 0.268924 20.3621C0.270465 20.3391 0.262995 20.3182 0.246514 20.2993C0.230605 20.2804 0.209689 20.27 0.183765 20.268ZM0.313745 19.1833C0.289012 19.1801 0.266602 19.1861 0.246514 19.2012C0.226391 19.2159 0.214439 19.2354 0.210657 19.2595C0.189741 19.4096 0.170319 19.5605 0.152391 19.7122C0.149986 19.7386 0.155962 19.7611 0.170319 19.7794C0.186683 19.8004 0.206105 19.8124 0.228586 19.8153C0.255011 19.8177 0.277422 19.8102 0.295817 19.7929C0.31678 19.7794 0.328732 19.76 0.331673 19.7346C0.349602 19.5844 0.369024 19.435 0.38994 19.2864C0.393138 19.2616 0.387162 19.2392 0.372012 19.2192C0.357317 19.199 0.337895 19.1871 0.313745 19.1833ZM0.551295 18.2152C0.557575 18.1923 0.553092 18.1698 0.537849 18.1479C0.524963 18.1295 0.50554 18.1175 0.479582 18.1121C0.456705 18.1088 0.434294 18.1133 0.412351 18.1255C0.393921 18.1414 0.381968 18.1609 0.376494 18.1838C0.351084 18.3354 0.325686 18.4863 0.300299 18.6365C0.297813 18.6603 0.303789 18.6812 0.318227 18.6992C0.332747 18.7208 0.35217 18.7327 0.376494 18.7351C0.400293 18.7406 0.42121 18.7361 0.439243 18.7216C0.46149 18.7071 0.474936 18.6877 0.479582 18.6634C0.502739 18.5147 0.526644 18.3653 0.551295 18.2152ZM0.645418 17.0588C0.625868 17.0711 0.612422 17.0891 0.60508 17.1126C0.570706 17.2597 0.536343 17.4076 0.501992 17.5563C0.497884 17.5826 0.502366 17.6065 0.515438 17.628C0.528756 17.6485 0.546684 17.6604 0.569223 17.6639C0.595485 17.671 0.61939 17.668 0.640936 17.6549C0.661386 17.6416 0.673338 17.6222 0.676793 17.5966C0.711156 17.4495 0.745518 17.3031 0.779881 17.1574C0.787012 17.1329 0.784024 17.109 0.770916 17.0857C0.758532 17.0661 0.740604 17.0527 0.717132 17.0454C0.692609 17.0412 0.668704 17.0457 0.645418 17.0588ZM0.932271 16.5434C0.971863 16.3977 1.0122 16.2513 1.05329 16.1041C1.06048 16.0821 1.05749 16.0597 1.04432 16.0369C1.03371 16.0168 1.01578 16.0033 0.990538 15.9965C0.968583 15.9893 0.946172 15.9908 0.923307 16.001C0.903196 16.0146 0.88975 16.0326 0.882968 16.0548C0.840377 16.2035 0.798544 16.3514 0.75747 16.4985C0.752556 16.5221 0.755544 16.5445 0.766434 16.5658C0.780919 16.5875 0.800342 16.6009 0.824701 16.6061C0.848314 16.614 0.870724 16.611 0.891932 16.5971C0.913631 16.5857 0.927077 16.5677 0.932271 16.5434ZM1.33118 14.9612C1.30983 14.9532 1.28742 14.9547 1.26394 14.9657C1.24276 14.9765 1.22782 14.9929 1.21912 15.015C1.16832 15.1599 1.11901 15.3033 1.07122 15.4453C1.06323 15.4705 1.06473 15.4944 1.0757 15.517C1.08674 15.5391 1.10317 15.554 1.125 15.5618C1.15027 15.5698 1.17417 15.5683 1.19671 15.5573C1.2188 15.5462 1.23374 15.5283 1.24153 15.5035C1.28934 15.3616 1.33865 15.2182 1.38944 15.0732C1.3974 15.0519 1.39591 15.0295 1.38496 15.006C1.37406 14.9848 1.35613 14.9698 1.33118 14.9612ZM1.71663 13.9393C1.69496 13.9313 1.67255 13.9313 1.6494 13.9393C1.62702 13.9506 1.61058 13.967 1.6001 13.9886C1.54481 14.1312 1.48953 14.2747 1.43426 14.4189C1.42703 14.4415 1.42852 14.4639 1.43874 14.4861C1.44877 14.5087 1.46521 14.5236 1.48805 14.5309C1.51072 14.5412 1.53313 14.5412 1.55528 14.5309C1.57784 14.5209 1.59278 14.5045 1.6001 14.4816C1.65538 14.3389 1.71066 14.197 1.76594 14.0558C1.77691 14.0342 1.77691 14.0118 1.76594 13.9886C1.75759 13.9662 1.74116 13.9497 1.71663 13.9393ZM2.09761 12.9353C2.07569 12.944 2.05926 12.9589 2.04831 12.9801C1.98181 13.1198 1.91607 13.2602 1.8511 13.4014C1.84311 13.4237 1.84311 13.4461 1.8511 13.4687C1.8614 13.4915 1.87784 13.508 1.9004 13.518C1.9226 13.5282 1.94501 13.5282 1.96763 13.518C1.99122 13.5106 2.00765 13.4957 2.01693 13.4731C2.08044 13.3335 2.14468 13.1945 2.20966 13.0563C2.22061 13.0358 2.2221 13.0134 2.21414 12.9891C2.20549 12.9671 2.18906 12.9507 2.16484 12.9398C2.14438 12.9288 2.12197 12.9273 2.09761 12.9353ZM2.69373 12.0837C2.70689 12.0629 2.70988 12.0405 2.70269 12.0165C2.6958 11.9933 2.68086 11.9754 2.65787 11.9627C2.63708 11.9525 2.61467 11.951 2.59064 11.9582C2.56754 11.9651 2.54961 11.9785 2.53685 11.9985C2.46587 12.1352 2.39566 12.2727 2.3262 12.4109C2.31525 12.4335 2.31375 12.4559 2.32171 12.4781C2.3295 12.5029 2.34444 12.5209 2.36653 12.5319C2.38907 12.5429 2.41148 12.5444 2.43376 12.5364C2.45854 12.5286 2.47647 12.5136 2.48755 12.4916C2.55553 12.3549 2.62425 12.2189 2.69373 12.0837ZM3.19572 11.0125C3.17458 10.9993 3.15217 10.9949 3.12849 10.999C3.10497 11.0072 3.08704 11.0221 3.0747 11.0439C2.99626 11.1753 2.91858 11.3068 2.84163 11.4383C2.83074 11.4604 2.82776 11.4828 2.83267 11.5055C2.84089 11.5307 2.85583 11.5486 2.87749 11.5593C2.89953 11.5732 2.92194 11.5762 2.94472 11.5683C2.96986 11.563 2.98779 11.5496 2.99851 11.5279C3.07395 11.3964 3.15015 11.265 3.22709 11.1335C3.2402 11.1123 3.24319 11.0899 3.23606 11.0663C3.23093 11.0427 3.21749 11.0248 3.19572 11.0125ZM3.72012 10.0802C3.69714 10.0857 3.67771 10.0977 3.66185 10.1161C3.57591 10.2445 3.49225 10.373 3.41086 10.5015C3.39778 10.5239 3.3933 10.5464 3.39741 10.5688C3.40462 10.5944 3.41807 10.6138 3.43775 10.627C3.46012 10.6401 3.48253 10.6431 3.50498 10.636C3.53054 10.6317 3.54996 10.6183 3.56325 10.5956C3.6432 10.4702 3.72537 10.3447 3.80976 10.2192C3.82499 10.2001 3.82948 10.1777 3.82321 10.1519C3.82071 10.1289 3.80876 10.1095 3.78735 10.0937C3.76836 10.0814 3.74595 10.0769 3.72012 10.0802ZM4.36554 9.18828C4.34217 9.19208 4.32275 9.20404 4.30727 9.22414C4.21463 9.34665 4.12349 9.46916 4.03386 9.59167C4.01941 9.61196 4.01344 9.63437 4.01594 9.6589C4.02054 9.68317 4.03249 9.7026 4.05179 9.71716C4.07203 9.73237 4.09444 9.73835 4.11902 9.73509C4.14329 9.73117 4.16271 9.71922 4.17729 9.69924C4.26693 9.57673 4.35807 9.45422 4.4507 9.33171C4.46582 9.31234 4.4718 9.28993 4.46863 9.26447C4.46484 9.24107 4.45289 9.22165 4.43277 9.20621C4.41344 9.19105 4.39103 9.18507 4.36554 9.18828ZM6.58865 6.85312C6.60636 6.83583 6.61533 6.81492 6.61554 6.79037C6.61533 6.76582 6.60636 6.74491 6.58865 6.72762C6.57136 6.7099 6.55044 6.70094 6.5259 6.70073C6.50135 6.70094 6.48043 6.7099 6.46315 6.72762C6.35183 6.83817 6.24127 6.95022 6.13147 7.06378C6.1159 7.08218 6.10843 7.1031 6.10906 7.12653C6.11011 7.15274 6.11908 7.17366 6.13596 7.18928C6.15505 7.20786 6.17597 7.21682 6.19871 7.21617C6.22491 7.21581 6.24583 7.20684 6.26145 7.18928C6.36977 7.07573 6.47883 6.96368 6.58865 6.85312ZM4.77341 8.86109C4.79807 8.85813 4.81749 8.84618 4.83167 8.82523C4.92879 8.7072 5.0259 8.58768 5.12301 8.46667C5.14024 8.44922 5.14771 8.4283 5.14542 8.40392C5.14259 8.37938 5.13064 8.35847 5.10956 8.34117C5.09211 8.32687 5.0712 8.32089 5.04681 8.32324C5.02232 8.32606 5.00141 8.33652 4.98406 8.35461C4.88694 8.47563 4.78983 8.59515 4.69273 8.71318C4.6784 8.73382 4.67242 8.75623 4.6748 8.78041C4.6777 8.8051 4.68815 8.82452 4.70618 8.83868C4.72676 8.85601 4.74918 8.86348 4.77341 8.86109ZM5.374 7.93778C5.37604 7.96448 5.38649 7.98539 5.40538 8.00053C5.42423 8.01779 5.44515 8.02526 5.46813 8.02294C5.49482 8.02083 5.51574 8.01037 5.53088 7.99157C5.62951 7.87579 5.72961 7.76075 5.83118 7.64645C5.84977 7.62943 5.85873 7.60851 5.85807 7.5837C5.85696 7.55961 5.8465 7.53869 5.82669 7.52095C5.80972 7.50531 5.78881 7.49784 5.76394 7.49854C5.73989 7.49968 5.71897 7.50865 5.7012 7.52543C5.59658 7.64121 5.49349 7.75774 5.39193 7.87503C5.37766 7.89395 5.37168 7.91487 5.374 7.93778ZM7.33267 5.91637C7.30998 5.91574 7.28906 5.92321 7.26992 5.93878C7.16086 6.04485 7.0503 6.14943 6.93825 6.25252C6.92142 6.27115 6.91245 6.29207 6.91135 6.31527C6.9107 6.341 6.91817 6.36191 6.93377 6.37802C6.95237 6.39789 6.97329 6.40834 6.99651 6.4094C7.02219 6.41003 7.04311 6.40106 7.05926 6.3825C7.17131 6.27941 7.28187 6.17483 7.39094 6.06876C7.41076 6.05312 7.42121 6.0322 7.42231 6.00601C7.42296 5.98327 7.414 5.96236 7.39542 5.94326C7.3798 5.92639 7.35889 5.91743 7.33267 5.91637ZM8.23357 5.2844C8.23511 5.2613 8.22764 5.24038 8.21116 5.22165C8.19516 5.20271 8.17425 5.19226 8.14841 5.19027C8.12537 5.18874 8.10445 5.19621 8.08566 5.21268C7.97136 5.31129 7.85632 5.41139 7.74054 5.51298C7.72379 5.52991 7.71482 5.55082 7.71365 5.57573C7.71215 5.60047 7.71962 5.62139 7.73606 5.63848C7.75293 5.65823 7.77385 5.66869 7.79881 5.66985C7.82353 5.67129 7.84444 5.66382 7.86155 5.64744C7.97585 5.54586 8.08939 5.44576 8.20219 5.34714C8.22107 5.33115 8.23152 5.31024 8.23357 5.2844ZM9.06275 4.54037C9.0472 4.52018 9.02629 4.50823 9 4.50451C8.97739 4.50139 8.95647 4.50736 8.93725 4.52244C8.81698 4.61581 8.69597 4.70993 8.5742 4.80481C8.55623 4.82198 8.54577 4.8429 8.54283 4.86756C8.54044 4.89179 8.54641 4.91271 8.56076 4.93031C8.57792 4.95131 8.59883 4.96326 8.62351 4.96617C8.64769 4.96854 8.66861 4.96107 8.68626 4.94376C8.80727 4.85038 8.92679 4.75775 9.04482 4.66587C9.06575 4.65026 9.0777 4.62935 9.08068 4.60312C9.08385 4.5805 9.07788 4.55958 9.06275 4.54037ZM9.88297 3.85461C9.86016 3.85133 9.83775 3.85582 9.81574 3.86806C9.69097 3.95694 9.56697 4.04658 9.44373 4.13698C9.42448 4.15155 9.41253 4.17097 9.40787 4.19525C9.40536 4.21983 9.41134 4.24224 9.4258 4.26248C9.44035 4.28252 9.45977 4.29448 9.48406 4.29834C9.50859 4.30158 9.531 4.29561 9.5513 4.28041C9.67306 4.19152 9.79557 4.10337 9.91883 4.01597C9.9402 4.00309 9.95215 3.98367 9.95468 3.9577C9.96097 3.93486 9.95649 3.91245 9.94124 3.89047C9.92838 3.87205 9.90896 3.8601 9.88297 3.85461ZM10.7973 3.24953C10.7749 3.24543 10.7525 3.24991 10.7301 3.26298C10.6023 3.34365 10.4738 3.42582 10.3446 3.50949C10.3241 3.52366 10.3107 3.54309 10.3043 3.56776C10.3009 3.59186 10.3054 3.61427 10.3177 3.63499C10.3326 3.6555 10.352 3.66745 10.376 3.67085C10.4001 3.67791 10.4225 3.67492 10.4432 3.66189C10.571 3.57822 10.698 3.49605 10.8242 3.41537C10.8468 3.40209 10.8603 3.38267 10.8645 3.3571C10.8717 3.33466 10.8687 3.31225 10.8556 3.28987C10.8423 3.27019 10.8229 3.25675 10.7973 3.24953ZM11.7385 2.68928C11.7158 2.68436 11.6934 2.68735 11.6713 2.69824C11.5398 2.77518 11.4084 2.85287 11.2769 2.93131C11.2551 2.94365 11.2402 2.96157 11.2321 2.98509C11.2279 3.00877 11.2324 3.03119 11.2455 3.05232C11.2578 3.07409 11.2757 3.08754 11.2993 3.09266C11.323 3.09979 11.3454 3.09681 11.3665 3.0837C11.498 3.00676 11.6295 2.93056 11.761 2.85511C11.7826 2.8444 11.796 2.82647 11.8013 2.80133C11.8092 2.77854 11.8062 2.75613 11.7923 2.7341C11.7817 2.71243 11.7637 2.69749 11.7385 2.68928ZM12.2495 2.5593C12.2734 2.56649 12.2958 2.5635 12.3167 2.55033C12.4542 2.48088 12.5901 2.41365 12.7246 2.34864C12.7488 2.33769 12.7652 2.31976 12.7739 2.29485C12.7819 2.27348 12.7804 2.25107 12.7694 2.22762C12.7585 2.20638 12.7406 2.19144 12.7156 2.1828C12.6943 2.17483 12.6719 2.17632 12.6484 2.18728C12.5117 2.25374 12.3743 2.32247 12.2361 2.39346C12.2139 2.40616 12.1989 2.42409 12.1912 2.44724C12.184 2.47044 12.1855 2.49285 12.1957 2.51448C12.2084 2.53668 12.2263 2.55162 12.2495 2.5593ZM13.2311 1.91388C13.2085 1.92614 13.1921 1.94407 13.1818 1.96766C13.1745 1.99028 13.176 2.01269 13.1863 2.03489C13.1962 2.05746 13.2127 2.0724 13.2356 2.07971C13.2582 2.09069 13.2806 2.09069 13.3028 2.07971C13.4432 2.01847 13.5837 1.95722 13.7241 1.89595C13.7465 1.88755 13.7615 1.87111 13.7689 1.84665C13.7799 1.82494 13.7799 1.80253 13.7689 1.77942C13.7606 1.75697 13.7441 1.74054 13.7196 1.73011C13.6979 1.72212 13.6755 1.72212 13.6524 1.73011C13.512 1.79136 13.3715 1.85261 13.2311 1.91388ZM14.746 1.32673C14.7238 1.3165 14.7014 1.31501 14.6788 1.32224C14.5346 1.37751 14.3897 1.43279 14.244 1.48808C14.2225 1.49849 14.2061 1.51493 14.1947 1.53738C14.1867 1.56045 14.1867 1.58286 14.1947 1.60461C14.2051 1.62907 14.2215 1.6455 14.244 1.65392C14.2671 1.66489 14.2895 1.66489 14.3113 1.65392C14.4554 1.59864 14.5989 1.54336 14.7415 1.48808C14.7644 1.48076 14.7808 1.46582 14.7908 1.44326C14.8011 1.42111 14.8011 1.3987 14.7908 1.37603C14.7836 1.35319 14.7686 1.33675 14.746 1.32673ZM15.8307 1.10262C15.8439 1.0818 15.8469 1.05939 15.8396 1.03539C15.8327 1.01223 15.8178 0.994306 15.7948 0.981607C15.774 0.971429 15.7515 0.969934 15.7276 0.977124C15.5812 1.02193 15.4348 1.06825 15.2883 1.11607C15.2643 1.12384 15.2464 1.13878 15.2346 1.16089C15.2236 1.18262 15.2221 1.20503 15.2301 1.22812C15.2378 1.25215 15.2528 1.27008 15.2749 1.28191C15.2967 1.29285 15.3191 1.29435 15.3421 1.28639C15.4885 1.23858 15.635 1.19226 15.7814 1.14744C15.8046 1.14051 15.821 1.12557 15.8307 1.10262ZM16.9019 0.744057C16.8976 0.721378 16.8842 0.70345 16.8616 0.690272C16.8421 0.677164 16.8197 0.672682 16.7943 0.676826C16.6449 0.714153 16.494 0.752998 16.3416 0.79336C16.3194 0.801612 16.3015 0.816552 16.2878 0.83818C16.2777 0.860264 16.2762 0.882674 16.2834 0.905411C16.2894 0.930623 16.3028 0.948551 16.3237 0.959196C16.3458 0.973098 16.3682 0.976086 16.3909 0.96816C16.5403 0.927833 16.6882 0.888989 16.8347 0.851626C16.8603 0.847343 16.8797 0.833897 16.8929 0.811288C16.906 0.791807 16.909 0.769397 16.9019 0.744057ZM17.9731 0.510989C17.9698 0.487096 17.9578 0.467674 17.9373 0.452722C17.9166 0.440432 17.8942 0.435949 17.87 0.439276C17.7199 0.470639 17.569 0.502013 17.4173 0.533399C17.3948 0.539831 17.3769 0.553277 17.3635 0.573738C17.3505 0.595285 17.346 0.617695 17.3501 0.640969C17.3565 0.666496 17.37 0.685918 17.3904 0.699236C17.412 0.712309 17.4344 0.715297 17.4577 0.7082C17.6078 0.676826 17.7572 0.645451 17.9059 0.614077C17.9298 0.610715 17.9477 0.598763 17.9597 0.57822C17.975 0.557584 17.9794 0.535174 17.9731 0.510989ZM19.0264 0.273439C19.007 0.258289 18.9846 0.252313 18.9592 0.255511C18.8075 0.277174 18.6566 0.299585 18.5065 0.322742C18.4821 0.328135 18.4627 0.340087 18.4482 0.358599C18.4337 0.37962 18.4278 0.40203 18.4303 0.42583C18.4356 0.450154 18.4476 0.469577 18.4661 0.484097C18.4872 0.499282 18.5096 0.505258 18.5334 0.502025C18.682 0.478121 18.8314 0.45571 18.9816 0.434794C19.008 0.431 19.0289 0.419048 19.0443 0.398937C19.0595 0.379608 19.0655 0.357198 19.0623 0.331706C19.0585 0.308315 19.0465 0.288893 19.0264 0.273439ZM20.1559 0.201726C20.1531 0.17718 20.1411 0.156263 20.12 0.138977C20.1026 0.124691 20.0817 0.118714 20.0573 0.121049C19.9011 0.135977 19.7458 0.152412 19.5911 0.170352C19.5687 0.173293 19.5493 0.183751 19.5329 0.201726C19.5185 0.223109 19.5125 0.24552 19.5149 0.268957C19.5179 0.294414 19.5283 0.313836 19.5463 0.327224C19.5677 0.344557 19.5901 0.352027 19.6135 0.349635C19.7667 0.331706 19.9206 0.315272 20.0752 0.300332C20.0997 0.297484 20.1191 0.285532 20.1335 0.264475C20.1508 0.247037 20.1582 0.226121 20.1559 0.201726ZM21.1733 0.215172C21.1983 0.21397 21.2192 0.203512 21.2361 0.183798C21.2525 0.166675 21.26 0.145759 21.2585 0.121049C21.2573 0.096059 21.2468 0.0751427 21.2271 0.0582999C21.2099 0.0418773 21.189 0.0344072 21.1643 0.0358895C21.0082 0.044842 20.8528 0.0553002 20.6982 0.067264C20.6754 0.0692833 20.6559 0.0797415 20.6399 0.0986385C20.6234 0.117419 20.616 0.138335 20.6175 0.161388C20.6195 0.187264 20.63 0.208181 20.6489 0.224137C20.6677 0.240617 20.6886 0.248088 20.7117 0.246547C20.8648 0.234606 21.0187 0.224148 21.1733 0.215172ZM22.3566 0.0851923C22.3563 0.0620349 22.3473 0.0411186 22.3297 0.0224433C22.3114 0.0069078 22.289 -0.000562324 22.2625 3.29512e-05C22.1116 0.003021 21.9592 0.00600905 21.8053 0.00899709C21.7821 0.0092889 21.7612 0.018253 21.7425 0.0358895C21.727 0.0541563 21.7195 0.0750726 21.7201 0.0986385C21.7204 0.124784 21.7294 0.1457 21.747 0.161388C21.7653 0.179911 21.7862 0.188875 21.8098 0.18828C21.9636 0.185292 22.116 0.182304 22.2669 0.179316C22.2931 0.179024 22.314 0.17006 22.3297 0.152423C22.3482 0.134157 22.3572 0.111746 22.3566 0.0851923ZM23.3606 0.0403716C23.3459 0.0235638 23.3264 0.0145997 23.3023 0.0134792C23.1492 0.0074914 22.9953 0.00300933 22.8406 3.29512e-05C22.8171 -0.000562324 22.7962 0.0069078 22.7779 0.0224433C22.7602 0.0411186 22.7513 0.0620349 22.751 0.0851923C22.7504 0.111746 22.7578 0.134157 22.7734 0.152423C22.7921 0.17006 22.813 0.179024 22.8362 0.179316C22.9893 0.182304 23.1417 0.186786 23.2933 0.192762C23.3181 0.193427 23.3391 0.184463 23.3561 0.16587C23.3759 0.151116 23.3863 0.131694 23.3875 0.107603C23.3881 0.0827412 23.3792 0.0603308 23.3606 0.0403716ZM24.4766 0.16587C24.4781 0.142817 24.4707 0.121901 24.4542 0.103121C24.4382 0.0842235 24.4173 0.0737654 24.3914 0.0717461C24.2398 0.0597822 24.0874 0.0493241 23.9343 0.0403716C23.9096 0.0388892 23.8872 0.0463594 23.867 0.062782C23.8503 0.0796364 23.8413 0.100553 23.8401 0.125531C23.8386 0.150241 23.8461 0.171157 23.8626 0.18828C23.8794 0.207994 23.9003 0.218452 23.9253 0.219654C24.0769 0.228619 24.2278 0.239077 24.378 0.251029C24.4041 0.25257 24.4265 0.2451 24.4452 0.228619C24.4641 0.212663 24.4746 0.191747 24.4766 0.16587ZM25.5433 0.206208C25.5299 0.188233 25.5105 0.177775 25.4851 0.174834C25.3334 0.156894 25.181 0.14046 25.0279 0.125531C25.0035 0.123185 24.9811 0.129161 24.9607 0.143459C24.9426 0.160722 24.9321 0.181639 24.9293 0.206208C24.9269 0.230568 24.9329 0.251484 24.9472 0.268957C24.9645 0.290002 24.9854 0.301954 25.01 0.304814C25.1616 0.319754 25.3125 0.336188 25.4626 0.354117C25.4891 0.356509 25.5115 0.349039 25.5299 0.331706C25.5509 0.318318 25.5628 0.298896 25.5657 0.273439C25.5682 0.250002 25.5607 0.227591 25.5433 0.206208ZM26.5428 0.515471C26.5687 0.521751 26.5911 0.517269 26.6101 0.502025C26.6315 0.489139 26.6434 0.469717 26.6459 0.443758C26.6522 0.420881 26.6477 0.39847 26.6325 0.376527C26.6196 0.358097 26.6001 0.346145 26.5742 0.34067C26.4256 0.314513 26.2747 0.289115 26.1215 0.264475C26.0969 0.26123 26.0745 0.267206 26.0543 0.282403C26.035 0.296959 26.023 0.316381 26.0184 0.34067C26.0159 0.365252 26.0219 0.387662 26.0364 0.407901C26.0509 0.427919 26.0703 0.439871 26.0946 0.443758C26.2463 0.466915 26.3957 0.49082 26.5428 0.515471ZM27.7171 0.658897C27.7242 0.635623 27.7213 0.613213 27.7082 0.591666C27.6948 0.571205 27.6754 0.557759 27.6499 0.551328C27.5012 0.519942 27.3518 0.488567 27.2017 0.457204C27.1775 0.453878 27.1551 0.45836 27.1345 0.47065C27.1139 0.485602 27.1005 0.505025 27.0941 0.528917C27.0908 0.553102 27.0953 0.575512 27.1076 0.596148C27.1225 0.616691 27.1419 0.628643 27.1658 0.632005C27.3145 0.66338 27.4624 0.694754 27.6096 0.726129C27.6358 0.733225 27.6597 0.730237 27.6813 0.717164C27.7017 0.703847 27.7137 0.684424 27.7171 0.658897ZM28.1788 0.829216C28.191 0.850938 28.209 0.864384 28.2326 0.869555C28.3812 0.909146 28.5276 0.949485 28.6718 0.990571C28.6968 0.997761 28.7192 0.994773 28.739 0.981607C28.7622 0.970997 28.7771 0.953068 28.7839 0.927822C28.7911 0.905867 28.7881 0.883456 28.7749 0.860591C28.7643 0.84048 28.7463 0.827033 28.7211 0.820252C28.5754 0.777672 28.4275 0.73584 28.2774 0.694754C28.2538 0.690599 28.2313 0.695081 28.2102 0.7082C28.1884 0.720479 28.1735 0.738407 28.1653 0.761985C28.1612 0.785644 28.1656 0.808055 28.1788 0.829216ZM44.1081 28.9946C44.1153 28.9726 44.1123 28.9502 44.0991 28.9273C44.0885 28.9072 44.0706 28.8938 44.0453 28.887C44.0234 28.8798 44.001 28.8813 43.9781 28.8915C43.958 28.9051 43.9445 28.923 43.9377 28.9452C43.8959 29.0924 43.8526 29.2388 43.8078 29.3845C43.8006 29.4084 43.8021 29.4309 43.8123 29.4517C43.825 29.4747 43.8429 29.4896 43.866 29.4965C43.89 29.5038 43.9124 29.5008 43.9333 29.4876C43.9562 29.4779 43.9712 29.4615 43.9781 29.4383C44.0229 29.2911 44.0662 29.1432 44.1081 28.9946ZM44.3904 27.9323C44.3976 27.9099 44.3946 27.8875 44.3815 27.8651C44.3683 27.8455 44.3489 27.832 44.3232 27.8247C44.3009 27.8206 44.2784 27.8251 44.256 27.8382C44.2364 27.8514 44.2229 27.8693 44.2156 27.892C44.1813 28.0421 44.1439 28.19 44.1036 28.3357C44.0987 28.3593 44.1017 28.3817 44.1126 28.4029C44.127 28.4246 44.1465 28.4381 44.1708 28.4433C44.1944 28.4512 44.2168 28.4482 44.238 28.4343C44.2597 28.4228 44.2732 28.4049 44.2784 28.3805C44.3187 28.2334 44.3561 28.084 44.3904 27.9323ZM44.489 27.3631C44.5096 27.3511 44.5215 27.3332 44.5249 27.3093C44.5563 27.1591 44.5847 27.0082 44.6101 26.8566C44.6163 26.8337 44.6119 26.8113 44.5966 26.7894C44.5837 26.7709 44.5643 26.759 44.5383 26.7535C44.5155 26.7502 44.4931 26.7547 44.4711 26.767C44.4527 26.7829 44.4407 26.8023 44.4353 26.8252C44.4099 26.9754 44.3815 27.1248 44.3501 27.2734C44.3468 27.2976 44.3513 27.32 44.3635 27.3407C44.3785 27.3612 44.3979 27.3732 44.4218 27.3765C44.446 27.3829 44.4684 27.3784 44.489 27.3631ZM44.7893 25.7719C44.7925 25.7495 44.7866 25.7285 44.7714 25.7092C44.756 25.6891 44.7351 25.6771 44.7087 25.6733C44.6862 25.6701 44.6652 25.6761 44.6459 25.6913C44.6258 25.7067 44.6139 25.7261 44.6101 25.7495C44.5899 25.9027 44.5675 26.0536 44.5428 26.2022C44.5403 26.226 44.5463 26.2469 44.5608 26.265C44.5753 26.2865 44.5947 26.2984 44.619 26.3008C44.6428 26.3063 44.6637 26.3018 44.6818 26.2874C44.704 26.2729 44.7175 26.2535 44.7221 26.2291C44.746 26.079 44.7684 25.9266 44.7893 25.7719ZM44.9104 24.6828C44.9119 24.6597 44.9044 24.6388 44.8879 24.6201C44.872 24.6011 44.8511 24.5907 44.8252 24.5887C44.8021 24.5871 44.7812 24.5946 44.7625 24.6111C44.7436 24.6271 44.7331 24.6465 44.7311 24.6694C44.7191 24.8225 44.7057 24.9734 44.6907 25.122C44.6884 25.1464 44.6944 25.1673 44.7087 25.1848C44.7259 25.2058 44.7468 25.2178 44.7714 25.2206C44.7958 25.223 44.8167 25.2155 44.8342 25.1982C44.8552 25.1839 44.8671 25.1645 44.87 25.14C44.885 24.9898 44.8984 24.8374 44.9104 24.6828ZM44.9776 23.5937C44.9783 23.5688 44.9693 23.5464 44.9507 23.5264C44.9359 23.5096 44.9165 23.5006 44.8924 23.4995C44.8676 23.4988 44.8452 23.5063 44.8252 23.5219C44.8084 23.5396 44.7994 23.5606 44.7983 23.5847C44.7923 23.7371 44.7849 23.8895 44.7759 24.0419C44.7744 24.0666 44.7819 24.0875 44.7983 24.1046C44.8152 24.1244 44.8361 24.1348 44.8611 24.136C44.8858 24.1375 44.9067 24.13 44.9238 24.1136C44.9435 24.0967 44.954 24.0758 44.9552 24.0508C44.9641 23.8984 44.9716 23.746 44.9776 23.5937ZM45 22.5C44.9998 22.4755 44.9908 22.4546 44.9731 22.4373C44.9558 22.4196 44.9349 22.4106 44.9104 22.4104C44.8858 22.4106 44.8649 22.4196 44.8476 22.4373C44.8299 22.4546 44.8209 22.4755 44.8207 22.5C44.8207 22.6517 44.8192 22.8026 44.8162 22.9527C44.8156 22.9793 44.8231 23.0017 44.8386 23.02C44.8573 23.0376 44.8782 23.0466 44.9014 23.0468C44.9279 23.0475 44.9504 23.0385 44.9686 23.02C44.9863 23.0043 44.9952 22.9833 44.9955 22.9572C44.9985 22.8056 45 22.6532 45 22.5ZM44.9821 21.5409C44.9809 21.5167 44.9705 21.4958 44.9507 21.4781C44.9337 21.4625 44.9128 21.455 44.8879 21.4557C44.8639 21.4568 44.843 21.4658 44.8252 21.4826C44.8096 21.5026 44.8021 21.525 44.8028 21.5498C44.8088 21.7015 44.8132 21.8539 44.8162 22.007C44.8165 22.0332 44.8255 22.0541 44.8431 22.0698C44.8614 22.0883 44.8823 22.0973 44.9059 22.0966C44.932 22.0964 44.9529 22.0874 44.9686 22.0698C44.9871 22.0515 44.9961 22.0291 44.9955 22.0025C44.9925 21.8479 44.988 21.694 44.9821 21.5409ZM44.9193 20.4383C44.9173 20.4154 44.9068 20.396 44.8879 20.38C44.8692 20.3635 44.8468 20.356 44.8207 20.3576C44.7978 20.3596 44.7784 20.3701 44.7625 20.389C44.746 20.4077 44.7385 20.4286 44.74 20.4517C44.752 20.6049 44.7624 20.7587 44.7714 20.9134C44.7726 20.9384 44.7816 20.9593 44.7983 20.9761C44.8184 20.9926 44.8408 21 44.8655 20.9985C44.8905 20.9974 44.9114 20.9869 44.9283 20.9672C44.9447 20.95 44.9522 20.9291 44.9507 20.9044C44.9417 20.7483 44.9313 20.5929 44.9193 20.4383ZM44.8028 19.3357C44.799 19.3123 44.787 19.2928 44.7669 19.2774C44.7476 19.2623 44.7252 19.2563 44.6997 19.2595C44.6763 19.2633 44.6569 19.2752 44.6414 19.2954C44.6263 19.3147 44.6203 19.3356 44.6235 19.3581C44.6444 19.512 44.6638 19.6659 44.6818 19.8198C44.6847 19.8452 44.6952 19.8647 44.7131 19.878C44.7345 19.8954 44.7569 19.9028 44.7804 19.9004C44.8058 19.8975 44.8253 19.8856 44.8386 19.8646C44.856 19.8462 44.8635 19.8238 44.8611 19.7973C44.8431 19.6434 44.8237 19.4896 44.8028 19.3357ZM44.6952 18.7665C44.7104 18.7462 44.7164 18.7238 44.7131 18.6992C44.6885 18.5461 44.6616 18.3937 44.6325 18.2421C44.63 18.2191 44.618 18.1997 44.5966 18.1838C44.5777 18.1715 44.5553 18.167 44.5294 18.1704C44.5064 18.1758 44.487 18.1878 44.4711 18.2062C44.4589 18.2281 44.4544 18.2505 44.4577 18.2734C44.4853 18.4236 44.5107 18.5745 44.5339 18.7261C44.5377 18.7504 44.5497 18.7698 44.5697 18.7844C44.59 18.7989 44.6124 18.8033 44.637 18.7978C44.6612 18.7962 44.6807 18.7858 44.6952 18.7665ZM41.2664 34.8212C41.2474 34.809 41.225 34.8045 41.1992 34.8078C41.1762 34.8133 41.1568 34.8253 41.1409 34.8437C41.0558 34.9706 40.9676 35.0961 40.8765 35.2201C40.8643 35.242 40.8598 35.2644 40.863 35.2874C40.8685 35.3125 40.8804 35.3319 40.8989 35.3456C40.9207 35.3601 40.9431 35.3646 40.9661 35.3591C40.992 35.3567 41.0114 35.3447 41.0244 35.3232C41.1155 35.1992 41.2037 35.0737 41.2888 34.9467C41.3041 34.9277 41.3086 34.9053 41.3023 34.8795C41.2998 34.8565 41.2878 34.8371 41.2664 34.8212ZM41.7371 33.9248C41.6564 34.057 41.5742 34.187 41.4905 34.3148C41.4775 34.3355 41.473 34.3579 41.4771 34.382C41.4835 34.406 41.4969 34.4239 41.5174 34.4358C41.5381 34.4511 41.5606 34.4556 41.5847 34.4492C41.6093 34.4458 41.6288 34.4339 41.6429 34.4134C41.7266 34.2842 41.8088 34.1527 41.8894 34.019C41.9025 33.9995 41.9055 33.9771 41.8984 33.9517C41.8941 33.9291 41.8807 33.9111 41.8581 33.8979C41.8386 33.8848 41.8162 33.8803 41.7908 33.8845C41.7682 33.8918 41.7503 33.9052 41.7371 33.9248ZM42.4318 33.0598C42.4449 33.039 42.4479 33.0166 42.4407 32.9926C42.4339 32.9694 42.4189 32.9515 42.3959 32.9388C42.3751 32.9286 42.3527 32.9271 42.3287 32.9343C42.3056 32.9412 42.2877 32.9546 42.2749 32.9746C42.2047 33.1106 42.1315 33.2451 42.0553 33.378C42.0451 33.4009 42.0436 33.4233 42.0508 33.4453C42.0576 33.4705 42.071 33.4884 42.0911 33.499C42.114 33.5122 42.1364 33.5152 42.1584 33.508C42.1836 33.5012 42.2015 33.4863 42.2122 33.4632C42.2883 33.3302 42.3616 33.1957 42.4318 33.0598ZM42.8217 31.9572C42.7998 31.9659 42.7834 31.9808 42.7724 32.002C42.7067 32.1402 42.6394 32.2762 42.5707 32.4099C42.5598 32.4316 42.5583 32.454 42.5662 32.4771C42.574 32.5011 42.5889 32.5191 42.6111 32.5309C42.6328 32.5419 42.6552 32.5434 42.6783 32.5354C42.7023 32.5276 42.7202 32.5127 42.7321 32.4906C42.8008 32.3554 42.868 32.2179 42.9338 32.0782C42.9447 32.0577 42.9462 32.0353 42.9382 32.011C42.9296 31.989 42.9132 31.9726 42.8889 31.9617C42.8685 31.9507 42.8461 31.9492 42.8217 31.9572ZM43.261 30.9577C43.2386 30.969 43.2221 30.9854 43.2117 31.007C43.1564 31.1482 43.0966 31.2886 43.0324 31.4283C43.0244 31.4505 43.0244 31.473 43.0324 31.4955C43.0427 31.5184 43.0591 31.5349 43.0817 31.5449C43.1039 31.5551 43.1263 31.5551 43.1489 31.5449C43.1725 31.5375 43.1889 31.5226 43.1982 31.5C43.2625 31.3588 43.3222 31.2169 43.3775 31.0742C43.3885 31.0526 43.3885 31.0302 43.3775 31.007C43.3691 30.9846 43.3527 30.9681 43.3282 30.9577C43.3065 30.9497 43.2841 30.9497 43.261 30.9577ZM43.4492 30.4826C43.4592 30.5052 43.4757 30.5201 43.4985 30.5274C43.5212 30.5377 43.5436 30.5377 43.5657 30.5274C43.5883 30.5174 43.6032 30.501 43.6106 30.4781C43.6666 30.3339 43.7204 30.189 43.7719 30.0434C43.7799 30.0221 43.7784 29.9997 43.7674 29.9761C43.7565 29.9549 43.7386 29.94 43.7136 29.9313C43.6923 29.9233 43.6699 29.9248 43.6464 29.9358C43.6252 29.9466 43.6103 29.9631 43.6016 29.9851C43.5515 30.1293 43.4992 30.2727 43.4447 30.4154C43.4375 30.438 43.439 30.4604 43.4492 30.4826ZM42.7948 12.9936C42.7868 13.0171 42.7883 13.0395 42.7993 13.0608C42.8643 13.202 42.927 13.3424 42.9875 13.4821C42.9998 13.5046 43.0177 13.5196 43.0413 13.5269C43.064 13.5372 43.0864 13.5372 43.1086 13.5269C43.1311 13.5169 43.1461 13.5005 43.1534 13.4776C43.1644 13.455 43.1644 13.4326 43.1534 13.4104C43.0914 13.2692 43.0271 13.1273 42.9607 12.9846C42.9505 12.9634 42.9341 12.9485 42.9114 12.9398C42.8878 12.9318 42.8639 12.9333 42.8396 12.9443C42.8185 12.9544 42.8035 12.9708 42.7948 12.9936ZM42.3063 12.0165C42.2991 12.0405 42.3006 12.0629 42.3108 12.0837C42.3832 12.2189 42.4534 12.3534 42.5214 12.4871C42.5333 12.5092 42.5512 12.5241 42.5752 12.5319C42.5983 12.5399 42.6207 12.5384 42.6424 12.5274C42.6646 12.5156 42.6795 12.4976 42.6873 12.4736C42.6952 12.4505 42.6937 12.4281 42.6828 12.4064C42.6133 12.2712 42.5416 12.1352 42.4676 11.9985C42.4579 11.9785 42.4414 11.9651 42.4183 11.9582C42.3943 11.951 42.3704 11.9525 42.3466 11.9627C42.3266 11.9754 42.3132 11.9933 42.3063 12.0165ZM41.5936 10.497C41.5092 10.3685 41.4241 10.2416 41.3381 10.1161C41.3262 10.0956 41.3082 10.0821 41.2844 10.0757C41.2602 10.0724 41.2378 10.0769 41.2171 10.0892C41.1966 10.1041 41.1831 10.1235 41.1768 10.1474C41.1735 10.1716 41.1779 10.194 41.1902 10.2147C41.2746 10.3402 41.3583 10.4672 41.4412 10.5956C41.4554 10.6161 41.4748 10.6281 41.4995 10.6315C41.5236 10.6379 41.546 10.6334 41.5667 10.6181C41.5872 10.6062 41.5992 10.5882 41.6026 10.5643C41.6097 10.5402 41.6067 10.5178 41.5936 10.497ZM40.9885 9.65441C40.9918 9.62989 40.9858 9.60748 40.9706 9.58718C40.881 9.46467 40.7899 9.34216 40.6972 9.21965C40.6817 9.19955 40.6608 9.1876 40.6345 9.1838C40.612 9.18059 40.591 9.18656 40.5717 9.20173C40.5516 9.21717 40.5396 9.23659 40.5359 9.25999C40.5327 9.28545 40.5387 9.30786 40.5538 9.32722C40.6464 9.44973 40.7376 9.57224 40.8272 9.69475C40.8418 9.71474 40.8612 9.72669 40.8855 9.73061C40.91 9.73387 40.9325 9.72789 40.9527 9.71268C40.9727 9.69811 40.9847 9.67869 40.9885 9.65441ZM41.8132 11.0125C41.7915 11.0248 41.7765 11.0427 41.7684 11.0663C41.7643 11.0899 41.7688 11.1123 41.7819 11.1335C41.8588 11.265 41.9335 11.3964 42.006 11.5279C42.0197 11.5496 42.0376 11.563 42.0598 11.5683C42.0855 11.5762 42.1094 11.5732 42.1315 11.5593C42.1532 11.5486 42.1666 11.5307 42.1718 11.5055C42.1797 11.4828 42.1767 11.4604 42.1629 11.4383C42.0889 11.3068 42.0127 11.1753 41.9343 11.0439C41.9219 11.0221 41.904 11.0072 41.8805 10.999C41.8568 10.9949 41.8344 10.9993 41.8132 11.0125ZM29.3352 0.999535C29.3112 0.992345 29.2873 0.993839 29.2634 1.00402C29.2435 1.01672 29.23 1.03464 29.2231 1.0578C29.2159 1.0818 29.2174 1.10421 29.2276 1.12503C29.2402 1.14798 29.2582 1.16292 29.2814 1.16985C29.427 1.21467 29.5705 1.26099 29.7117 1.3088C29.7369 1.31677 29.7608 1.31528 29.7834 1.30432C29.8055 1.29327 29.8204 1.27535 29.8282 1.25053C29.8362 1.22825 29.8347 1.20584 29.8237 1.1833C29.8126 1.1612 29.7947 1.14626 29.7699 1.13848C29.6273 1.09066 29.4823 1.04434 29.3352 0.999535ZM30.8591 1.63599C30.8701 1.61423 30.8701 1.59182 30.8591 1.56876C30.8507 1.5463 30.8342 1.52987 30.8098 1.51946C30.6671 1.46416 30.5237 1.40889 30.3795 1.35362C30.3568 1.34638 30.3344 1.34788 30.3123 1.3581C30.2897 1.36813 30.2732 1.38456 30.2629 1.4074C30.2557 1.43007 30.2572 1.45248 30.2674 1.47463C30.2774 1.4972 30.2939 1.51214 30.3167 1.51946C30.4594 1.57473 30.6013 1.63001 30.7425 1.68529C30.7673 1.69626 30.7912 1.69626 30.8142 1.68529C30.8367 1.67688 30.8517 1.66044 30.8591 1.63599ZM31.3386 1.92732C31.4783 1.98786 31.6173 2.0506 31.7555 2.11557C31.7798 2.12654 31.8037 2.12804 31.8272 2.12005C31.85 2.11136 31.8664 2.09492 31.8765 2.07075C31.8875 2.04947 31.889 2.02706 31.881 2.00352C31.8722 1.98079 31.8558 1.96436 31.8317 1.95422C31.692 1.88771 31.5515 1.82347 31.4104 1.76149C31.3872 1.75349 31.3633 1.75349 31.3386 1.76149C31.3171 1.77191 31.3007 1.78834 31.2893 1.81079C31.2813 1.8339 31.2813 1.85631 31.2893 1.87802C31.2998 1.90249 31.3162 1.91892 31.3386 1.92732ZM35.1126 4.007C35.118 4.03282 35.1299 4.05225 35.1484 4.06527C35.2746 4.15566 35.3986 4.2453 35.5204 4.3342C35.5407 4.34939 35.5631 4.35537 35.5877 4.35212C35.6119 4.34826 35.6314 4.33631 35.6459 4.31627C35.6611 4.29603 35.6671 4.27362 35.6638 4.24904C35.6599 4.22476 35.648 4.20534 35.628 4.19077C35.5047 4.10038 35.3792 4.00925 35.2515 3.91736C35.2327 3.90517 35.2102 3.90068 35.1843 3.90392C35.1621 3.90932 35.1442 3.92127 35.1305 3.93977C35.116 3.96159 35.11 3.984 35.1126 4.007ZM32.8715 2.49655C32.8646 2.47339 32.8496 2.45546 32.8267 2.44276C32.69 2.3718 32.5525 2.30158 32.4143 2.2321C32.3918 2.22116 32.3679 2.21966 32.3426 2.22762C32.3208 2.23541 32.3044 2.25035 32.2933 2.27244C32.2824 2.29498 32.2809 2.31739 32.2888 2.33967C32.2967 2.36445 32.3116 2.38238 32.3337 2.39346C32.4711 2.46144 32.6086 2.53016 32.746 2.59963C32.7677 2.6128 32.7901 2.61579 32.8132 2.6086C32.8364 2.60092 32.8529 2.58598 32.8626 2.56378C32.8758 2.54215 32.8787 2.51974 32.8715 2.49655ZM34.3372 3.31228C34.3177 3.29921 34.2953 3.29473 34.2699 3.29884C34.2473 3.30605 34.2294 3.3195 34.2161 3.33918C34.203 3.36155 34.1986 3.38396 34.2027 3.40641C34.2099 3.43197 34.2234 3.45139 34.243 3.46467C34.3723 3.54535 34.5007 3.62752 34.6285 3.71119C34.6492 3.72423 34.6716 3.72721 34.6957 3.72015C34.7197 3.71676 34.7376 3.7048 34.7495 3.6843C34.7648 3.66358 34.7693 3.64117 34.7629 3.61706C34.7595 3.59239 34.7476 3.57297 34.7271 3.5588C34.5979 3.47512 34.4679 3.39295 34.3372 3.31228ZM33.8352 3.0344C33.83 3.01088 33.8166 2.99295 33.7948 2.98061C33.6626 2.90216 33.5281 2.82447 33.3914 2.74754C33.3715 2.73739 33.3491 2.73589 33.3242 2.74306C33.3019 2.74983 33.284 2.76328 33.2704 2.7834C33.2602 2.80626 33.2587 2.82868 33.2659 2.85063C33.2727 2.87583 33.2862 2.89376 33.3063 2.90442C33.4415 2.97988 33.5744 3.05607 33.7052 3.133C33.7263 3.14611 33.7488 3.1491 33.7724 3.14196C33.796 3.13684 33.8139 3.12339 33.8262 3.10163C33.8393 3.08049 33.8423 3.05808 33.8352 3.0344ZM39.8591 8.40392C39.8567 8.42982 39.8627 8.45223 39.877 8.47115C39.9771 8.58693 40.0742 8.70347 40.1683 8.82075C40.1855 8.8417 40.2064 8.85365 40.2311 8.85661C40.2553 8.859 40.2762 8.85153 40.2938 8.8342C40.3148 8.82004 40.3268 8.80062 40.3297 8.77593C40.3321 8.75174 40.3246 8.72933 40.3073 8.7087C40.2131 8.58991 40.116 8.47188 40.0159 8.35461C40.0008 8.3358 39.9799 8.32534 39.9532 8.32324C39.9302 8.32092 39.9093 8.32689 39.8904 8.34117C39.8716 8.35928 39.8611 8.3802 39.8591 8.40392ZM38.8954 7.12653C38.896 7.10384 38.8871 7.08292 38.8685 7.06378C38.7647 6.95396 38.6586 6.84489 38.5503 6.73659C38.533 6.71887 38.5121 6.7099 38.4876 6.70969C38.463 6.7099 38.4421 6.71887 38.4248 6.73659C38.4071 6.75387 38.3981 6.77479 38.3979 6.79934C38.3981 6.82388 38.4071 6.8448 38.4248 6.86208C38.5316 6.96892 38.6362 7.07649 38.7385 7.18479C38.7572 7.20461 38.7781 7.21507 38.8013 7.21617C38.827 7.21682 38.8479 7.20786 38.864 7.18928C38.8839 7.17366 38.8944 7.15274 38.8954 7.12653ZM39.3033 7.52543C39.2864 7.50868 39.2654 7.49972 39.2405 7.49854C39.2158 7.49704 39.1934 7.50451 39.1733 7.52095C39.1565 7.53783 39.1476 7.55874 39.1464 7.5837C39.145 7.60842 39.1524 7.62934 39.1688 7.64645C39.2704 7.76074 39.3705 7.87429 39.4691 7.98708C39.4851 8.00596 39.5045 8.01642 39.5274 8.01846C39.5535 8.02 39.5759 8.01253 39.5946 7.99605C39.6136 7.98006 39.624 7.95914 39.626 7.9333C39.6275 7.91026 39.6201 7.88934 39.6036 7.87055C39.505 7.75626 39.4049 7.64122 39.3033 7.52543ZM36.8471 5.35163C36.8491 5.3774 36.8596 5.39831 36.8785 5.41438C36.9943 5.51597 37.1093 5.61906 37.2236 5.72364C37.2437 5.74004 37.2661 5.74751 37.2908 5.74605C37.3158 5.74488 37.3367 5.73442 37.3536 5.71467C37.37 5.69759 37.3775 5.67667 37.376 5.65192C37.3748 5.62701 37.3643 5.60609 37.3446 5.58918C37.2288 5.48459 37.1123 5.38151 36.995 5.27991C36.9763 5.26349 36.9539 5.25602 36.9278 5.2575C36.905 5.25946 36.8855 5.26992 36.8695 5.28888C36.8531 5.30758 36.8456 5.32849 36.8471 5.35163ZM36.511 4.98858C36.5283 4.97098 36.5358 4.95006 36.5334 4.92583C36.5304 4.90117 36.5185 4.88025 36.4975 4.86308C36.3795 4.76896 36.26 4.67334 36.1389 4.57623C36.1213 4.56189 36.1004 4.55592 36.0762 4.5583C36.0515 4.56119 36.0306 4.57165 36.0134 4.58967C35.9991 4.61026 35.9931 4.63267 35.9955 4.65691C35.9985 4.68157 36.0089 4.70099 36.0269 4.71517C36.1479 4.81228 36.2674 4.9079 36.3855 5.00202C36.4061 5.01933 36.4285 5.0268 36.4527 5.02443C36.4774 5.02153 36.4968 5.00958 36.511 4.98858ZM38.1469 6.46318C38.1646 6.44589 38.1736 6.42498 38.1738 6.40043C38.1736 6.37588 38.1646 6.35497 38.1469 6.33768C38.0356 6.22635 37.9221 6.11729 37.8063 6.01049C37.7893 5.99489 37.7683 5.98742 37.7435 5.98808C37.7194 5.98919 37.6985 5.99815 37.6808 6.01497C37.6651 6.03493 37.6577 6.05734 37.6584 6.0822C37.6595 6.10626 37.6685 6.12568 37.6853 6.14047C37.7995 6.24582 37.9116 6.35339 38.0214 6.46318C38.0387 6.4809 38.0596 6.48986 38.0842 6.49007C38.1087 6.48986 38.1296 6.4809 38.1469 6.46318ZM44.3725 17.7042C44.3941 17.7173 44.4165 17.7203 44.4397 17.7132C44.4653 17.7097 44.4847 17.6978 44.498 17.6773C44.5111 17.6558 44.5141 17.6319 44.507 17.6056C44.4756 17.4577 44.4412 17.3083 44.4039 17.1574C44.3996 17.1348 44.3862 17.1168 44.3635 17.1036C44.3441 17.0905 44.3217 17.086 44.2963 17.0902C44.2736 17.0974 44.2557 17.1109 44.2425 17.1305C44.2294 17.1529 44.2249 17.1753 44.2291 17.1977C44.2664 17.3486 44.3008 17.498 44.3322 17.6459C44.3386 17.6715 44.3521 17.6909 44.3725 17.7042ZM44.0857 16.0324C44.0658 16.0222 44.0434 16.0207 44.0184 16.0279C43.9962 16.0347 43.9782 16.0481 43.9646 16.0683C43.9545 16.0911 43.953 16.1135 43.9602 16.1355C44.0012 16.2827 44.0401 16.4306 44.0767 16.5792C44.0849 16.6028 44.0998 16.6208 44.1215 16.633C44.1427 16.6461 44.1651 16.6491 44.1887 16.642C44.2123 16.6368 44.2303 16.6234 44.2425 16.6016C44.2556 16.5804 44.2586 16.558 44.2515 16.5344C44.2134 16.3842 44.1731 16.2348 44.1305 16.0862C44.1237 16.064 44.1088 16.046 44.0857 16.0324ZM43.9422 15.4721C43.8944 15.325 43.8451 15.1786 43.7943 15.0329C43.7856 15.0109 43.7692 14.9944 43.745 14.9836C43.7245 14.9726 43.7021 14.9711 43.6778 14.9791C43.6558 14.9878 43.6394 15.0027 43.6285 15.0239C43.6175 15.0475 43.616 15.0699 43.624 15.0912C43.6748 15.2354 43.7241 15.3803 43.7719 15.5259C43.7797 15.55 43.7946 15.5679 43.8167 15.5797C43.8385 15.5907 43.8609 15.5922 43.884 15.5842C43.908 15.5764 43.9259 15.5615 43.9377 15.5394C43.9487 15.5176 43.9502 15.4952 43.9422 15.4721ZM43.5702 14.4951C43.5804 14.4729 43.5804 14.4505 43.5702 14.4278C43.5179 14.2836 43.4627 14.1402 43.4044 13.9975C43.3969 13.976 43.382 13.9595 43.3596 13.9482C43.3364 13.9402 43.3125 13.9402 43.2878 13.9482C43.2663 13.9587 43.2499 13.9751 43.2385 13.9975C43.2306 14.0207 43.2306 14.0431 43.2385 14.0648C43.2968 14.206 43.3521 14.3479 43.4044 14.4906C43.4147 14.5134 43.4311 14.5299 43.4537 14.5399C43.4758 14.5501 43.4983 14.5501 43.5209 14.5399C43.5438 14.5326 43.5602 14.5176 43.5702 14.4951Z" fill="black"/>
<path d="M11.8348 16.4812H9.81537L4.57178 28.5286H7.31405L8.28934 26.2865H13.3551L14.3304 28.5286H17.0784L11.8348 16.4812ZM9.26463 24.033L10.8251 20.432L12.3798 24.033H9.26463Z" fill="black"/>
<path d="M40.4303 23.0132C40.4303 22.4999 40.3086 22.057 40.0653 21.6845C39.8144 21.3081 39.5064 21.0306 39.1414 20.8519C38.7802 20.6694 38.3791 20.5154 37.9381 20.39C37.4933 20.2645 37.0903 20.1504 36.7291 20.0478C36.3679 19.9451 36.0618 19.8216 35.8109 19.6771C35.56 19.5403 35.4345 19.3673 35.4345 19.1582C35.4345 18.6145 35.8831 18.3427 36.7804 18.3427C37.632 18.3427 38.3829 18.702 39.0331 19.4205L40.3675 18.1317C39.5387 17.033 38.3658 16.4836 36.8488 16.4836C35.8261 16.4836 34.9916 16.7536 34.3453 17.2934C33.6989 17.8257 33.3758 18.4644 33.3758 19.2095C33.3758 19.7227 33.5012 20.1618 33.7522 20.5268C33.9993 20.888 34.3053 21.1579 34.6703 21.3366C35.0391 21.5153 35.4421 21.6711 35.8793 21.8042C36.3204 21.9297 36.7215 22.0475 37.0827 22.1578C37.4476 22.2604 37.7556 22.3954 38.0065 22.5627C38.2575 22.7299 38.3829 22.9314 38.3829 23.1671C38.3829 23.4067 38.267 23.6062 38.035 23.7659C37.7993 23.9218 37.4495 23.9997 36.9857 23.9997C36.4382 23.9997 35.9326 23.8629 35.4687 23.5891C35.0335 23.3323 34.6723 22.9863 34.3852 22.5513L33.0165 23.9142C33.3488 24.4435 33.824 24.8883 34.4422 25.2486C35.1494 25.6554 36.0143 25.8588 37.037 25.8588C38.0027 25.8588 38.8087 25.5889 39.4551 25.049C40.1052 24.5054 40.4303 23.8267 40.4303 23.0132Z" fill="black"/>
<path d="M31.7792 19.4205L33.1137 18.1317C32.2848 17.033 31.1119 16.4836 29.595 16.4836C28.5722 16.4836 27.7377 16.7536 27.0914 17.2934C26.4451 17.8257 26.1219 18.4644 26.1219 19.2095C26.1219 19.7227 26.2474 20.1618 26.4983 20.5268C26.7492 20.888 27.0553 21.1579 27.4165 21.3366C27.7852 21.5153 28.1882 21.6711 28.6255 21.8042C29.0665 21.9297 29.4676 22.0475 29.8288 22.1578C30.1938 22.2604 30.5017 22.3954 30.7527 22.5627C31.0036 22.7299 31.1291 22.9314 31.1291 23.1671C31.1291 23.4067 31.0131 23.6062 30.7812 23.7659C30.5455 23.9218 30.1957 23.9997 29.7318 23.9997C29.1844 23.9997 28.6787 23.8629 28.2149 23.5891C27.7814 23.3344 27.4203 22.9904 27.1313 22.557L25.7683 23.9199C26.0991 24.4445 26.5724 24.8874 27.1883 25.2486C27.8955 25.6554 28.7604 25.8588 29.7832 25.8588C30.7489 25.8588 31.5549 25.5889 32.2012 25.049C32.8513 24.5054 33.1764 23.8267 33.1764 23.0132C33.1764 22.4999 33.0547 22.057 32.8114 21.6845C32.5643 21.3081 32.2563 21.0306 31.8875 20.8519C31.5264 20.6694 31.1253 20.5154 30.6842 20.39C30.2394 20.2645 29.8364 20.1504 29.4752 20.0478C29.114 19.9451 28.808 19.8216 28.557 19.6771C28.3061 19.5403 28.1806 19.3673 28.1806 19.1582C28.1806 18.6145 28.6293 18.3427 29.5265 18.3427C30.3782 18.3427 31.1291 18.702 31.7792 19.4205Z" fill="black"/>
<path d="M26.1306 16.4778H17.0776V28.5251H19.7396V23.9207H25.7634V21.6041H19.7396V18.9721H26.1306V16.4778Z" fill="black"/>
<path d="M40.4271 28.5139V25.8533H25.7577V28.5139H40.4271Z" fill="black"/>
</g>
<defs>
<clipPath id="clip0_418_2348">
<rect width="45" height="45" fill="white"/>
</clipPath>
</defs>
</svg>
