<svg width="82" height="82" viewBox="0 0 82 82" fill="none" xmlns="http://www.w3.org/2000/svg">
<circle cx="40.625" cy="40.625" r="40.625" fill="#FE611E"/>
<path d="M26.7501 42.7917C26.7501 39.0104 28.2855 35.5729 30.7834 33.075L27.5292 29.8208C24.2292 33.1438 22.1667 37.7271 22.1667 42.7917C22.1667 52.1417 29.1563 59.8417 38.2084 60.9646V56.3354C31.723 55.2354 26.7501 49.5979 26.7501 42.7917ZM58.8334 42.7917C58.8334 32.6625 50.6292 24.4583 40.5001 24.4583C40.3626 24.4583 40.2251 24.4813 40.0876 24.4813L42.5855 21.9833L39.3542 18.7292L31.3334 26.75L39.3542 34.7708L42.5855 31.5396L40.1105 29.0646C40.248 29.0646 40.3855 29.0417 40.5001 29.0417C48.0855 29.0417 54.2501 35.2063 54.2501 42.7917C54.2501 49.5979 49.2772 55.2354 42.7917 56.3354V60.9646C51.8438 59.8417 58.8334 52.1417 58.8334 42.7917Z" fill="white"/>
</svg>
