<svg width="45" height="45" viewBox="0 0 45 45" fill="none" xmlns="http://www.w3.org/2000/svg">
<circle cx="22.5" cy="22.5" r="22.5" fill="#FEC715"/>
<path d="M20.6316 24.2105V14.7368C20.6316 12.1158 18.5158 10 15.8947 10C13.2737 10 11.1579 12.1158 11.1579 14.7368V24.2105C9.24737 25.6474 8 27.9526 8 30.5263C8 32.2947 8.6 33.9053 9.57895 35.2158V35.2632H9.61053C11.0474 37.1737 13.3211 38.4211 15.8947 38.4211C18.4684 38.4211 20.7263 37.1737 22.1789 35.2632H22.2105V35.2158C23.1895 33.9053 23.7895 32.2947 23.7895 30.5263C23.7895 27.9526 22.5421 25.6474 20.6316 24.2105ZM11.1579 30.5263C11.1579 29.0421 11.8684 27.6211 13.0526 26.7368L14.3158 25.7895V14.7368C14.3158 13.8684 15.0263 13.1579 15.8947 13.1579C16.7632 13.1579 17.4737 13.8684 17.4737 14.7368V25.7895L18.7368 26.7368C19.9211 27.6368 20.6316 29.0421 20.6316 30.5263H11.1579ZM32.6632 11.5789H30.1211L24.7842 25.7895H27.2474L28.5263 22.1579H34.2579L35.5211 25.7895H38L32.6632 11.5789ZM29.2684 20.0895L31.3368 14.2158H31.4632L33.5316 20.0895H29.2684Z" fill="white"/>
</svg>
