<svg width="45" height="45" viewBox="0 0 45 45" fill="none" xmlns="http://www.w3.org/2000/svg">
<circle cx="22.5" cy="22.5" r="22.5" fill="#FE611E"/>
<path d="M36.4015 37L31.4944 32.0929C30.8005 32.5886 30.0508 33.0161 29.2454 33.3755C28.4399 33.7348 27.6035 34.0136 26.7361 34.2119V31.9071C27.3061 31.7336 27.8575 31.5415 28.3903 31.3309C28.9232 31.1202 29.425 30.8414 29.8959 30.4944L23.7621 24.3234V33.1338L16.3271 25.6989H10.3792V16.777H16.1784L8 8.59851L9.59851 7L38 35.3643L36.4015 37ZM35.0632 28.3755L33.4647 26.777C33.9603 25.9343 34.3259 25.0421 34.5613 24.1004C34.7968 23.1586 34.9145 22.1921 34.9145 21.2007C34.9145 18.6481 34.171 16.3618 32.684 14.342C31.197 12.3222 29.2144 11.0397 26.7361 10.4944V8.18959C29.8092 8.88352 32.3123 10.4387 34.2454 12.855C36.1784 15.2714 37.145 18.0533 37.145 21.2007C37.145 22.4647 36.9715 23.7038 36.6245 24.9182C36.2776 26.1326 35.7571 27.285 35.0632 28.3755ZM30.0818 23.3941L26.7361 20.0483V15.2156C27.9009 15.7608 28.8116 16.5787 29.4684 17.6691C30.1252 18.7596 30.4535 19.9492 30.4535 21.2379C30.4535 21.6097 30.4226 21.9752 30.3606 22.3346C30.2986 22.6939 30.2057 23.0471 30.0818 23.3941ZM23.7621 17.0743L19.8959 13.2082L23.7621 9.34201V17.0743ZM21.5316 27.7063V22.1301L18.4089 19.0074H12.6097V23.4684H17.2937L21.5316 27.7063Z" fill="white"/>
</svg>
