<svg width="46" height="46" viewBox="0 0 46 46" fill="none" xmlns="http://www.w3.org/2000/svg">
<circle cx="23" cy="23" r="22.5" fill="#FEC715"/>
<path d="M23 35.5C21.2917 35.5 19.6771 35.1719 18.1562 34.5156C16.6354 33.8594 15.3073 32.9635 14.1719 31.8281C13.0365 30.6927 12.1406 29.3646 11.4844 27.8438C10.8281 26.3229 10.5 24.7083 10.5 23C10.5 21.2292 10.8333 19.5833 11.5 18.0625C12.1667 16.5417 13.0781 15.2187 14.2344 14.0938C15.3906 12.9688 16.7448 12.0885 18.2969 11.4531C19.849 10.8177 21.5104 10.5 23.2813 10.5C24.9271 10.5 26.4896 10.776 27.9688 11.3281C29.4479 11.8802 30.7448 12.6458 31.8594 13.625C32.974 14.6042 33.8594 15.7656 34.5156 17.1094C35.1719 18.4531 35.5 19.9271 35.5 21.5312C35.5 23.7812 34.8437 25.5573 33.5312 26.8594C32.2187 28.1615 30.4792 28.8125 28.3125 28.8125H25.9688C25.5937 28.8125 25.2708 28.9583 25 29.25C24.7292 29.5417 24.5937 29.8646 24.5937 30.2187C24.5937 30.7812 24.7448 31.2604 25.0469 31.6562C25.349 32.0521 25.5 32.5104 25.5 33.0312C25.5 33.8229 25.2813 34.4323 24.8438 34.8594C24.4063 35.2865 23.7917 35.5 23 35.5ZM15.7188 23.8125C16.1354 23.8125 16.5 23.6562 16.8125 23.3437C17.125 23.0312 17.2813 22.6667 17.2813 22.25C17.2813 21.8333 17.125 21.4687 16.8125 21.1562C16.5 20.8437 16.1354 20.6875 15.7188 20.6875C15.3021 20.6875 14.9375 20.8437 14.625 21.1562C14.3125 21.4687 14.1563 21.8333 14.1563 22.25C14.1563 22.6667 14.3125 23.0312 14.625 23.3437C14.9375 23.6562 15.3021 23.8125 15.7188 23.8125ZM19.6562 18.5C20.0729 18.5 20.4375 18.3437 20.75 18.0312C21.0625 17.7187 21.2187 17.3542 21.2187 16.9375C21.2187 16.5208 21.0625 16.1563 20.75 15.8438C20.4375 15.5313 20.0729 15.375 19.6562 15.375C19.2396 15.375 18.875 15.5313 18.5625 15.8438C18.25 16.1563 18.0937 16.5208 18.0937 16.9375C18.0937 17.3542 18.25 17.7187 18.5625 18.0312C18.875 18.3437 19.2396 18.5 19.6562 18.5ZM26.3438 18.5C26.7604 18.5 27.125 18.3437 27.4375 18.0312C27.75 17.7187 27.9063 17.3542 27.9063 16.9375C27.9063 16.5208 27.75 16.1563 27.4375 15.8438C27.125 15.5313 26.7604 15.375 26.3438 15.375C25.9271 15.375 25.5625 15.5313 25.25 15.8438C24.9375 16.1563 24.7813 16.5208 24.7813 16.9375C24.7813 17.3542 24.9375 17.7187 25.25 18.0312C25.5625 18.3437 25.9271 18.5 26.3438 18.5ZM30.4375 23.8125C30.8542 23.8125 31.2188 23.6562 31.5313 23.3437C31.8438 23.0312 32 22.6667 32 22.25C32 21.8333 31.8438 21.4687 31.5313 21.1562C31.2188 20.8437 30.8542 20.6875 30.4375 20.6875C30.0208 20.6875 29.6563 20.8437 29.3438 21.1562C29.0313 21.4687 28.875 21.8333 28.875 22.25C28.875 22.6667 29.0313 23.0312 29.3438 23.3437C29.6563 23.6562 30.0208 23.8125 30.4375 23.8125ZM23 33.625C23.2292 33.625 23.3906 33.5781 23.4844 33.4844C23.5781 33.3906 23.625 33.2396 23.625 33.0312C23.625 32.7396 23.474 32.4688 23.1719 32.2188C22.8698 31.9687 22.7187 31.4167 22.7187 30.5625C22.7187 29.6042 23.0312 28.7604 23.6562 28.0312C24.2812 27.3021 25.0729 26.9375 26.0313 26.9375H28.3125C29.8958 26.9375 31.1771 26.474 32.1563 25.5469C33.1354 24.6198 33.625 23.2812 33.625 21.5312C33.625 18.7812 32.5833 16.5677 30.5 14.8906C28.4167 13.2135 26.0104 12.375 23.2813 12.375C20.2396 12.375 17.6615 13.401 15.5469 15.4531C13.4323 17.5052 12.375 20.0208 12.375 23C12.375 25.9375 13.4115 28.4427 15.4844 30.5156C17.5573 32.5885 20.0625 33.625 23 33.625Z" fill="white"/>
</svg>
