<svg width="350" height="350" viewBox="0 0 350 350" fill="none" xmlns="http://www.w3.org/2000/svg">
<g clip-path="url(#clip0_458_8952)">
<path d="M349.303 175C349.303 126.892 332.279 85.8151 298.232 51.768C264.162 17.7208 223.084 0.697266 175 0.697266C126.892 0.697266 85.8151 17.7208 51.7679 51.768C17.7208 85.8151 0.697205 126.892 0.697205 175C0.697205 223.108 17.7208 264.185 51.7679 298.232C85.8151 332.279 126.892 349.303 175 349.303C223.084 349.303 264.162 332.279 298.232 298.232C332.279 264.185 349.303 223.108 349.303 175Z" fill="white"/>
<path d="M266.056 323.402C265.882 323.37 265.707 323.405 265.533 323.506C264.545 324.134 263.546 324.749 262.535 325.354C262.383 325.45 262.278 325.59 262.221 325.772C262.189 325.963 262.224 326.137 262.326 326.295C262.422 326.471 262.561 326.575 262.744 326.609C262.934 326.664 263.109 326.641 263.267 326.539C264.278 325.935 265.277 325.319 266.265 324.691C266.441 324.588 266.545 324.437 266.579 324.238C266.634 324.064 266.611 323.889 266.509 323.715C266.406 323.562 266.255 323.458 266.056 323.402ZM258.805 327.724C258.634 327.669 258.46 327.68 258.282 327.759C257.248 328.352 256.202 328.921 255.144 329.467C254.989 329.567 254.884 329.706 254.831 329.886C254.774 330.073 254.786 330.247 254.866 330.409C254.965 330.587 255.104 330.704 255.284 330.757C255.471 330.813 255.645 330.79 255.807 330.687C256.864 330.141 257.91 329.572 258.944 328.979C259.124 328.896 259.24 328.757 259.293 328.561C259.349 328.39 259.326 328.216 259.223 328.038C259.141 327.882 259.001 327.777 258.805 327.724ZM273.098 318.73C272.92 318.705 272.746 318.74 272.575 318.835C271.616 319.52 270.652 320.183 269.681 320.822C269.522 320.938 269.417 321.089 269.368 321.275C269.341 321.463 269.376 321.638 269.472 321.798C269.588 321.958 269.739 322.051 269.925 322.077C270.113 322.126 270.287 322.091 270.448 321.972C271.43 321.333 272.406 320.671 273.376 319.985C273.543 319.885 273.636 319.734 273.655 319.532C273.704 319.354 273.669 319.18 273.551 319.009C273.451 318.866 273.3 318.773 273.098 318.73ZM280.523 314.512C280.548 314.336 280.501 314.174 280.383 314.024C280.263 313.867 280.1 313.774 279.895 313.745C279.72 313.721 279.557 313.767 279.407 313.885C278.478 314.605 277.536 315.314 276.584 316.011C276.434 316.125 276.341 316.276 276.305 316.464C276.285 316.656 276.332 316.83 276.444 316.987C276.557 317.143 276.708 317.236 276.897 317.266C277.088 317.291 277.262 317.245 277.42 317.127C278.379 316.43 279.32 315.721 280.244 315C280.407 314.879 280.5 314.716 280.523 314.512ZM251.345 331.664C251.179 331.602 251.004 331.613 250.822 331.698C249.764 332.21 248.695 332.709 247.615 333.197C247.456 333.276 247.34 333.404 247.266 333.581C247.209 333.763 247.221 333.938 247.301 334.104C247.379 334.286 247.507 334.402 247.684 334.452C247.867 334.532 248.041 334.532 248.207 334.452C249.288 333.964 250.357 333.465 251.414 332.953C251.603 332.868 251.73 332.729 251.798 332.535C251.86 332.369 251.848 332.195 251.763 332.012C251.678 331.847 251.539 331.731 251.345 331.664ZM239.492 337.45C239.573 337.641 239.701 337.769 239.875 337.834C240.056 337.919 240.23 337.919 240.398 337.834C241.508 337.404 242.612 336.951 243.71 336.474C243.885 336.409 244.001 336.281 244.059 336.091C244.144 335.922 244.144 335.748 244.059 335.568C243.994 335.393 243.866 335.266 243.675 335.185C243.507 335.122 243.332 335.122 243.152 335.185C242.066 335.661 240.974 336.114 239.875 336.544C239.708 336.626 239.58 336.753 239.492 336.928C239.43 337.108 239.43 337.282 239.492 337.45ZM231.927 339.472C231.758 339.533 231.63 339.649 231.544 339.821C231.458 339.996 231.447 340.171 231.509 340.344C231.57 340.537 231.686 340.676 231.858 340.762C232.033 340.847 232.207 340.859 232.38 340.797C233.508 340.425 234.623 340.042 235.727 339.647C235.922 339.579 236.061 339.451 236.145 339.263C236.231 339.104 236.242 338.929 236.18 338.74C236.113 338.569 235.985 338.442 235.797 338.357C235.637 338.272 235.463 338.26 235.274 338.322C234.17 338.717 233.054 339.1 231.927 339.472ZM293.212 303.984C293.366 303.863 293.448 303.7 293.456 303.496C293.461 303.319 293.392 303.157 293.247 303.008C293.126 302.877 292.963 302.807 292.759 302.799C292.582 302.794 292.42 302.852 292.271 302.973C291.423 303.792 290.551 304.594 289.656 305.379C289.526 305.51 289.456 305.673 289.447 305.867C289.436 306.059 289.494 306.222 289.622 306.355C289.753 306.508 289.915 306.59 290.11 306.599C290.302 306.61 290.465 306.552 290.598 306.425C291.492 305.629 292.364 304.815 293.212 303.984ZM286.868 309.632C287.014 309.514 287.095 309.351 287.112 309.144C287.13 308.965 287.072 308.802 286.937 308.656C286.819 308.509 286.657 308.427 286.449 308.412C286.271 308.394 286.108 308.44 285.961 308.551C285.061 309.33 284.154 310.085 283.242 310.817C283.102 310.952 283.02 311.114 282.998 311.305C282.98 311.494 283.026 311.657 283.137 311.793C283.272 311.957 283.434 312.05 283.625 312.072C283.815 312.09 283.977 312.032 284.114 311.898C285.037 311.166 285.955 310.41 286.868 309.632ZM295.827 300.568C295.972 300.705 296.135 300.775 296.315 300.777C296.521 300.782 296.695 300.712 296.838 300.568C297.465 299.97 298.093 299.354 298.72 298.72C298.883 298.558 299.045 298.395 299.208 298.232C299.346 298.098 299.416 297.935 299.417 297.744C299.416 297.553 299.346 297.391 299.208 297.256C299.074 297.118 298.911 297.049 298.72 297.047C298.529 297.049 298.367 297.118 298.232 297.256C298.069 297.419 297.907 297.582 297.744 297.744C297.117 298.366 296.489 298.97 295.862 299.557C295.725 299.702 295.655 299.865 295.652 300.045C295.648 300.252 295.706 300.426 295.827 300.568ZM305.1 291.992C305.244 291.86 305.314 291.697 305.309 291.504C305.3 291.317 305.219 291.154 305.065 291.016C304.933 290.895 304.77 290.836 304.577 290.842C304.39 290.851 304.227 290.921 304.089 291.051C303.287 291.946 302.473 292.829 301.648 293.7C301.527 293.856 301.469 294.03 301.474 294.223C301.483 294.411 301.552 294.562 301.683 294.677C301.839 294.821 302.013 294.891 302.206 294.886C302.393 294.877 302.544 294.795 302.659 294.642C303.484 293.77 304.298 292.887 305.1 291.992ZM310.817 285.473C310.951 285.326 311.009 285.152 310.991 284.95C310.975 284.766 310.894 284.603 310.747 284.462C310.6 284.351 310.426 284.305 310.224 284.323C310.04 284.339 309.877 284.421 309.736 284.567C308.987 285.473 308.22 286.38 307.435 287.286C307.308 287.432 307.249 287.594 307.261 287.774C307.276 287.975 307.358 288.138 307.505 288.262C307.65 288.39 307.813 288.448 307.993 288.437C308.193 288.421 308.356 288.34 308.481 288.192C309.277 287.286 310.056 286.38 310.817 285.473ZM316.15 278.78C316.268 278.636 316.314 278.462 316.29 278.257C316.261 278.076 316.168 277.925 316.011 277.804C315.861 277.686 315.687 277.64 315.488 277.665C315.307 277.693 315.156 277.786 315.035 277.943C314.32 278.867 313.588 279.785 312.839 280.697C312.727 280.858 312.681 281.032 312.699 281.22C312.722 281.412 312.803 281.563 312.943 281.674C313.103 281.808 313.278 281.866 313.466 281.848C313.658 281.825 313.809 281.732 313.919 281.569C314.68 280.651 315.424 279.721 316.15 278.78ZM51.6982 297.187C51.5638 297.049 51.4011 296.979 51.2102 296.977C51.0192 296.979 50.8566 297.049 50.7221 297.187C50.5843 297.321 50.5146 297.484 50.5129 297.675C50.5146 297.865 50.5843 298.028 50.7221 298.163C50.908 298.349 51.094 298.534 51.2799 298.72C52.0932 299.54 52.9182 300.353 53.755 301.161C53.8972 301.305 54.0599 301.374 54.243 301.37C54.446 301.368 54.6087 301.298 54.7311 301.161C54.8752 301.019 54.945 300.845 54.9402 300.638C54.9378 300.458 54.8681 300.295 54.7311 300.15C53.8944 299.354 53.0694 298.552 52.256 297.744C52.0701 297.558 51.8841 297.372 51.6982 297.187ZM37.4751 281.499C37.4994 281.323 37.4529 281.161 37.3357 281.011C36.6152 280.082 35.9064 279.152 35.2092 278.222C35.0949 278.066 34.9438 277.973 34.756 277.943C34.5639 277.918 34.3896 277.965 34.2331 278.083C34.0766 278.197 33.9837 278.348 33.9542 278.536C33.9293 278.728 33.9758 278.902 34.0936 279.059C34.7907 279.994 35.4996 280.924 36.2201 281.848C36.3414 282.011 36.4925 282.104 36.6733 282.127C36.8724 282.151 37.0467 282.105 37.1962 281.987C37.3533 281.866 37.4462 281.704 37.4751 281.499ZM44.9004 291.051C44.7696 291.189 44.6999 291.352 44.6912 291.539C44.6861 291.732 44.7443 291.895 44.8655 292.027C45.6673 292.899 46.4691 293.759 47.2709 294.607C47.4158 294.761 47.5785 294.842 47.759 294.851C47.959 294.856 48.1217 294.786 48.247 294.642C48.4015 294.52 48.4829 294.358 48.491 294.154C48.4959 293.977 48.4262 293.814 48.2819 293.666C47.4802 292.817 46.6784 291.957 45.8765 291.086C45.7614 290.955 45.6103 290.885 45.4233 290.877C45.23 290.871 45.0557 290.929 44.9004 291.051ZM42.8088 287.948C42.8207 287.769 42.7626 287.607 42.6345 287.46C41.8734 286.583 41.1181 285.688 40.3685 284.776C40.2572 284.636 40.1062 284.555 39.9153 284.532C39.726 284.514 39.5517 284.56 39.3924 284.672C39.2519 284.806 39.1706 284.969 39.1484 285.16C39.1303 285.349 39.1767 285.511 39.2878 285.648C40.0489 286.571 40.8158 287.478 41.5886 288.367C41.713 288.514 41.8641 288.595 42.0418 288.611C42.2447 288.623 42.419 288.565 42.5647 288.437C42.712 288.312 42.7933 288.149 42.8088 287.948ZM99.8406 332.082C99.6813 331.997 99.507 331.985 99.3177 332.047C99.1471 332.114 99.0192 332.23 98.9343 332.396C98.8488 332.578 98.8372 332.752 98.8994 332.919C98.9668 333.112 99.083 333.252 99.248 333.337C100.329 333.848 101.398 334.348 102.455 334.836C102.645 334.915 102.831 334.915 103.013 334.836C103.19 334.785 103.318 334.669 103.396 334.487C103.476 334.321 103.476 334.147 103.396 333.964C103.346 333.787 103.229 333.659 103.048 333.581C101.99 333.093 100.921 332.593 99.8406 332.082ZM107.58 335.498C107.4 335.436 107.214 335.436 107.022 335.498C106.855 335.579 106.727 335.707 106.638 335.882C106.576 336.061 106.576 336.236 106.638 336.405C106.72 336.595 106.847 336.723 107.022 336.788C108.12 337.265 109.212 337.718 110.299 338.148C110.49 338.233 110.676 338.233 110.857 338.148C111.031 338.083 111.147 337.955 111.205 337.764C111.291 337.596 111.291 337.421 111.205 337.241C111.141 337.067 111.013 336.939 110.822 336.858C109.747 336.428 108.666 335.975 107.58 335.498ZM95.3436 331.141C95.5304 331.081 95.6698 330.964 95.762 330.792C95.8473 330.623 95.8589 330.449 95.7968 330.269C95.7364 330.083 95.6202 329.943 95.4482 329.851C94.4141 329.322 93.3915 328.764 92.3805 328.178C92.2088 328.093 92.0229 328.07 91.8227 328.108C91.6501 328.172 91.5107 328.288 91.4044 328.456C91.3194 328.628 91.2962 328.802 91.3347 328.979C91.3988 329.175 91.515 329.314 91.6833 329.398C92.7173 329.996 93.7631 330.566 94.8207 331.106C94.9897 331.191 95.164 331.203 95.3436 331.141ZM84.0139 324.657C84.0703 324.855 84.1749 325.006 84.3277 325.11C85.3444 325.737 86.3669 326.353 87.3954 326.957C87.56 327.059 87.7343 327.083 87.9183 327.027C88.1014 326.987 88.2409 326.883 88.3367 326.713C88.4389 326.549 88.4621 326.375 88.4064 326.19C88.3662 326.008 88.2617 325.868 88.0926 325.772C87.076 325.168 86.065 324.552 85.0598 323.925C84.9086 323.823 84.7343 323.788 84.5369 323.82C84.3611 323.876 84.2217 323.981 84.1185 324.134C84.0167 324.308 83.9818 324.482 84.0139 324.657ZM76.9372 319.985C76.9802 320.187 77.0732 320.338 77.2161 320.439C78.2096 321.124 79.1973 321.786 80.1793 322.426C80.3402 322.544 80.5145 322.579 80.7022 322.53C80.8879 322.504 81.0274 322.411 81.1205 322.251C81.2395 322.091 81.2744 321.916 81.2251 321.728C81.1987 321.543 81.1057 321.392 80.9462 321.275C79.9758 320.636 78.9997 319.974 78.0179 319.288C77.87 319.193 77.6956 319.158 77.495 319.184C77.3161 319.226 77.165 319.319 77.0418 319.462C76.9464 319.633 76.9116 319.808 76.9372 319.985ZM74.0438 316.464C73.0968 315.767 72.1555 315.058 71.2201 314.338C71.0764 314.221 70.9021 314.174 70.6972 314.198C70.516 314.227 70.3649 314.32 70.244 314.477C70.1263 314.627 70.0798 314.789 70.1046 314.965C70.1335 315.169 70.2264 315.332 70.3835 315.453C71.313 316.174 72.2542 316.883 73.2072 317.58C73.365 317.698 73.5393 317.745 73.7301 317.719C73.9189 317.689 74.07 317.596 74.1833 317.44C74.3016 317.283 74.348 317.109 74.3227 316.918C74.2922 316.729 74.1992 316.578 74.0438 316.464ZM64.1086 308.9C63.9241 308.915 63.7614 308.997 63.6205 309.144C63.5095 309.29 63.463 309.453 63.4811 309.632C63.4974 309.839 63.5788 310.002 63.7251 310.12C64.6372 310.898 65.5552 311.654 66.4791 312.386C66.6396 312.52 66.8139 312.578 67.002 312.56C67.194 312.537 67.3451 312.444 67.4552 312.281C67.59 312.144 67.6481 311.982 67.6295 311.793C67.6065 311.601 67.5136 311.439 67.3506 311.305C66.4384 310.573 65.532 309.818 64.6315 309.039C64.4843 308.928 64.31 308.882 64.1086 308.9ZM57.1016 304.019C57.1105 304.206 57.1802 304.357 57.3108 304.472C58.2055 305.303 59.0886 306.117 59.9602 306.913C60.1165 307.04 60.2908 307.098 60.4831 307.087C60.6772 307.078 60.8398 306.996 60.9711 306.843C61.0988 306.71 61.1569 306.547 61.1454 306.355C61.1362 306.161 61.0548 305.998 60.9014 305.867C60.0299 305.082 59.1467 304.281 58.252 303.461C58.1196 303.34 57.9569 303.282 57.7639 303.287C57.5766 303.296 57.4139 303.365 57.2759 303.496C57.1542 303.651 57.0961 303.826 57.1016 304.019ZM177.789 348.815C177.654 348.677 177.492 348.607 177.301 348.606C176.534 348.606 175.767 348.606 175 348.606C174.442 348.606 173.884 348.606 173.327 348.606C173.136 348.607 172.973 348.677 172.839 348.815C172.701 348.949 172.631 349.112 172.629 349.303C172.631 349.494 172.701 349.657 172.839 349.791C172.973 349.929 173.136 349.999 173.327 350C173.884 350 174.442 350 175 350C175.767 350 176.534 350 177.301 350C177.492 349.999 177.654 349.929 177.789 349.791C177.927 349.657 177.996 349.494 177.998 349.303C177.996 349.112 177.927 348.949 177.789 348.815ZM185.842 349.721C186.036 349.712 186.199 349.631 186.33 349.477C186.458 349.344 186.516 349.181 186.504 348.989C186.495 348.795 186.413 348.632 186.26 348.501C186.127 348.374 185.964 348.315 185.772 348.327C184.587 348.397 183.401 348.455 182.216 348.501C182.028 348.51 181.866 348.58 181.728 348.71C181.607 348.866 181.548 349.04 181.554 349.233C181.562 349.421 181.632 349.572 181.763 349.686C181.919 349.831 182.093 349.901 182.286 349.896C183.471 349.849 184.656 349.791 185.842 349.721ZM194.696 347.804C194.56 347.693 194.398 347.646 194.208 347.665C193.029 347.781 191.843 347.885 190.652 347.978C190.475 347.994 190.324 348.075 190.199 348.222C190.071 348.368 190.013 348.531 190.025 348.71C190.041 348.912 190.122 349.074 190.269 349.198C190.415 349.327 190.577 349.385 190.757 349.373C191.96 349.28 193.157 349.175 194.348 349.059C194.539 349.037 194.69 348.944 194.801 348.78C194.935 348.644 194.994 348.482 194.975 348.292C194.953 348.101 194.86 347.938 194.696 347.804ZM202.819 347.978C203.008 347.942 203.159 347.838 203.272 347.665C203.384 347.524 203.419 347.362 203.376 347.177C203.358 346.987 203.265 346.836 203.098 346.723C202.957 346.611 202.794 346.565 202.61 346.584C201.453 346.776 200.28 346.95 199.089 347.107C198.906 347.136 198.755 347.229 198.635 347.386C198.518 347.536 198.471 347.699 198.496 347.874C198.525 348.079 198.618 348.242 198.775 348.362C198.925 348.48 199.088 348.526 199.263 348.501C200.466 348.339 201.651 348.164 202.819 347.978ZM211.185 346.514C211.371 346.488 211.511 346.395 211.604 346.235C211.723 346.075 211.757 345.901 211.708 345.712C211.682 345.527 211.589 345.376 211.429 345.259C211.269 345.164 211.094 345.129 210.906 345.155C209.75 345.399 208.588 345.619 207.42 345.817C207.242 345.86 207.091 345.953 206.967 346.096C206.872 346.267 206.837 346.441 206.863 346.619C206.905 346.821 206.998 346.972 207.141 347.072C207.312 347.191 207.486 347.225 207.664 347.177C208.844 346.979 210.017 346.758 211.185 346.514ZM143.068 347.281C143.269 347.33 143.443 347.295 143.591 347.177C143.757 347.076 143.85 346.925 143.87 346.723C143.918 346.545 143.884 346.371 143.765 346.2C143.665 346.057 143.513 345.964 143.312 345.922C142.167 345.724 141.017 345.503 139.861 345.259C139.673 345.233 139.498 345.268 139.338 345.364C139.178 345.48 139.073 345.631 139.024 345.817C138.998 346.005 139.033 346.179 139.128 346.34C139.245 346.5 139.396 346.593 139.582 346.619C140.749 346.863 141.912 347.084 143.068 347.281ZM152.062 347.386C151.958 347.246 151.807 347.165 151.609 347.142C150.464 347.002 149.314 346.851 148.157 346.688C147.965 346.664 147.79 346.71 147.634 346.828C147.478 346.942 147.385 347.093 147.356 347.281C147.331 347.474 147.377 347.648 147.495 347.804C147.609 347.96 147.761 348.053 147.948 348.083C149.116 348.246 150.278 348.397 151.434 348.536C151.639 348.555 151.814 348.497 151.957 348.362C152.12 348.258 152.213 348.107 152.236 347.909C152.255 347.727 152.197 347.552 152.062 347.386ZM159.871 349.408C160.073 349.42 160.248 349.361 160.393 349.233C160.541 349.109 160.622 348.947 160.637 348.745C160.65 348.566 160.591 348.403 160.463 348.257C160.339 348.11 160.176 348.029 159.975 348.013C158.807 347.92 157.645 347.816 156.489 347.699C156.299 347.681 156.125 347.728 155.966 347.839C155.826 347.973 155.744 348.136 155.722 348.327C155.704 348.516 155.75 348.679 155.862 348.815C155.996 348.979 156.159 349.072 156.35 349.094C157.517 349.21 158.691 349.315 159.871 349.408ZM169.109 349.233C169.114 349.04 169.044 348.866 168.899 348.71C168.785 348.58 168.634 348.51 168.446 348.501C167.261 348.455 166.076 348.397 164.89 348.327C164.698 348.315 164.524 348.374 164.368 348.501C164.237 348.632 164.168 348.795 164.158 348.989C164.147 349.181 164.205 349.344 164.333 349.477C164.464 349.631 164.626 349.712 164.821 349.721C166.006 349.791 167.191 349.849 168.376 349.896C168.569 349.901 168.732 349.831 168.865 349.686C169.019 349.572 169.1 349.421 169.109 349.233ZM135.015 344.283C133.87 344.039 132.732 343.772 131.599 343.481C131.408 343.449 131.222 343.484 131.041 343.586C130.889 343.682 130.784 343.822 130.727 344.004C130.695 344.195 130.73 344.369 130.832 344.527C130.928 344.702 131.067 344.807 131.25 344.841C132.394 345.131 133.545 345.399 134.701 345.643C134.905 345.698 135.091 345.675 135.259 345.573C135.418 345.469 135.511 345.318 135.538 345.12C135.593 344.939 135.57 344.764 135.468 344.597C135.364 344.438 135.213 344.333 135.015 344.283ZM122.605 341.703C122.548 341.884 122.56 342.058 122.639 342.226C122.738 342.399 122.877 342.515 123.058 342.575C124.179 342.924 125.306 343.261 126.439 343.586C126.633 343.642 126.808 343.619 126.962 343.516C127.142 343.434 127.258 343.294 127.311 343.098C127.367 342.927 127.344 342.753 127.241 342.575C127.158 342.419 127.019 342.314 126.823 342.261C125.701 341.936 124.586 341.599 123.476 341.25C123.296 341.194 123.121 341.206 122.953 341.285C122.781 341.384 122.664 341.523 122.605 341.703ZM119.188 340.1C119.102 339.928 118.963 339.812 118.77 339.751C117.666 339.379 116.55 338.996 115.423 338.601C115.258 338.539 115.083 338.55 114.9 338.636C114.735 338.72 114.619 338.848 114.552 339.019C114.49 339.208 114.501 339.383 114.587 339.542C114.671 339.73 114.799 339.858 114.97 339.926C116.097 340.321 117.213 340.704 118.317 341.076C118.513 341.138 118.699 341.126 118.875 341.041C119.046 340.955 119.163 340.816 119.223 340.623C119.285 340.449 119.274 340.275 119.188 340.1ZM223.7 343.272C223.878 343.375 224.052 343.398 224.223 343.342C225.379 343.017 226.53 342.68 227.674 342.331C227.855 342.277 227.983 342.161 228.058 341.982C228.16 341.82 228.184 341.646 228.127 341.459C228.074 341.279 227.958 341.14 227.779 341.041C227.617 340.962 227.442 340.95 227.256 341.006C226.123 341.355 224.984 341.692 223.84 342.017C223.667 342.07 223.527 342.175 223.421 342.331C223.342 342.509 223.33 342.683 223.386 342.854C223.439 343.05 223.544 343.19 223.7 343.272ZM215.229 344.423C215.127 344.59 215.092 344.764 215.124 344.945C215.174 345.144 215.279 345.295 215.438 345.399C215.606 345.5 215.78 345.524 215.961 345.468C217.141 345.224 218.303 344.946 219.447 344.632C219.637 344.591 219.776 344.487 219.866 344.318C219.974 344.153 219.997 343.979 219.935 343.795C219.895 343.606 219.79 343.455 219.622 343.342C219.456 343.257 219.282 343.234 219.099 343.272C217.966 343.586 216.815 343.865 215.647 344.109C215.472 344.159 215.333 344.263 215.229 344.423ZM30.2241 271.355C30.124 271.212 29.9729 271.119 29.7709 271.076C29.5933 271.05 29.419 271.085 29.248 271.181C29.1048 271.304 29.0118 271.455 28.9691 271.634C28.9436 271.834 28.9785 272.009 29.0737 272.157C29.765 273.15 30.4622 274.126 31.1653 275.085C31.2786 275.24 31.4297 275.333 31.6185 275.364C31.8097 275.389 31.984 275.343 32.1414 275.224C32.2973 275.111 32.3903 274.96 32.4203 274.771C32.4456 274.58 32.3991 274.406 32.2809 274.248C31.5895 273.301 30.9039 272.337 30.2241 271.355ZM24.4024 264.522C24.3701 264.712 24.4049 264.887 24.507 265.045C25.1111 266.056 25.727 267.055 26.3546 268.043C26.4579 268.219 26.5973 268.324 26.7729 268.357C26.9707 268.412 27.145 268.389 27.2958 268.287C27.4721 268.184 27.5767 268.033 27.6096 267.834C27.6648 267.66 27.6415 267.485 27.5398 267.311C26.9124 266.323 26.2965 265.324 25.6922 264.313C25.5958 264.161 25.4564 264.057 25.2739 263.999C25.0832 263.967 24.8972 264.002 24.7161 264.104C24.5639 264.2 24.4593 264.34 24.4024 264.522ZM20.5329 256.783C20.3767 256.888 20.2721 257.028 20.2191 257.201C20.1633 257.394 20.1749 257.569 20.254 257.724C20.8233 258.764 21.3927 259.798 21.9622 260.827C22.0686 260.995 22.2081 261.1 22.3805 261.141C22.5809 261.202 22.7669 261.179 22.9382 261.071C23.1068 260.988 23.2114 260.848 23.252 260.653C23.3135 260.476 23.2902 260.301 23.1823 260.13C22.6129 259.113 22.0435 258.09 21.4741 257.062C21.3918 256.906 21.2523 256.802 21.0558 256.748C20.8857 256.692 20.7114 256.704 20.5329 256.783ZM17.6394 249.567C17.5543 249.402 17.4148 249.286 17.2211 249.218C17.0549 249.156 16.8806 249.168 16.6982 249.253C16.533 249.338 16.4168 249.466 16.3496 249.637C16.2876 249.826 16.2992 250 16.3845 250.16C16.8957 251.246 17.4186 252.315 17.9532 253.367C18.0456 253.539 18.185 253.655 18.3715 253.715C18.5514 253.777 18.7257 253.766 18.8944 253.681C19.0666 253.588 19.1828 253.449 19.243 253.262C19.3049 253.083 19.2932 252.908 19.2082 252.739C18.6737 251.699 18.1508 250.642 17.6394 249.567ZM13.8396 241.479C13.6596 241.417 13.4737 241.417 13.2819 241.479C13.1145 241.561 12.9866 241.688 12.8984 241.863C12.8363 242.043 12.8363 242.217 12.8984 242.386C13.3515 243.496 13.8047 244.588 14.258 245.663C14.3466 245.837 14.4744 245.953 14.6414 246.011C14.8339 246.097 15.0198 246.097 15.1992 246.011C15.374 245.946 15.4903 245.818 15.5478 245.628C15.6334 245.459 15.6334 245.285 15.5478 245.105C15.0947 244.041 14.6415 242.961 14.1882 241.863C14.13 241.695 14.0138 241.567 13.8396 241.479ZM11.1902 234.019C11.1225 233.848 10.9947 233.72 10.8068 233.636C10.6474 233.55 10.4731 233.539 10.2839 233.601C10.1129 233.668 9.9851 233.784 9.9004 233.949C9.81515 234.132 9.80353 234.307 9.86554 234.472C10.2663 235.605 10.6731 236.721 11.0857 237.819C11.1658 237.997 11.2936 238.125 11.4691 238.202C11.6418 238.282 11.8161 238.282 11.992 238.202C12.17 238.146 12.2978 238.029 12.3755 237.854C12.4552 237.681 12.4552 237.507 12.3755 237.331C11.9746 236.244 11.5795 235.14 11.1902 234.019ZM7.66932 225.548C7.4962 225.601 7.35676 225.705 7.251 225.862C7.17183 226.039 7.16021 226.214 7.21614 226.385C7.54132 227.547 7.88993 228.686 8.26195 229.801C8.32251 229.994 8.43871 230.133 8.61056 230.219C8.78586 230.305 8.96016 230.316 9.13347 230.254C9.32647 230.194 9.46591 230.077 9.55179 229.906C9.63704 229.73 9.64866 229.545 9.58665 229.348C9.21499 228.255 8.86638 227.14 8.54084 226.001C8.48809 225.828 8.37189 225.689 8.19223 225.583C8.03763 225.504 7.86333 225.492 7.66932 225.548ZM4.98506 218.123C5.27547 219.302 5.56598 220.464 5.85657 221.609C5.92021 221.798 6.03641 221.938 6.20518 222.027C6.37013 222.135 6.54443 222.158 6.72809 222.097C6.91755 222.057 7.05699 221.952 7.14641 221.783C7.25436 221.618 7.2776 221.444 7.21614 221.26C6.92572 220.127 6.63522 218.977 6.34462 217.809C6.31131 217.633 6.20672 217.494 6.03088 217.391C5.87936 217.289 5.70506 217.254 5.50797 217.286C5.33158 217.343 5.19214 217.447 5.08964 217.6C4.98769 217.774 4.95283 217.949 4.98506 218.123ZM4.49701 209.547C4.47087 209.361 4.37791 209.21 4.21813 209.094C4.05762 208.998 3.88332 208.963 3.69522 208.989C3.50939 209.039 3.35833 209.143 3.24203 209.303C3.14644 209.464 3.11158 209.638 3.13745 209.826C3.38138 210.994 3.62541 212.156 3.86952 213.312C3.91954 213.51 4.02413 213.662 4.18327 213.765C4.35085 213.867 4.52516 213.89 4.70618 213.835C4.90472 213.808 5.05578 213.715 5.15936 213.556C5.26104 213.388 5.28428 213.203 5.22908 212.998C4.98506 211.854 4.74104 210.703 4.49701 209.547ZM1.91733 200.902C1.7995 201.052 1.75301 201.215 1.77789 201.39C1.94638 202.592 2.12068 203.778 2.3008 204.945C2.34274 205.135 2.4357 205.286 2.57968 205.399C2.74318 205.511 2.91748 205.546 3.10259 205.503C3.29178 205.485 3.44284 205.392 3.55578 205.224C3.67389 205.084 3.72037 204.921 3.69522 204.736C3.5093 203.58 3.33499 202.406 3.17231 201.215C3.14281 201.033 3.04985 200.882 2.89343 200.762C2.74309 200.644 2.56879 200.598 2.37052 200.623C2.18859 200.652 2.03753 200.745 1.91733 200.902ZM1.39442 192.152C1.20333 192.174 1.04064 192.255 0.906375 192.396C0.795166 192.555 0.748685 192.729 0.766933 192.919C0.883044 194.11 1.01087 195.295 1.1504 196.474C1.17328 196.672 1.25462 196.823 1.39442 196.928C1.56074 197.063 1.73504 197.121 1.91733 197.102C2.11533 197.079 2.26639 196.986 2.37052 196.823C2.50533 196.68 2.56343 196.506 2.54482 196.3C2.40538 195.132 2.27756 193.959 2.16135 192.779C2.13911 192.588 2.04615 192.425 1.88247 192.291C1.74657 192.18 1.58389 192.133 1.39442 192.152ZM0.906375 183.681C0.71909 183.689 0.556408 183.759 0.418327 183.89C0.296951 184.045 0.23885 184.22 0.244024 184.413C0.290414 185.598 0.348515 186.771 0.418327 187.934C0.427587 188.128 0.497308 188.29 0.627491 188.422C0.783909 188.549 0.958212 188.607 1.1504 188.596C1.34476 188.587 1.50745 188.505 1.63845 188.352C1.76618 188.219 1.82428 188.056 1.81275 187.864C1.74303 186.702 1.68493 185.528 1.63845 184.343C1.62964 184.155 1.5483 183.992 1.39442 183.855C1.26242 183.733 1.09974 183.675 0.906375 183.681ZM0.209164 175.384C0.0713557 175.518 0.00163462 175.681 5.27806e-07 175.872C-9.02549e-05 177.063 0.0115299 178.248 0.0348611 179.428C0.0371307 179.631 0.106852 179.794 0.244024 179.916C0.386099 180.06 0.548782 180.13 0.732072 180.125C0.935425 180.123 1.09811 180.053 1.22012 179.916C1.36419 179.773 1.43391 179.599 1.42928 179.393C1.40604 178.225 1.39442 177.051 1.39442 175.872C1.39279 175.681 1.32307 175.518 1.18526 175.384C1.05081 175.246 0.888128 175.176 0.697212 175.175C0.506296 175.176 0.343613 175.246 0.209164 175.384ZM0.383467 166.25C0.25274 166.388 0.183018 166.551 0.174303 166.738C0.127732 167.929 0.0928712 169.115 0.0697216 170.294C0.0650917 170.501 0.123193 170.675 0.244024 170.817C0.389277 170.954 0.551959 171.024 0.732072 171.026C0.938603 171.031 1.11291 170.961 1.25498 170.817C1.39215 170.695 1.46187 170.532 1.46414 170.329C1.48738 169.161 1.52224 167.987 1.56873 166.808C1.5739 166.615 1.50418 166.441 1.35956 166.285C1.24481 166.154 1.09375 166.084 0.906375 166.076C0.713008 166.071 0.538705 166.129 0.383467 166.25ZM1.42928 157.64C1.25026 157.628 1.08758 157.686 0.941236 157.814C0.79444 157.938 0.713099 158.089 0.697212 158.267C0.604159 159.447 0.522818 160.632 0.453188 161.823C0.441658 162.015 0.499759 162.178 0.627491 162.311C0.758581 162.465 0.921263 162.546 1.11554 162.555C1.30773 162.567 1.47041 162.509 1.60359 162.381C1.75692 162.25 1.83826 162.087 1.84761 161.893C1.91733 160.713 1.99867 159.54 2.09163 158.372C2.10362 158.193 2.04552 158.03 1.91733 157.884C1.79359 157.737 1.63091 157.655 1.42928 157.64ZM2.44024 149.203C2.24787 149.178 2.07357 149.225 1.91733 149.343C1.76082 149.457 1.66786 149.608 1.63845 149.796C1.47576 150.964 1.3247 152.137 1.18526 153.317C1.16656 153.523 1.21304 153.697 1.3247 153.84C1.45198 154.003 1.60304 154.096 1.77789 154.119C1.98342 154.138 2.15772 154.079 2.3008 153.944C2.46384 153.84 2.5568 153.689 2.57968 153.491C2.71912 152.323 2.87019 151.161 3.03287 150.005C3.05774 149.813 3.01126 149.638 2.89343 149.482C2.77913 149.326 2.62807 149.233 2.44024 149.203ZM4.28785 141.674C4.33669 141.495 4.30183 141.321 4.18327 141.151C4.08304 141.007 3.93198 140.914 3.73008 140.872C3.55215 140.846 3.37784 140.881 3.20717 140.976C3.06383 141.1 2.97086 141.251 2.92829 141.43C2.73065 142.609 2.53311 143.783 2.33566 144.95C2.31632 145.135 2.3628 145.298 2.4751 145.439C2.58803 145.606 2.7391 145.699 2.92829 145.717C3.11339 145.76 3.27608 145.725 3.41634 145.613C3.58937 145.5 3.69395 145.349 3.73008 145.16C3.91019 144.003 4.09612 142.841 4.28785 141.674ZM5.01992 132.68C4.86786 132.775 4.76328 132.915 4.70618 133.098C4.43882 134.242 4.17156 135.393 3.90438 136.549C3.87243 136.753 3.90729 136.939 4.00896 137.107C4.11255 137.266 4.25199 137.359 4.42729 137.386C4.63155 137.441 4.81748 137.418 4.98506 137.316C5.14411 137.212 5.23707 137.061 5.26394 136.863C5.53121 135.718 5.79847 134.58 6.06574 133.446C6.12121 133.256 6.09797 133.07 5.99602 132.889C5.8997 132.736 5.76025 132.632 5.57769 132.575C5.38696 132.543 5.20103 132.577 5.01992 132.68ZM7.251 128.671C7.55893 127.538 7.87268 126.399 8.19223 125.254C8.24815 125.083 8.22491 124.909 8.12251 124.731C8.03999 124.575 7.90055 124.47 7.70418 124.418C7.53342 124.362 7.35912 124.373 7.18128 124.452C7.02486 124.558 6.92028 124.698 6.86753 124.871C6.53626 126.027 6.2109 127.177 5.89143 128.322C5.85322 128.506 5.87646 128.68 5.96116 128.845C6.07382 129.014 6.22488 129.118 6.41434 129.159C6.598 129.22 6.7723 129.197 6.93725 129.089C7.10602 129 7.2106 128.86 7.251 128.671ZM10.3536 116.365C10.1875 116.303 10.0132 116.314 9.83068 116.4C9.66591 116.484 9.54971 116.612 9.48207 116.783C9.0869 117.91 8.70343 119.026 8.33167 120.13C8.26958 120.326 8.2812 120.512 8.36653 120.688C8.45241 120.859 8.58024 120.976 8.75 121.036C8.94655 121.098 9.13247 121.087 9.30777 121.001C9.47953 120.915 9.59573 120.776 9.65638 120.583C10.0282 119.479 10.4117 118.363 10.8068 117.236C10.8687 117.071 10.8571 116.896 10.7719 116.713C10.6871 116.548 10.5477 116.432 10.3536 116.365ZM13.3516 108.417C13.183 108.354 13.0087 108.354 12.8287 108.417C12.6546 108.504 12.5267 108.632 12.4452 108.8C12.0152 109.91 11.5852 111.025 11.1554 112.147C11.0991 112.323 11.1107 112.497 11.1902 112.67C11.2682 112.845 11.396 112.962 11.5737 113.018C11.75 113.098 11.9243 113.098 12.0966 113.018C12.2721 112.94 12.3883 112.813 12.4452 112.635C12.8752 111.525 13.3051 110.421 13.7351 109.323C13.8204 109.155 13.8204 108.98 13.7351 108.8C13.6702 108.626 13.5423 108.498 13.3516 108.417ZM16.3147 100.608C16.1443 100.675 16.0164 100.791 15.9313 100.956C15.4141 102.043 14.9028 103.135 14.3974 104.233C14.3353 104.406 14.3353 104.58 14.3974 104.756C14.4776 104.934 14.6054 105.062 14.7809 105.14C14.9535 105.219 15.1278 105.219 15.3038 105.14C15.4873 105.083 15.6151 104.966 15.6873 104.791C16.1812 103.705 16.6809 102.624 17.1863 101.549C17.2714 101.39 17.283 101.215 17.2211 101.026C17.1538 100.855 17.026 100.728 16.8376 100.643C16.6785 100.557 16.5042 100.546 16.3147 100.608ZM20.9512 93.9843C21.0536 93.8225 21.0768 93.6482 21.0209 93.4614C20.9674 93.2816 20.8512 93.1421 20.6723 93.0431C20.5106 92.9636 20.3363 92.952 20.1494 93.0082C19.9697 93.0619 19.8303 93.1665 19.7311 93.322C19.179 94.3851 18.6329 95.4542 18.0926 96.5291C18.0075 96.7046 17.9959 96.8789 18.0578 97.052C18.1183 97.245 18.2345 97.3845 18.4064 97.4704C18.5817 97.5557 18.756 97.5673 18.9293 97.5052C19.122 97.4445 19.2615 97.3283 19.3476 97.1566C19.8763 96.0934 20.4109 95.0359 20.9512 93.9843ZM24.8556 85.6526C24.6912 85.5504 24.5169 85.5156 24.3327 85.5481C24.1497 85.6113 24.0103 85.7275 23.9143 85.8967C23.3043 86.9192 22.7 87.9418 22.1016 88.9644C22.0169 89.1361 21.9937 89.3104 22.0319 89.4873C22.0958 89.6831 22.212 89.8226 22.3805 89.9056C22.5519 90.0138 22.7262 90.0371 22.9034 89.9754C23.0989 89.9345 23.2384 89.8299 23.3217 89.6616C23.9085 88.639 24.5012 87.6165 25.0996 86.5939C25.2016 86.4293 25.2248 86.255 25.1693 86.071C25.1295 85.8878 25.0249 85.7483 24.8556 85.6526ZM28.9343 78.4016C28.7555 78.4446 28.6044 78.5375 28.4811 78.6805C27.8126 79.6798 27.1619 80.6791 26.5289 81.6785C26.4272 81.8529 26.3923 82.0272 26.4243 82.2015C26.4804 82.4005 26.585 82.5516 26.738 82.6546C26.9121 82.7565 27.0864 82.7797 27.261 82.7244C27.4598 82.6911 27.6108 82.5865 27.7141 82.4106C28.336 81.4346 28.9751 80.4585 29.6315 79.4823C29.7499 79.3344 29.7848 79.16 29.7361 78.9594C29.7166 78.7805 29.6237 78.6294 29.4572 78.5062C29.3095 78.4108 29.1352 78.376 28.9343 78.4016ZM33.9542 71.4644C33.7724 71.494 33.6214 71.587 33.501 71.7433C32.7805 72.6961 32.0716 73.649 31.3745 74.6018C31.2621 74.7597 31.2156 74.934 31.2351 75.1248C31.2708 75.3136 31.3638 75.4646 31.5139 75.5779C31.6714 75.6962 31.8457 75.7427 32.0369 75.7174C32.2256 75.6869 32.3767 75.5939 32.49 75.4385C33.1872 74.4856 33.8961 73.5328 34.6165 72.5799C34.7342 72.4293 34.7807 72.255 34.756 72.057C34.7266 71.875 34.6336 71.7239 34.4771 71.6038C34.3268 71.4859 34.1525 71.4394 33.9542 71.4644ZM51.245 53.302C51.3828 53.1676 51.4526 53.0049 51.4542 52.814C51.4526 52.6231 51.3828 52.4604 51.245 52.326C51.1106 52.1881 50.9479 52.1184 50.757 52.1168C50.5661 52.1184 50.4034 52.1881 50.2689 52.326C49.4031 53.1858 48.5432 54.0573 47.6892 54.9405C47.5681 55.0837 47.51 55.2463 47.5149 55.4285C47.5231 55.6324 47.5928 55.7951 47.7241 55.9166C47.8726 56.0611 48.0353 56.1308 48.2122 56.1258C48.416 56.1229 48.5786 56.0532 48.7002 55.9166C49.5427 55.0335 50.3909 54.1619 51.245 53.302ZM37.1265 68.9196C37.3183 68.8966 37.4694 68.8036 37.5797 68.6407C38.335 67.7227 39.0903 66.7931 39.8456 65.8518C39.9796 65.7161 40.0377 65.5534 40.0199 65.3638C39.998 65.173 39.905 65.0103 39.741 64.8758C39.6053 64.7645 39.4426 64.7181 39.253 64.7363C39.0625 64.7583 38.8998 64.8396 38.7649 64.9803C38.0095 65.9216 37.2542 66.8512 36.499 67.7692C36.3875 67.9297 36.341 68.104 36.3596 68.2921C36.3821 68.4841 36.4634 68.6352 36.6036 68.7453C36.7637 68.8801 36.938 68.9382 37.1265 68.9196ZM41.7978 61.7383C41.8136 61.9459 41.8949 62.1086 42.0418 62.2264C42.1884 62.3606 42.3511 62.4187 42.5299 62.4007C42.7375 62.3842 42.9002 62.3029 43.0179 62.1566C43.785 61.2562 44.5636 60.3614 45.3536 59.4724C45.4982 59.34 45.5679 59.1773 45.5627 58.9843C45.5541 58.7969 45.4728 58.6343 45.3187 58.4963C45.1867 58.3746 45.024 58.3165 44.8307 58.322C44.6436 58.3309 44.4809 58.4006 44.3426 58.5311C43.5289 59.4316 42.7272 60.338 41.9373 61.2503C41.8262 61.3974 41.7797 61.5601 41.7978 61.7383ZM57.0319 46.0162C56.8554 46.0113 56.6927 46.0694 56.5438 46.1905C55.6955 47.0155 54.8357 47.8289 53.9641 48.6307C53.8332 48.7756 53.7635 48.9383 53.755 49.1188C53.7499 49.3189 53.808 49.4815 53.9293 49.6068C54.074 49.7613 54.2367 49.8427 54.4173 49.8509C54.6171 49.8558 54.7797 49.786 54.9054 49.6417C55.7769 48.8399 56.6368 48.0265 57.4851 47.2014C57.6392 47.0798 57.7206 46.9171 57.7291 46.7134C57.7342 46.5366 57.6644 46.3739 57.5199 46.2254C57.3985 46.0942 57.2358 46.0245 57.0319 46.0162ZM64.0388 41.1009C64.0508 40.9212 63.9927 40.7585 63.8645 40.6128C63.7402 40.4656 63.5775 40.3842 63.3765 40.3688C63.1973 40.3569 63.0346 40.415 62.8884 40.5431C61.9995 41.31 61.1047 42.0886 60.2042 42.8787C60.0739 43.0104 60.0042 43.1731 59.995 43.3668C59.9834 43.5592 60.0415 43.7219 60.1693 43.8548C60.3006 44.0084 60.4633 44.0898 60.6574 44.0989C60.8496 44.11 61.0123 44.0519 61.1454 43.9246C62.0344 43.1345 62.9175 42.3559 63.7948 41.5889C63.9416 41.4645 64.023 41.3018 64.0388 41.1009ZM70.488 35.314C70.3671 35.1569 70.2044 35.064 70 35.0351C69.8242 35.0108 69.6615 35.0573 69.5119 35.1746C68.5765 35.9007 67.6353 36.6328 66.6882 37.3708C66.5484 37.5043 66.4671 37.667 66.4442 37.8588C66.4256 38.0473 66.4721 38.21 66.5837 38.3469C66.7171 38.5102 66.8798 38.6031 67.0717 38.6258C67.2598 38.6442 67.4225 38.5861 67.5598 38.4515C68.501 37.7252 69.4306 37.0047 70.3486 36.2901C70.5114 36.1687 70.6043 36.006 70.6275 35.802C70.6522 35.6261 70.6057 35.4634 70.488 35.314ZM76.8675 29.9803C76.6901 29.9548 76.5158 29.9897 76.3446 30.0849C75.3742 30.7762 74.4098 31.4734 73.4512 32.1766C73.3015 32.2898 73.2085 32.4409 73.1723 32.6297C73.1528 32.8209 73.1993 32.9952 73.3118 33.1526C73.425 33.3085 73.576 33.4015 73.7649 33.4315C73.9557 33.4568 74.13 33.4103 74.2878 33.2921C75.2349 32.6007 76.1877 31.9151 77.1464 31.2353C77.3126 31.1352 77.4056 30.9841 77.4253 30.7821C77.4742 30.6045 77.4394 30.4302 77.3207 30.2592C77.2208 30.116 77.0697 30.023 76.8675 29.9803ZM83.9791 25.2742C83.8049 25.2422 83.6306 25.2771 83.4562 25.3787C82.4626 26.0061 81.4632 26.6453 80.4582 27.2961C80.2988 27.4063 80.1942 27.5573 80.1444 27.7493C80.1183 27.9367 80.1531 28.111 80.249 28.2722C80.3647 28.4317 80.5158 28.5246 80.7022 28.5511C80.8895 28.606 81.0638 28.5827 81.2251 28.4813C82.2186 27.8306 83.2063 27.1915 84.1882 26.564C84.3642 26.4607 84.4688 26.3096 84.502 26.1108C84.5574 25.9362 84.5341 25.7619 84.4323 25.5879C84.3292 25.4348 84.1782 25.3303 83.9791 25.2742ZM91.2998 20.9166C91.1229 20.8784 90.9486 20.9016 90.7769 20.9863C89.7543 21.5848 88.7317 22.189 87.7092 22.7991C87.54 22.895 87.4238 23.0345 87.3606 23.2174C87.3281 23.4016 87.3629 23.5759 87.4651 23.7403C87.5608 23.9096 87.7003 24.0142 87.8835 24.054C88.0675 24.1095 88.2418 24.0863 88.4064 23.9843C89.429 23.3859 90.4515 22.7933 91.4741 22.2064C91.6424 22.1231 91.747 21.9837 91.7878 21.7881C91.8496 21.6109 91.8263 21.4366 91.7181 21.2652C91.6351 21.0967 91.4956 20.9805 91.2998 20.9166ZM95.2739 19.9056C95.46 19.9616 95.6343 19.9383 95.7968 19.8359C96.8658 19.2958 97.9232 18.7728 98.9691 18.2672C99.1573 18.182 99.2851 18.0426 99.3526 17.8489C99.4148 17.6826 99.4032 17.5083 99.3177 17.326C99.2328 17.1607 99.0934 17.0445 98.8994 16.9773C98.7334 16.9153 98.5591 16.927 98.3765 17.0122C97.3133 17.5291 96.2442 18.0637 95.1693 18.6158C94.9967 18.7146 94.8805 18.854 94.8207 19.0341C94.7645 19.2145 94.7761 19.3888 94.8556 19.557C94.9541 19.7297 95.0935 19.8459 95.2739 19.9056ZM102.908 14.8857C102.733 14.9811 102.605 15.1206 102.525 15.304C102.468 15.48 102.48 15.6543 102.56 15.827C102.637 16.0024 102.765 16.1186 102.943 16.1756C103.119 16.2609 103.293 16.2609 103.466 16.1756C104.558 15.6992 105.651 15.2228 106.743 14.7463C106.917 14.6809 107.034 14.5531 107.092 14.3628C107.177 14.194 107.177 14.0196 107.092 13.8399C107.027 13.6653 106.899 13.5375 106.708 13.4564C106.539 13.3942 106.365 13.3942 106.185 13.4564C105.093 13.9328 104.001 14.4092 102.908 14.8857ZM114.691 10.319C114.519 10.2395 114.344 10.2278 114.168 10.2841C113.047 10.714 111.92 11.1439 110.787 11.574C110.62 11.6549 110.492 11.7828 110.403 11.9574C110.341 12.1368 110.341 12.3111 110.403 12.4803C110.484 12.6705 110.612 12.7983 110.787 12.8638C110.966 12.9491 111.141 12.9491 111.31 12.8638C112.431 12.4339 113.547 12.0039 114.656 11.574C114.834 11.517 114.962 11.4008 115.04 11.2254C115.12 11.0531 115.12 10.8787 115.04 10.7024C114.983 10.5248 114.867 10.397 114.691 10.319ZM123.127 8.57595C123.23 8.414 123.253 8.23969 123.197 8.05304C123.144 7.87293 123.027 7.73349 122.849 7.63472C122.686 7.55556 122.512 7.54394 122.326 7.59986C121.187 7.94837 120.048 8.3086 118.909 8.68053C118.722 8.741 118.583 8.8572 118.491 9.02914C118.406 9.19818 118.394 9.37248 118.456 9.55205C118.516 9.73897 118.633 9.87841 118.805 9.97038C118.974 10.0555 119.148 10.0672 119.328 10.0052C120.466 9.63339 121.605 9.27316 122.744 8.92456C122.925 8.87063 123.052 8.75443 123.127 8.57595ZM131.459 5.78711C131.426 5.61072 131.321 5.47128 131.145 5.36878C130.994 5.26683 130.82 5.23197 130.623 5.2642C129.46 5.55452 128.287 5.85665 127.102 6.17057C126.929 6.23476 126.789 6.35096 126.683 6.51918C126.604 6.69094 126.592 6.86524 126.648 7.04209C126.695 7.23818 126.8 7.37762 126.962 7.46042C127.134 7.56854 127.308 7.59178 127.485 7.53014C128.647 7.21648 129.797 6.91436 130.936 6.62376C131.136 6.59044 131.287 6.48586 131.389 6.31002C131.491 6.1585 131.515 5.9842 131.459 5.78711ZM139.791 3.97436C139.765 3.78853 139.672 3.63747 139.512 3.52117C139.351 3.42558 139.177 3.39072 138.989 3.41659C137.821 3.66052 136.648 3.90455 135.468 4.14866C135.293 4.19868 135.153 4.30327 135.05 4.46241C134.948 4.62999 134.913 4.8043 134.945 4.98532C134.995 5.18386 135.1 5.33492 135.259 5.4385C135.426 5.54018 135.601 5.56342 135.782 5.50822C136.95 5.2642 138.112 5.02018 139.268 4.77615C139.454 4.75001 139.593 4.65705 139.686 4.49727C139.805 4.33676 139.84 4.16246 139.791 3.97436ZM147.983 2.12675C147.833 2.00891 147.658 1.96243 147.46 1.98731C146.281 2.1558 145.107 2.3301 143.939 2.51022C143.75 2.55216 143.599 2.64512 143.486 2.7891C143.374 2.9526 143.327 3.1269 143.347 3.31201C143.388 3.5012 143.481 3.65226 143.625 3.7652C143.789 3.8833 143.963 3.92979 144.148 3.90464C145.305 3.71872 146.467 3.54441 147.634 3.38173C147.84 3.35223 148.003 3.25926 148.123 3.10285C148.241 2.95251 148.287 2.77821 148.262 2.57994C148.233 2.39801 148.14 2.24695 147.983 2.12675ZM156.768 1.56898C156.746 1.37807 156.653 1.21538 156.489 1.08093C156.354 0.969816 156.191 0.923335 156.001 0.941491C154.787 1.0576 153.578 1.18542 152.375 1.32496C152.201 1.34783 152.05 1.42918 151.922 1.56898C151.811 1.7353 151.764 1.9096 151.783 2.09189C151.806 2.28989 151.887 2.44095 152.027 2.54508C152.193 2.67989 152.367 2.73799 152.55 2.71938C153.741 2.57994 154.938 2.45212 156.14 2.33591C156.331 2.31376 156.482 2.2208 156.594 2.05703C156.728 1.9214 156.786 1.75872 156.768 1.56898ZM164.681 1.67356C164.876 1.66421 165.038 1.58287 165.169 1.42954C165.297 1.29636 165.355 1.13368 165.344 0.941491C165.334 0.747126 165.253 0.584443 165.1 0.453444C164.966 0.325712 164.803 0.267611 164.612 0.279141C163.397 0.348771 162.189 0.430112 160.986 0.523165C160.808 0.53887 160.657 0.620211 160.533 0.767189C160.405 0.913258 160.346 1.07594 160.359 1.25524C160.374 1.4565 160.456 1.61918 160.603 1.74328C160.748 1.87147 160.911 1.92957 161.091 1.91759C162.282 1.82472 163.479 1.74338 164.681 1.67356ZM173.884 0.662607C173.882 0.482494 173.813 0.319811 173.675 0.174559C173.533 0.0537273 173.359 -0.00437363 173.152 0.000256287C171.979 0.0234967 170.793 0.046737 169.597 0.0699774C169.416 0.072247 169.254 0.141968 169.109 0.279141C168.988 0.421216 168.929 0.583898 168.934 0.767189C168.936 0.970542 169.006 1.13322 169.143 1.25524C169.286 1.39931 169.448 1.46903 169.631 1.4644C170.828 1.44116 172.014 1.41792 173.187 1.39468C173.391 1.39241 173.553 1.32269 173.675 1.18552C173.82 1.04344 173.889 0.869138 173.884 0.662607ZM181.693 0.314001C181.579 0.183274 181.428 0.113553 181.24 0.104838C180.049 0.0582664 178.852 0.0234059 177.649 0.000256287C177.466 -0.00437363 177.303 0.0537273 177.161 0.174559C177.024 0.319811 176.954 0.482494 176.952 0.662607C176.947 0.869138 177.005 1.04344 177.126 1.18552C177.272 1.32269 177.434 1.39241 177.615 1.39468C178.806 1.41792 179.991 1.45278 181.17 1.49926C181.363 1.50443 181.526 1.43471 181.658 1.2901C181.812 1.17535 181.894 1.02429 181.902 0.83691C181.908 0.643543 181.838 0.46924 181.693 0.314001ZM190.373 1.2901C190.386 1.1108 190.327 0.948118 190.199 0.802049C190.075 0.655072 189.912 0.573731 189.711 0.558025C188.532 0.464973 187.346 0.383632 186.155 0.314001C185.963 0.302472 185.789 0.360573 185.632 0.488304C185.502 0.619394 185.432 0.782077 185.423 0.976352C185.412 1.16854 185.47 1.33122 185.598 1.4644C185.729 1.61773 185.891 1.69907 186.086 1.70842C187.265 1.77814 188.439 1.85949 189.607 1.95245C189.809 1.96443 189.984 1.90633 190.129 1.77814C190.277 1.65404 190.358 1.49136 190.373 1.2901ZM198.67 1.60384C198.566 1.46404 198.415 1.3827 198.217 1.35982C197.038 1.22029 195.852 1.09246 194.661 0.976352C194.472 0.958105 194.298 1.00459 194.138 1.11579C193.998 1.25006 193.917 1.41274 193.894 1.60384C193.876 1.79331 193.923 1.95599 194.034 2.09189C194.168 2.25557 194.331 2.34853 194.522 2.37077C195.701 2.48698 196.875 2.6148 198.043 2.75424C198.249 2.77285 198.423 2.71475 198.566 2.57994C198.729 2.47581 198.822 2.32475 198.845 2.12675C198.863 1.94446 198.805 1.77016 198.67 1.60384ZM206.444 4.00922C206.646 4.05806 206.82 4.0232 206.967 3.90464C207.134 3.80441 207.227 3.65335 207.246 3.45145C207.295 3.27352 207.26 3.09921 207.141 2.92854C207.041 2.7852 206.89 2.69224 206.688 2.64966C205.532 2.44621 204.358 2.24867 203.167 2.05703C202.976 2.03179 202.802 2.07827 202.644 2.19647C202.494 2.30968 202.401 2.46074 202.366 2.64966C202.346 2.84085 202.393 3.01515 202.505 3.17257C202.618 3.32826 202.769 3.42122 202.958 3.45145C204.138 3.63156 205.3 3.81749 206.444 4.00922ZM215.578 5.12476C215.633 4.94374 215.61 4.76943 215.508 4.60185C215.404 4.44271 215.253 4.33813 215.055 4.2881C213.899 4.04399 212.737 3.79997 211.569 3.55603C211.381 3.53016 211.207 3.56502 211.046 3.66061C210.886 3.77691 210.781 3.92797 210.732 4.1138C210.706 4.3019 210.741 4.47621 210.837 4.63671C210.953 4.79649 211.104 4.88945 211.29 4.9156C212.446 5.15962 213.596 5.40364 214.741 5.64767C214.945 5.70286 215.131 5.67962 215.299 5.57795C215.458 5.47436 215.551 5.3233 215.578 5.12476ZM219.168 6.44946C219.264 6.61841 219.403 6.72299 219.587 6.7632C220.743 7.07114 221.882 7.38488 223.003 7.70444C223.197 7.76036 223.371 7.73712 223.526 7.63472C223.706 7.5522 223.822 7.41275 223.875 7.21639C223.931 7.04563 223.907 6.87133 223.805 6.69348C223.722 6.53706 223.583 6.43248 223.386 6.37974C222.253 6.04856 221.103 5.7232 219.935 5.40364C219.751 5.37132 219.577 5.40618 219.412 5.50822C219.243 5.60373 219.127 5.74317 219.064 5.92655C219.031 6.11057 219.066 6.28487 219.168 6.44946ZM343.063 225.513C343.119 225.342 343.095 225.168 342.993 224.99C342.911 224.834 342.771 224.729 342.575 224.677C342.404 224.621 342.23 224.632 342.052 224.711C341.895 224.817 341.791 224.957 341.738 225.13C341.413 226.274 341.076 227.413 340.727 228.546C340.671 228.732 340.683 228.907 340.762 229.069C340.861 229.248 341 229.364 341.18 229.418C341.367 229.474 341.541 229.451 341.703 229.348C341.882 229.273 341.998 229.145 342.052 228.964C342.4 227.82 342.737 226.669 343.063 225.513ZM345.259 217.251C345.314 217.077 345.291 216.903 345.189 216.728C345.087 216.576 344.936 216.471 344.736 216.415C344.562 216.382 344.388 216.417 344.213 216.519C344.061 216.622 343.956 216.761 343.899 216.937C343.632 218.105 343.342 219.256 343.028 220.389C342.99 220.572 343.013 220.747 343.098 220.912C343.21 221.081 343.361 221.185 343.551 221.225C343.734 221.287 343.909 221.264 344.074 221.156C344.242 221.066 344.347 220.927 344.387 220.737C344.701 219.593 344.992 218.431 345.259 217.251ZM346.026 212.824C346.186 212.731 346.279 212.592 346.305 212.406C346.549 211.238 346.77 210.064 346.967 208.885C347.016 208.707 346.981 208.532 346.863 208.362C346.762 208.218 346.611 208.125 346.409 208.083C346.231 208.057 346.057 208.092 345.886 208.188C345.743 208.311 345.65 208.462 345.608 208.641C345.41 209.809 345.189 210.971 344.945 212.127C344.919 212.315 344.954 212.489 345.05 212.65C345.166 212.81 345.317 212.903 345.503 212.929C345.691 212.978 345.865 212.943 346.026 212.824ZM348.362 200.448C348.386 200.274 348.34 200.111 348.222 199.96C348.102 199.804 347.939 199.711 347.734 199.682C347.559 199.657 347.396 199.703 347.246 199.821C347.09 199.941 346.997 200.092 346.967 200.274C346.81 201.465 346.636 202.639 346.444 203.795C346.425 203.98 346.471 204.143 346.584 204.283C346.697 204.451 346.848 204.543 347.037 204.562C347.222 204.605 347.385 204.57 347.525 204.457C347.698 204.345 347.803 204.194 347.839 204.004C348.025 202.836 348.199 201.651 348.362 200.448ZM349.303 191.977C349.315 191.798 349.257 191.635 349.128 191.489C349.004 191.342 348.842 191.261 348.64 191.245C348.461 191.233 348.298 191.291 348.152 191.42C348.005 191.544 347.924 191.695 347.908 191.873C347.815 193.064 347.711 194.237 347.595 195.394C347.576 195.583 347.623 195.746 347.734 195.882C347.868 196.046 348.031 196.138 348.222 196.161C348.411 196.179 348.574 196.121 348.71 195.986C348.874 195.875 348.967 195.724 348.989 195.533C349.105 194.365 349.21 193.18 349.303 191.977ZM349.826 183.506C349.831 183.313 349.761 183.139 349.617 182.983C349.502 182.852 349.351 182.783 349.163 182.774C348.97 182.769 348.796 182.827 348.64 182.948C348.51 183.086 348.44 183.249 348.431 183.437C348.385 184.622 348.327 185.807 348.257 186.992C348.245 187.184 348.304 187.347 348.431 187.48C348.562 187.634 348.725 187.715 348.919 187.724C349.112 187.736 349.274 187.678 349.407 187.55C349.561 187.419 349.642 187.256 349.651 187.062C349.721 185.877 349.779 184.691 349.826 183.506ZM350 175C349.998 174.809 349.929 174.647 349.791 174.512C349.656 174.374 349.494 174.305 349.303 174.303C349.112 174.305 348.949 174.374 348.815 174.512C348.677 174.647 348.607 174.809 348.606 175C348.605 176.18 348.594 177.353 348.571 178.521C348.566 178.728 348.624 178.902 348.745 179.044C348.89 179.181 349.053 179.251 349.233 179.253C349.44 179.258 349.614 179.188 349.756 179.044C349.893 178.922 349.963 178.759 349.965 178.556C349.988 177.377 350 176.191 350 175ZM349.861 167.54C349.852 167.352 349.77 167.19 349.617 167.052C349.485 166.93 349.322 166.872 349.128 166.878C348.941 166.886 348.779 166.956 348.64 167.087C348.519 167.243 348.461 167.417 348.466 167.61C348.513 168.789 348.547 169.975 348.571 171.166C348.573 171.369 348.643 171.532 348.78 171.654C348.922 171.798 349.085 171.868 349.268 171.863C349.471 171.861 349.634 171.791 349.756 171.654C349.9 171.511 349.97 171.337 349.965 171.131C349.942 169.928 349.907 168.731 349.861 167.54ZM349.373 158.964C349.357 158.787 349.275 158.636 349.128 158.511C348.982 158.383 348.808 158.325 348.606 158.337C348.427 158.353 348.276 158.434 348.152 158.581C348.024 158.727 347.966 158.889 347.978 159.069C348.071 160.26 348.152 161.457 348.222 162.66C348.231 162.854 348.301 163.017 348.431 163.148C348.588 163.275 348.762 163.334 348.954 163.322C349.148 163.313 349.311 163.231 349.442 163.078C349.57 162.944 349.628 162.782 349.617 162.59C349.547 161.375 349.466 160.167 349.373 158.964ZM348.466 150.389C348.437 150.206 348.344 150.055 348.187 149.936C348.037 149.818 347.863 149.771 347.664 149.796C347.482 149.825 347.331 149.918 347.211 150.075C347.093 150.225 347.047 150.388 347.072 150.563C347.234 151.76 347.385 152.957 347.525 154.154C347.548 154.352 347.629 154.503 347.769 154.607C347.935 154.742 348.109 154.8 348.292 154.781C348.49 154.758 348.641 154.665 348.745 154.502C348.88 154.359 348.938 154.185 348.919 153.979C348.78 152.782 348.629 151.585 348.466 150.389ZM347.629 145.961C347.748 145.804 347.794 145.63 347.769 145.439C347.577 144.247 347.368 143.062 347.141 141.883C347.122 141.704 347.029 141.553 346.863 141.43C346.715 141.334 346.541 141.299 346.34 141.325C346.161 141.367 346.01 141.46 345.886 141.604C345.791 141.774 345.756 141.949 345.782 142.127C345.997 143.295 346.194 144.468 346.374 145.648C346.405 145.836 346.498 145.988 346.653 146.101C346.811 146.213 346.985 146.248 347.176 146.205C347.365 146.193 347.516 146.111 347.629 145.961ZM320.961 270.832C320.813 270.737 320.639 270.702 320.438 270.727C320.259 270.77 320.108 270.863 319.985 271.006C319.323 271.994 318.637 272.97 317.928 273.935C317.833 274.104 317.799 274.279 317.824 274.457C317.866 274.653 317.959 274.804 318.103 274.911C318.272 275.023 318.447 275.058 318.625 275.015C318.826 274.996 318.977 274.903 319.079 274.736C319.788 273.772 320.473 272.796 321.135 271.808C321.254 271.66 321.289 271.486 321.24 271.285C321.221 271.106 321.128 270.955 320.961 270.832ZM324.622 263.86C323.994 264.888 323.355 265.899 322.704 266.893C322.603 267.054 322.568 267.228 322.6 267.416C322.649 267.602 322.754 267.741 322.913 267.834C323.074 267.953 323.249 267.988 323.436 267.938C323.628 267.912 323.779 267.819 323.889 267.66C324.54 266.655 325.179 265.632 325.807 264.592C325.908 264.44 325.932 264.266 325.876 264.069C325.843 263.893 325.739 263.753 325.563 263.651C325.411 263.549 325.237 263.514 325.04 263.546C324.864 263.603 324.724 263.707 324.622 263.86ZM330.025 257.132C330.127 256.97 330.151 256.796 330.095 256.609C330.041 256.429 329.925 256.29 329.746 256.19C329.584 256.111 329.41 256.099 329.223 256.156C329.043 256.209 328.904 256.314 328.805 256.469C328.259 257.527 327.689 258.573 327.097 259.607C327.018 259.785 327.006 259.959 327.062 260.13C327.114 260.326 327.219 260.466 327.375 260.548C327.553 260.651 327.728 260.674 327.898 260.618C328.094 260.565 328.234 260.449 328.317 260.269C328.909 259.235 329.479 258.189 330.025 257.132ZM333.058 248.556C332.887 248.623 332.759 248.74 332.674 248.905C332.163 249.979 331.64 251.037 331.106 252.077C331.021 252.246 331.009 252.42 331.071 252.6C331.131 252.787 331.247 252.926 331.419 253.018C331.588 253.104 331.762 253.115 331.942 253.053C332.129 252.993 332.268 252.876 332.361 252.704C332.895 251.653 333.418 250.584 333.929 249.497C334.014 249.338 334.026 249.164 333.964 248.974C333.897 248.804 333.769 248.676 333.581 248.591C333.422 248.505 333.247 248.494 333.058 248.556ZM336.474 240.782C336.3 240.87 336.172 240.998 336.091 241.166C335.66 242.264 335.196 243.356 334.696 244.442C334.634 244.615 334.634 244.79 334.696 244.965C334.776 245.143 334.904 245.271 335.08 245.349C335.252 245.429 335.427 245.429 335.603 245.349C335.786 245.292 335.914 245.175 335.986 245C336.486 243.902 336.951 242.798 337.38 241.688C337.466 241.52 337.466 241.346 337.38 241.166C337.316 240.991 337.188 240.863 336.997 240.782C336.828 240.72 336.654 240.72 336.474 240.782ZM337.938 237.087C338.016 237.263 338.144 237.379 338.322 237.436C338.498 237.515 338.672 237.515 338.845 237.436C339.02 237.358 339.136 237.23 339.193 237.052C339.629 235.931 340.047 234.804 340.448 233.671C340.51 233.505 340.498 233.331 340.413 233.148C340.329 232.983 340.189 232.866 339.995 232.799C339.829 232.737 339.655 232.748 339.472 232.834C339.307 232.918 339.191 233.046 339.123 233.217C338.734 234.339 338.327 235.454 337.903 236.564C337.847 236.74 337.859 236.914 337.938 237.087ZM332.849 101.061C332.787 101.244 332.798 101.418 332.883 101.584C333.389 102.682 333.877 103.774 334.348 104.861C334.443 105.036 334.582 105.152 334.766 105.209C334.942 105.289 335.116 105.289 335.289 105.209C335.464 105.132 335.581 105.004 335.637 104.826C335.723 104.65 335.723 104.476 335.637 104.303C335.155 103.205 334.656 102.101 334.138 100.991C334.06 100.827 333.932 100.711 333.755 100.643C333.572 100.58 333.386 100.592 333.197 100.678C333.033 100.756 332.916 100.884 332.849 101.061ZM329.049 93.4614C328.993 93.6482 329.004 93.8225 329.084 93.9843C329.647 95.0359 330.193 96.0818 330.722 97.1218C330.815 97.2938 330.954 97.41 331.14 97.4704C331.32 97.5325 331.495 97.5208 331.663 97.4355C331.836 97.3434 331.952 97.2039 332.012 97.0172C332.074 96.8375 332.062 96.6632 331.977 96.4943C331.437 95.4426 330.879 94.3851 330.304 93.322C330.228 93.1665 330.1 93.0619 329.92 93.0082C329.733 92.952 329.547 92.9636 329.363 93.0431C329.207 93.1421 329.102 93.2816 329.049 93.4614ZM323.506 81.6437C322.849 80.6443 322.187 79.6565 321.519 78.6805C321.426 78.521 321.286 78.4164 321.101 78.3668C320.912 78.3407 320.738 78.3756 320.578 78.4714C320.418 78.5877 320.313 78.7387 320.264 78.9246C320.238 79.1121 320.273 79.2864 320.369 79.4475C321.025 80.4236 321.676 81.4113 322.321 82.4106C322.431 82.5699 322.582 82.6629 322.774 82.6895C322.961 82.7389 323.136 82.704 323.297 82.5849C323.456 82.4924 323.549 82.353 323.576 82.1666C323.631 81.9793 323.607 81.805 323.506 81.6437ZM318.8 75.0899C318.825 74.8992 318.779 74.7249 318.66 74.567C317.963 73.6141 317.254 72.6613 316.534 71.7084C316.413 71.5521 316.251 71.4591 316.046 71.4295C315.871 71.4046 315.708 71.4511 315.558 71.569C315.401 71.6891 315.308 71.8401 315.279 72.0222C315.254 72.2202 315.301 72.3945 315.418 72.5451C316.139 73.4979 316.848 74.4508 317.545 75.4036C317.658 75.5591 317.809 75.652 317.998 75.6825C318.189 75.7079 318.363 75.6614 318.521 75.5431C318.677 75.4298 318.77 75.2787 318.8 75.0899ZM325.214 85.6526C325.045 85.7483 324.929 85.8878 324.866 86.071C324.833 86.255 324.868 86.4293 324.97 86.5939C325.569 87.6165 326.15 88.639 326.713 89.6616C326.82 89.8299 326.959 89.9345 327.131 89.9754C327.332 90.0371 327.518 90.0138 327.689 89.9056C327.858 89.8226 327.962 89.6831 328.003 89.4873C328.064 89.3104 328.041 89.1361 327.933 88.9644C327.358 87.9418 326.765 86.9192 326.155 85.8967C326.059 85.7275 325.92 85.6113 325.737 85.5481C325.553 85.5156 325.378 85.5504 325.214 85.6526ZM228.162 7.77416C227.976 7.71824 227.79 7.72986 227.605 7.80902C227.449 7.90779 227.345 8.04723 227.291 8.22735C227.235 8.414 227.246 8.5883 227.326 8.75026C227.424 8.92873 227.564 9.04494 227.744 9.09886C228.877 9.44747 229.992 9.80769 231.091 10.1795C231.287 10.2415 231.473 10.2299 231.648 10.1447C231.82 10.0588 231.936 9.91936 231.997 9.72635C232.059 9.55305 232.047 9.37874 231.962 9.20344C231.876 9.03159 231.737 8.91539 231.544 8.85484C230.434 8.4829 229.307 8.12267 228.162 7.77416ZM240.015 12.7244C240.101 12.5551 240.101 12.3808 240.015 12.2015C239.95 12.0268 239.822 11.899 239.631 11.818C238.522 11.3879 237.406 10.958 236.285 10.5281C236.109 10.4719 235.934 10.4835 235.762 10.563C235.586 10.641 235.458 10.7688 235.378 10.9465C235.322 11.1228 235.334 11.2971 235.413 11.4694C235.491 11.6449 235.619 11.7611 235.797 11.818C236.907 12.2479 238.01 12.6779 239.109 13.1078C239.301 13.1932 239.487 13.1932 239.666 13.1078C239.841 13.0424 239.957 12.9145 240.015 12.7244ZM243.745 14.9903C244.832 15.4611 245.912 15.9491 246.987 16.4544C247.176 16.5398 247.362 16.5514 247.545 16.4893C247.722 16.4217 247.85 16.2938 247.928 16.1058C248.014 15.9403 248.025 15.766 247.963 15.5829C247.895 15.4062 247.767 15.2783 247.58 15.1995C246.493 14.6822 245.401 14.1825 244.303 13.7005C244.123 13.6383 243.937 13.6383 243.745 13.7005C243.578 13.7815 243.45 13.9093 243.362 14.0839C243.299 14.2637 243.299 14.438 243.362 14.6068C243.443 14.7971 243.571 14.9249 243.745 14.9903ZM273.098 31.1656C273.14 31.3664 273.233 31.5175 273.376 31.6188C274.358 32.3218 275.323 33.019 276.27 33.7104C276.428 33.8286 276.602 33.8751 276.793 33.8499C276.982 33.8198 277.133 33.7268 277.246 33.571C277.364 33.4136 277.411 33.2393 277.385 33.0481C277.355 32.8592 277.262 32.7082 277.107 32.5949C276.148 31.8919 275.172 31.183 274.178 30.4684C274.032 30.3735 273.857 30.3387 273.655 30.3638C273.483 30.4058 273.344 30.4988 273.237 30.6427C273.124 30.8124 273.078 30.9867 273.098 31.1656ZM255.667 19.4176C255.613 19.2375 255.497 19.098 255.319 18.9993C254.255 18.4473 253.186 17.9012 252.112 17.3608C251.936 17.2757 251.75 17.264 251.554 17.326C251.384 17.3865 251.256 17.5027 251.17 17.6746C251.085 17.8499 251.073 18.0242 251.135 18.1975C251.196 18.3902 251.312 18.5296 251.484 18.6158C252.553 19.1445 253.622 19.679 254.691 20.2194C254.86 20.3218 255.034 20.345 255.214 20.2891C255.395 20.2294 255.522 20.1132 255.598 19.9405C255.7 19.7723 255.724 19.598 255.667 19.4176ZM267.067 25.7622C266.916 25.6605 266.741 25.6257 266.544 25.6576C266.368 25.7137 266.229 25.8183 266.126 25.9714C266.024 26.1454 265.989 26.3197 266.021 26.4943C266.077 26.6931 266.182 26.8442 266.335 26.9475C267.34 27.575 268.339 28.2141 269.333 28.8648C269.494 28.9662 269.668 28.9894 269.856 28.9345C270.042 28.9081 270.181 28.8151 270.274 28.6556C270.393 28.4945 270.428 28.3202 270.378 28.1327C270.352 27.9408 270.259 27.7897 270.1 27.6795C269.094 27.0287 268.083 26.3896 267.067 25.7622ZM263.162 23.6009C263.122 23.4179 263.018 23.2785 262.849 23.1825C261.82 22.5724 260.774 21.9681 259.711 21.3698C259.556 21.2908 259.382 21.2792 259.188 21.3349C259.015 21.3876 258.876 21.4922 258.77 21.6487C258.691 21.8265 258.679 22.0008 258.735 22.1716C258.788 22.3676 258.892 22.507 259.049 22.5899C260.1 23.1768 261.135 23.7694 262.151 24.3678C262.316 24.4697 262.49 24.493 262.674 24.4375C262.857 24.3977 262.997 24.2931 263.093 24.1238C263.195 23.9594 263.218 23.785 263.162 23.6009ZM310.015 65.3638C309.997 65.5652 310.043 65.7395 310.154 65.8867C310.933 66.7873 311.688 67.6936 312.42 68.6058C312.554 68.7688 312.717 68.8618 312.908 68.8847C313.097 68.9033 313.26 68.8452 313.396 68.7104C313.56 68.6003 313.653 68.4492 313.675 68.2572C313.694 68.0691 313.636 67.8948 313.501 67.7343C312.769 66.8104 312.014 65.8924 311.235 64.9803C311.117 64.834 310.955 64.7527 310.747 64.7363C310.568 64.7182 310.406 64.7647 310.259 64.8758C310.112 65.0166 310.031 65.1793 310.015 65.3638ZM302.52 55.4285C302.525 55.2521 302.455 55.0894 302.311 54.9405C301.503 54.0863 300.678 53.238 299.836 52.3957C299.701 52.2579 299.539 52.1881 299.348 52.1865C299.157 52.1881 298.994 52.2579 298.86 52.3957C298.722 52.5301 298.652 52.6928 298.65 52.8837C298.652 53.0746 298.722 53.2373 298.86 53.3718C299.69 54.2027 300.504 55.0394 301.3 55.8817C301.445 56.0359 301.607 56.1172 301.788 56.1258C301.988 56.1308 302.151 56.0611 302.276 55.9166C302.43 55.7951 302.512 55.6324 302.52 55.4285ZM305.692 58.5311C305.561 58.4009 305.398 58.3311 305.204 58.322C305.012 58.3103 304.837 58.3684 304.681 58.4963C304.551 58.6275 304.481 58.7902 304.472 58.9843C304.461 59.1766 304.519 59.3393 304.646 59.4724C305.437 60.3613 306.215 61.2444 306.982 62.1218C307.106 62.2686 307.258 62.3499 307.435 62.3658C307.638 62.3778 307.812 62.3197 307.958 62.1915C308.105 62.0671 308.187 61.9044 308.202 61.7034C308.214 61.5242 308.156 61.3616 308.028 61.2154C307.261 60.3265 306.482 59.4317 305.692 58.5311ZM286.589 41.6238C286.604 41.8242 286.685 41.9869 286.833 42.1118C287.733 42.902 288.628 43.7038 289.517 44.5172C289.673 44.6447 289.848 44.7028 290.04 44.6915C290.234 44.6824 290.397 44.6011 290.528 44.4475C290.656 44.3146 290.714 44.1519 290.702 43.9594C290.693 43.7656 290.611 43.6029 290.458 43.4714C289.558 42.658 288.651 41.8562 287.739 41.066C287.593 40.9383 287.419 40.8802 287.216 40.8917C287.039 40.9069 286.887 40.9883 286.763 41.1357C286.635 41.2811 286.577 41.4438 286.589 41.6238ZM283.974 38.8001C284.109 38.6632 284.167 38.5005 284.148 38.312C284.125 38.1202 284.032 37.9575 283.87 37.824C282.952 37.0919 282.022 36.3482 281.081 35.5929C280.943 35.4814 280.781 35.4349 280.593 35.4534C280.401 35.476 280.238 35.5573 280.105 35.6975C279.993 35.8576 279.947 36.0319 279.965 36.2204C279.988 36.4122 280.069 36.5633 280.209 36.6736C281.15 37.4289 282.08 38.1726 282.998 38.9046C283.159 39.0393 283.333 39.0974 283.521 39.0789C283.713 39.0563 283.864 38.9634 283.974 38.8001ZM296.698 50.2692C296.836 50.1347 296.906 49.972 296.907 49.7811C296.906 49.5902 296.836 49.4275 296.698 49.2931C295.832 48.4272 294.949 47.5789 294.049 46.7483C293.916 46.6269 293.754 46.5688 293.561 46.574C293.373 46.5826 293.211 46.6523 293.073 46.7831C292.951 46.9384 292.893 47.1127 292.898 47.306C292.907 47.4931 292.977 47.6442 293.108 47.7592C293.996 48.5786 294.868 49.4153 295.722 50.2692C295.857 50.407 296.019 50.4767 296.21 50.4783C296.401 50.4767 296.564 50.407 296.698 50.2692ZM345.12 137.699C345.287 137.801 345.461 137.824 345.642 137.769C345.841 137.742 345.992 137.65 346.096 137.49C346.197 137.323 346.221 137.137 346.165 136.933C345.921 135.782 345.654 134.62 345.364 133.446C345.33 133.27 345.226 133.131 345.05 133.028C344.898 132.926 344.724 132.891 344.527 132.924C344.35 132.98 344.211 133.085 344.109 133.237C344.007 133.412 343.972 133.586 344.004 133.76C344.294 134.934 344.562 136.096 344.806 137.246C344.856 137.445 344.96 137.596 345.12 137.699ZM342.888 124.696C342.734 124.617 342.56 124.606 342.366 124.662C342.192 124.714 342.053 124.819 341.947 124.975C341.868 125.153 341.856 125.327 341.912 125.498C342.232 126.643 342.534 127.793 342.819 128.949C342.882 129.133 342.998 129.273 343.167 129.368C343.332 129.47 343.506 129.493 343.69 129.438C343.874 129.397 344.013 129.293 344.109 129.124C344.211 128.959 344.234 128.785 344.178 128.601C343.882 127.433 343.568 126.271 343.237 125.115C343.184 124.942 343.068 124.802 342.888 124.696ZM341.773 120.339C341.401 119.194 341.018 118.055 340.622 116.923C340.555 116.751 340.427 116.623 340.239 116.539C340.08 116.454 339.905 116.442 339.716 116.504C339.545 116.572 339.417 116.688 339.333 116.853C339.247 117.036 339.236 117.21 339.298 117.376C339.693 118.497 340.076 119.624 340.448 120.757C340.509 120.944 340.625 121.084 340.797 121.176C340.966 121.261 341.14 121.273 341.32 121.21C341.507 121.15 341.646 121.034 341.738 120.862C341.823 120.693 341.835 120.518 341.773 120.339ZM338.879 112.739C338.959 112.567 338.959 112.392 338.879 112.216C338.473 111.095 338.043 109.979 337.59 108.87C337.531 108.702 337.415 108.574 337.241 108.486C337.061 108.424 336.875 108.424 336.683 108.486C336.516 108.568 336.388 108.695 336.3 108.87C336.238 109.05 336.238 109.224 336.3 109.393C336.753 110.491 337.183 111.595 337.59 112.704C337.67 112.882 337.798 113.01 337.973 113.088C338.145 113.168 338.32 113.168 338.496 113.088C338.674 113.031 338.801 112.915 338.879 112.739Z" fill="black"/>
<path d="M92.0486 128.188H76.3421L35.5585 221.889H56.8873L64.4729 204.451H103.873L111.459 221.889H132.832L92.0486 128.188ZM72.0585 186.924L84.1954 158.916L96.2876 186.924H72.0585Z" fill="black"/>
<path d="M314.458 178.991C314.458 174.999 313.511 171.555 311.619 168.657C309.667 165.729 307.272 163.571 304.433 162.181C301.624 160.762 298.504 159.564 295.074 158.588C291.614 157.613 288.48 156.726 285.671 155.927C282.861 155.129 280.481 154.168 278.529 153.044C276.578 151.98 275.602 150.634 275.602 149.008C275.602 144.78 279.091 142.665 286.07 142.665C292.694 142.665 298.534 145.46 303.59 151.048L313.97 141.024C307.523 132.479 298.401 128.206 286.602 128.206C278.648 128.206 272.157 130.305 267.13 134.504C262.103 138.644 259.589 143.612 259.589 149.407C259.589 153.399 260.565 156.814 262.517 159.653C264.439 162.462 266.819 164.561 269.658 165.951C272.526 167.341 275.661 168.553 279.062 169.588C282.492 170.564 285.611 171.481 288.421 172.338C291.259 173.137 293.655 174.186 295.606 175.487C297.558 176.788 298.534 178.356 298.534 180.189C298.534 182.052 297.632 183.604 295.828 184.846C293.995 186.058 291.274 186.665 287.667 186.665C283.408 186.665 279.476 185.6 275.868 183.471C272.483 181.473 269.674 178.783 267.44 175.399L256.795 185.999C259.379 190.116 263.076 193.576 267.884 196.378C273.384 199.542 280.111 201.124 288.066 201.124C295.577 201.124 301.846 199.024 306.873 194.826C311.929 190.597 314.458 185.319 314.458 178.991Z" fill="black"/>
<path d="M247.172 151.048L257.551 141.024C251.105 132.479 241.982 128.206 230.183 128.206C222.229 128.206 215.738 130.305 210.711 134.504C205.684 138.644 203.17 143.612 203.17 149.407C203.17 153.399 204.146 156.814 206.098 159.653C208.05 162.462 210.43 164.561 213.239 165.951C216.108 167.341 219.242 168.553 222.643 169.588C226.073 170.564 229.193 171.481 232.002 172.338C234.841 173.137 237.236 174.186 239.188 175.487C241.139 176.788 242.115 178.356 242.115 180.189C242.115 182.052 241.213 183.604 239.409 184.846C237.576 186.058 234.855 186.665 231.248 186.665C226.99 186.665 223.057 185.6 219.449 183.471C216.078 181.49 213.269 178.814 211.022 175.443L200.42 186.044C202.993 190.124 206.675 193.569 211.465 196.378C216.965 199.542 223.693 201.124 231.647 201.124C239.158 201.124 245.427 199.024 250.454 194.826C255.511 190.597 258.039 185.319 258.039 178.991C258.039 174.999 257.093 171.555 255.2 168.657C253.278 165.729 250.883 163.571 248.014 162.181C245.205 160.762 242.086 159.564 238.655 158.588C235.196 157.613 232.061 156.726 229.252 155.927C226.443 155.129 224.062 154.168 222.111 153.044C220.159 151.98 219.183 150.634 219.183 149.008C219.183 144.78 222.672 142.665 229.651 142.665C236.275 142.665 242.115 145.46 247.172 151.048Z" fill="black"/>
<path d="M203.238 128.161H132.826V221.863H153.53V186.05H200.382V168.032H153.53V147.562H203.238V128.161Z" fill="black"/>
<path d="M314.433 221.774V201.08H200.338V221.774H314.433Z" fill="black"/>
</g>
<defs>
<clipPath id="clip0_458_8952">
<rect width="350" height="350" fill="white"/>
</clipPath>
</defs>
</svg>
