<svg width="82" height="82" viewBox="0 0 82 82" fill="none" xmlns="http://www.w3.org/2000/svg">
<path d="M59.3983 43.45C59.4983 42.65 59.5733 41.85 59.5733 41C59.5733 40.15 59.4983 39.35 59.3983 38.55L64.6733 34.425C65.1483 34.05 65.2733 33.375 64.9733 32.825L59.9733 24.175C59.7483 23.775 59.3233 23.55 58.8733 23.55C58.7233 23.55 58.5733 23.575 58.4483 23.625L52.2233 26.125C50.9233 25.125 49.5233 24.3 47.9983 23.675L47.0483 17.05C46.9733 16.45 46.4483 16 45.8233 16H35.8233C35.1983 16 34.6733 16.45 34.5983 17.05L33.6483 23.675C32.1233 24.3 30.7233 25.15 29.4233 26.125L23.1983 23.625C23.0483 23.575 22.8983 23.55 22.7483 23.55C22.3233 23.55 21.8983 23.775 21.6733 24.175L16.6733 32.825C16.3483 33.375 16.4983 34.05 16.9733 34.425L22.2483 38.55C22.1483 39.35 22.0733 40.175 22.0733 41C22.0733 41.825 22.1483 42.65 22.2483 43.45L16.9733 47.575C16.4983 47.95 16.3733 48.625 16.6733 49.175L21.6733 57.825C21.8983 58.225 22.3233 58.45 22.7733 58.45C22.9233 58.45 23.0733 58.425 23.1983 58.375L29.4233 55.875C30.7233 56.875 32.1233 57.7 33.6483 58.325L34.5983 64.95C34.6733 65.55 35.1983 66 35.8233 66H45.8233C46.4483 66 46.9733 65.55 47.0483 64.95L47.9983 58.325C49.5233 57.7 50.9233 56.85 52.2233 55.875L58.4483 58.375C58.5983 58.425 58.7483 58.45 58.8983 58.45C59.3233 58.45 59.7483 58.225 59.9733 57.825L64.9733 49.175C65.2733 48.625 65.1483 47.95 64.6733 47.575L59.3983 43.45V43.45ZM54.4483 39.175C54.5483 39.95 54.5733 40.475 54.5733 41C54.5733 41.525 54.5233 42.075 54.4483 42.825L54.0983 45.65L56.3233 47.4L59.0233 49.5L57.2733 52.525L54.0983 51.25L51.4983 50.2L49.2483 51.9C48.1733 52.7 47.1483 53.3 46.1233 53.725L43.4733 54.8L43.0733 57.625L42.5733 61H39.0733L38.5983 57.625L38.1983 54.8L35.5483 53.725C34.4733 53.275 33.4733 52.7 32.4733 51.95L30.1983 50.2L27.5483 51.275L24.3733 52.55L22.6233 49.525L25.3233 47.425L27.5483 45.675L27.1983 42.85C27.1233 42.075 27.0733 41.5 27.0733 41C27.0733 40.5 27.1233 39.925 27.1983 39.175L27.5483 36.35L25.3233 34.6L22.6233 32.5L24.3733 29.475L27.5483 30.75L30.1483 31.8L32.3983 30.1C33.4733 29.3 34.4983 28.7 35.5233 28.275L38.1733 27.2L38.5733 24.375L39.0733 21H42.5483L43.0233 24.375L43.4233 27.2L46.0733 28.275C47.1483 28.725 48.1483 29.3 49.1483 30.05L51.4233 31.8L54.0733 30.725L57.2483 29.45L58.9983 32.475L56.3233 34.6L54.0983 36.35L54.4483 39.175ZM40.8233 31C35.2983 31 30.8233 35.475 30.8233 41C30.8233 46.525 35.2983 51 40.8233 51C46.3483 51 50.8233 46.525 50.8233 41C50.8233 35.475 46.3483 31 40.8233 31ZM40.8233 46C38.0733 46 35.8233 43.75 35.8233 41C35.8233 38.25 38.0733 36 40.8233 36C43.5733 36 45.8233 38.25 45.8233 41C45.8233 43.75 43.5733 46 40.8233 46Z" fill="white"/>
</svg>
